<?xml version="1.0" encoding="UTF-8"?>
<!DOCTYPE svg PUBLIC "-//W3C//DTD SVG 1.1//EN" "http://www.w3.org/Graphics/SVG/1.1/DTD/svg11.dtd">
<!-- Creator: CorelDRAW X7 -->
<svg xmlns="http://www.w3.org/2000/svg" xml:space="preserve" width="2654px" height="1121px" version="1.1" style="shape-rendering:geometricPrecision; text-rendering:geometricPrecision; image-rendering:optimizeQuality; fill-rule:evenodd; clip-rule:evenodd"
viewBox="0 0 2654 1121"
 xmlns:xlink="http://www.w3.org/1999/xlink">
 <defs>
  <style type="text/css">
   <![CDATA[
    .fil0 {fill:#093C49;fill-rule:nonzero}
   ]]>
  </style>
 </defs>
 <g id="Camada_x0020_1">
  <metadata id="CorelCorpID_0Corel-Layer"/>
  <polygon class="fil0" points="1717,459 1735,434 1569,434 1592,459 "/>
  <path class="fil0" d="M192 413c8,-7 21,-22 39,-46 9,-11 17,-21 24,-29 7,-9 13,-15 18,-20 8,-7 16,-10 23,-10 6,0 11,2 15,5 6,4 10,9 10,13 0,4 -3,8 -9,12 -5,3 -11,7 -18,12 -7,6 -15,12 -24,21 -9,8 -18,15 -26,22 -9,8 -17,14 -24,20l-28 0zm194 253c0,-60 -14,-108 -41,-145 -27,-37 -63,-56 -109,-56 -46,0 -82,19 -109,56 -27,36 -40,85 -40,145 0,59 13,107 40,144 27,37 63,55 109,55 46,0 82,-18 109,-55 27,-38 41,-86 41,-144zm59 -1c0,69 -19,124 -58,167 -38,42 -88,63 -151,63 -62,0 -113,-21 -151,-63 -38,-43 -57,-98 -57,-167 0,-68 19,-124 57,-167 38,-43 89,-64 151,-64 63,0 113,21 151,64 39,43 58,98 58,167z"/>
  <path class="fil0" d="M718 455c0,-7 2,-14 8,-21 5,-6 11,-9 19,-9 8,0 15,3 20,9 5,7 8,14 8,21 0,8 -3,15 -8,22 -5,6 -12,9 -20,9 -8,0 -14,-3 -19,-9 -6,-7 -8,-14 -8,-22zm48 391c0,10 1,17 3,20 1,4 5,6 11,6l5 0 10 16 -116 0 10 -16 9 0c8,0 13,-2 16,-6 3,-4 4,-11 4,-22l0 -216c0,-7 0,-12 -1,-15 0,-2 -3,-4 -8,-4l-7 1 -17 6 12 -27 59 -19 10 0 0 276z"/>
  <path class="fil0" d="M1078 830c-11,19 -25,35 -43,47 -18,11 -40,17 -66,17 -42,0 -76,-15 -102,-44 -25,-29 -38,-68 -38,-115 0,-49 14,-89 43,-120 29,-32 66,-48 111,-48 20,0 40,5 58,14 17,8 28,18 33,30 1,15 -5,23 -18,24l-5 1c-5,-1 -9,-8 -12,-21 -9,-8 -17,-14 -26,-17 -9,-2 -19,-4 -31,-4 -16,0 -31,3 -44,9 -13,7 -24,15 -34,26 -9,11 -16,25 -21,41 -5,15 -8,33 -8,51 0,38 10,69 31,94 21,25 48,38 80,38 22,0 41,-6 56,-17 16,-11 26,-27 30,-47l6 41z"/>
  <path class="fil0" d="M638 823c-2,17 -7,28 -13,32 -6,4 -14,6 -24,6 -26,0 -39,-19 -39,-56l0 -183 -47 0 0 183c0,31 5,53 15,68 11,14 28,21 51,21 15,0 29,-3 41,-10 12,-7 20,-14 24,-20l-8 -41z"/>
  <path class="fil0" d="M634 603l0 -29 -72 0 0 -83c0,-3 0,-4 0,-4 0,-1 -2,-3 -6,-9l-14 15c-4,8 -7,17 -10,26 -4,9 -7,18 -9,26 -3,8 -6,18 -9,28l-49 9 0 21 169 0z"/>
  <path class="fil0" d="M1381 865c-9,0 -16,-8 -16,-17 0,0 0,-180 0,-180 0,-67 -34,-101 -102,-101 -30,0 -54,6 -73,17 -20,10 -31,22 -34,35 0,15 5,24 15,27 3,1 5,1 7,1 5,0 8,-2 9,-7 -2,-3 -4,-7 -4,-11 -1,-4 -1,-8 1,-10 6,-10 16,-16 30,-21 14,-4 28,-6 43,-6 19,0 35,5 45,15 11,10 17,27 17,50l0 44c-12,4 -25,7 -39,10 -14,2 -28,5 -41,8 -14,4 -28,8 -41,12 -12,4 -24,10 -34,17 -11,8 -19,16 -24,24 -6,9 -8,23 -8,41 0,11 2,22 6,32 4,10 10,19 17,26 8,8 17,13 28,18 11,4 23,6 36,6 17,0 34,-4 52,-13 10,-4 20,-11 29,-19l0 -30c-2,2 -3,3 -5,5 -7,6 -16,11 -25,14 -10,4 -20,6 -32,6 -19,0 -33,-5 -42,-16 -10,-10 -14,-24 -14,-41 0,-10 2,-17 6,-22 5,-4 11,-9 19,-15 9,-6 19,-11 31,-15 11,-5 25,-9 40,-13l41 -10 0 34 0 0 0 136 79 0 0 -45c-1,8 -8,14 -17,14z"/>
  <path class="fil0" d="M2377 862l-1 -3c1,-1 1,-2 2,-4 0,-1 1,-3 2,-4l62 -81 -20 -27 -83 107c-3,4 -6,8 -10,11 -4,3 -8,4 -14,4l-13 25 106 0 -17 -25c-8,0 -13,-1 -14,-3z"/>
  <path class="fil0" d="M2519 865l-15 25 125 0 -12 -25c-12,0 -22,-7 -31,-20l-101 -137 76 -98c8,-10 18,-16 32,-17l16 -24 -118 0 21 24c7,0 11,1 13,5 1,1 2,3 2,4 0,2 -1,5 -3,8l-58 70 -55 -68c-3,-5 -3,-8 -3,-11l0 -3c1,-3 6,-5 15,-5l18 -24 -135 0 17 24c10,0 16,2 20,6 4,3 7,8 11,12l176 236c3,4 4,7 4,10 0,1 0,3 -2,4 -2,3 -7,4 -13,4z"/>
  <path class="fil0" d="M2161 836c-8,8 -17,13 -27,17 -11,4 -22,6 -34,6 -20,0 -36,-7 -48,-20 -11,-14 -17,-32 -17,-56l2 -214 -74 0 -3 28 10 0c6,0 11,2 13,6 3,4 4,10 4,17l0 170c0,34 8,60 25,78 17,19 41,28 72,28 23,0 43,-5 59,-15 6,-4 12,-9 18,-15l0 -30z"/>
  <path class="fil0" d="M2255 870l-6 0c-11,0 -16,-6 -16,-19l1 -282 -78 0 -12 30 20 -2c8,0 13,2 16,6 3,4 5,10 5,17l0 157c0,1 0,1 0,2l0 113 74 0 -4 -22z"/>
  <path class="fil0" d="M1898 807c-12,22 -24,36 -38,42 -13,6 -32,8 -58,8l-87 0c-13,0 -22,0 -26,-1 -5,-2 -7,-5 -7,-11l0 -350c0,-5 0,-8 1,-12l-59 0c0,4 0,7 0,12l0 337c0,6 -1,12 -4,17 -3,5 -9,7 -19,7l-9 0c-2,1 -3,3 -5,6 -1,3 -2,7 -4,10 -1,4 -2,7 -3,11 -1,3 -2,5 -3,7l319 0 24 -105c-10,4 -17,12 -22,22z"/>
  <path class="fil0" d="M1395 235c-24,0 -44,-20 -44,-45 0,-14 6,-27 16,-35 -9,-4 -19,-6 -30,-6 -46,0 -83,38 -83,85 0,48 37,86 83,86 46,0 83,-38 83,-86 0,-2 0,-4 0,-6 -7,5 -16,7 -25,7z"/>
  <path class="fil0" d="M1592 125c0,0 0,-1 0,-1 -80,-53 -165,-92 -264,-92 -90,1 -168,32 -243,79 -76,47 -151,97 -239,120 21,-4 42,-6 63,-11 71,-14 131,-51 189,-90 154,-103 306,-104 459,0 11,7 23,14 35,21l0 -26z"/>
  <path class="fil0" d="M1632 291c-43,25 -86,53 -130,77 -116,62 -233,62 -349,-1 -32,-17 -62,-36 -93,-54l0 20c3,5 7,10 12,13 18,13 37,24 57,35 135,72 269,71 403,-3 91,-50 173,-117 279,-139 -65,0 -123,20 -179,52z"/>
  <polygon class="fil0" points="133,1051 634,1051 634,1027 133,1027 "/>
  <path class="fil0" d="M799 1025c0,-11 -8,-18 -23,-18l-20 0 0 37 20 0c15,0 23,-7 23,-19zm18 0c0,21 -16,34 -40,34l-21 0 0 27 -18 0 0 -94 39 0c24,0 40,13 40,33z"/>
  <path class="fil0" d="M978 1047l0 -15c0,-18 -9,-26 -24,-26 -15,0 -25,8 -25,26l0 15 49 0zm18 -13l0 52 -18 0 0 -24 -49 0 0 24 -17 0 0 -52c0,-28 17,-43 42,-43 25,0 42,15 42,43z"/>
  <polygon class="fil0" points="1100,992 1118,992 1118,1071 1167,1071 1167,1086 1100,1086 "/>
  <polygon class="fil0" points="1344,992 1344,1086 1327,1086 1327,1046 1279,1046 1279,1086 1261,1086 1261,992 1279,992 1279,1031 1327,1031 1327,992 "/>
  <path class="fil0" d="M1515 1047l0 -15c0,-18 -9,-26 -24,-26 -15,0 -25,8 -25,26l0 15 49 0zm18 -13l0 52 -18 0 0 -24 -49 0 0 24 -17 0 0 -52c0,-28 17,-43 42,-43 25,0 42,15 42,43z"/>
  <path class="fil0" d="M1720 1030l0 56 -17 0 0 -55c0,-17 -9,-25 -23,-25 -15,0 -25,8 -25,27l0 53 -17 0 0 -94 16 0 0 12c7,-9 17,-13 30,-13 22,0 36,14 36,39z"/>
  <path class="fil0" d="M1902 1039c0,-19 -14,-33 -33,-33 -19,0 -33,14 -33,33 0,19 14,33 33,33 19,0 33,-14 33,-33zm-84 0c0,-28 22,-48 51,-48 29,0 50,20 50,48 0,28 -21,48 -50,48 -29,0 -51,-20 -51,-48z"/>
  <polygon class="fil0" points="2024,1051 2525,1051 2525,1027 2024,1027 "/>
 </g>
</svg>
