<svg xmlns="http://www.w3.org/2000/svg" viewBox="0 0 64 64" fill="none" aria-hidden="true">
  <!-- Negócio · #2f1533 — bloco estrutural + módulo de reposicionamento -->
  <!-- base cut-card -->
  <path fill="#2f1533" fill-rule="evenodd" d="
    M8 16c0-3.3 2.7-6 6-6h20L48 24v24c0 3.3-2.7 6-6 6H14c-3.3 0-6-2.7-6-6V16z
    M20 26h16v3.2H20V26zm0 8h20v3.2H20V34zm0 8h12v3.2H20V42z
  "/>
  <!-- módulo encaixado (destaque) -->
  <path fill="#2f1533" d="M40 8h12c2.2 0 4 1.8 4 4v8L46 32h-6V8z"/>
  <path fill="#2f1533" d="M46 36h10l2 5v7c0 1.7-1.3 3-3 3H46V36z"/>
</svg>
