<svg xmlns="http://www.w3.org/2000/svg" viewBox="0 0 64 64" fill="none" aria-hidden="true">
  <!-- Mercado · laranja — radar de sinais + nós de oportunidade -->
  <path fill="#ff4817" d="M32 8c13.3 0 24 10.7 24 24S45.3 56 32 56 8 45.3 8 32 18.7 8 32 8zm0 6C22 14 14 22 14 32s8 18 18 18 18-8 18-18-8-18-18-18z" opacity=".22"/>
  <path stroke="#ff4817" stroke-width="2.6" stroke-linecap="round" fill="none" d="M32 18a14 14 0 0 1 14 14"/>
  <path stroke="#ff4817" stroke-width="2.6" stroke-linecap="round" fill="none" d="M32 12a20 20 0 0 1 20 20"/>
  <path stroke="#ff4817" stroke-width="2.6" stroke-linecap="round" fill="none" d="M32 24a8 8 0 0 1 8 8"/>
  <circle cx="32" cy="32" r="3.4" fill="#ff4817"/>
  <path stroke="#ff4817" stroke-width="2.8" stroke-linecap="round" d="M32 32l16-16"/>
  <circle cx="48" cy="16" r="3" fill="#ff4817"/>
  <circle cx="50" cy="38" r="2.4" fill="#ff4817"/>
  <circle cx="22" cy="46" r="2.4" fill="#ff4817"/>
  <path stroke="#ff4817" stroke-width="2" stroke-linecap="round" d="M48 16l2 22M50 38l-28 8"/>
</svg>
