<svg width="168" height="118" viewBox="0 0 168 118" fill="none" xmlns="http://www.w3.org/2000/svg">
<path d="M99.3841 61.5777C99.6075 61.5763 99.8214 61.5854 100.026 61.6044C100.094 61.6107 100.162 61.618 100.228 61.6265C100.36 61.6435 100.489 61.6645 100.613 61.6899C100.738 61.7153 100.858 61.7451 100.975 61.7786C101.092 61.8121 101.206 61.8494 101.315 61.8907C101.48 61.9526 101.635 62.0233 101.784 62.1017C101.883 62.1541 101.978 62.2103 102.07 62.2696C102.254 62.3883 102.425 62.5199 102.583 62.6644C102.741 62.8088 102.886 62.9656 103.02 63.1332C104.155 64.5578 104.44 66.7709 104.409 68.9553C104.405 69.2123 104.397 69.469 104.385 69.7239C104.376 69.92 104.368 70.1128 104.36 70.3017C104.35 70.5309 104.341 70.7547 104.33 70.9733C104.284 71.9564 104.221 72.8328 104.044 73.6078C104.005 73.78 103.96 73.9473 103.909 74.1096C103.857 74.2719 103.799 74.4292 103.733 74.5816C103.667 74.7342 103.593 74.8817 103.511 75.0245C103.428 75.1672 103.337 75.3052 103.236 75.4382C103.189 75.4994 103.14 75.559 103.089 75.6182C102.919 75.8163 102.726 76.0038 102.503 76.1795C102.43 76.2367 102.355 76.2926 102.276 76.3475C101.962 76.5664 101.598 76.7671 101.176 76.9494C101.071 76.9945 100.963 77.0382 100.851 77.0812C100.624 77.1682 100.382 77.2508 100.123 77.3289L99.7241 77.4423L99.6122 77.4246C99.553 77.4152 99.4925 77.4046 99.4309 77.3948C99.3234 77.3776 99.2128 77.3596 99.1004 77.3403C99.0844 77.3376 99.0683 77.3355 99.0523 77.3327C98.9933 77.3224 98.9338 77.3114 98.8741 77.3004C98.8573 77.2973 98.8404 77.294 98.8236 77.2909C98.7455 77.2762 98.6672 77.2608 98.5891 77.2446C98.5634 77.2393 98.5377 77.2343 98.512 77.2288C98.4337 77.212 98.356 77.1935 98.2788 77.1749C98.2561 77.1694 98.2332 77.1647 98.2106 77.1591C98.1383 77.141 98.0672 77.1208 97.997 77.1008C97.9687 77.0927 97.9402 77.0857 97.9123 77.0774C97.8432 77.0566 97.776 77.0337 97.7101 77.0108C97.6849 77.0021 97.6595 76.9946 97.6349 76.9855C97.6328 76.9847 97.6306 76.9843 97.6285 76.9836C97.5431 76.9519 97.461 76.9182 97.3833 76.8822C94.939 75.7509 93.7257 72.9454 93.6321 70.035C93.6291 69.9413 93.6271 69.8475 93.6264 69.7536C93.625 69.5655 93.6286 69.3772 93.6365 69.1891C93.6404 69.0948 93.6454 69.0006 93.6517 68.9065C93.8201 66.3709 94.8267 63.909 96.5978 62.5579C96.6635 62.5078 96.7303 62.4592 96.7982 62.4122C96.8657 62.3653 96.9345 62.3203 97.0042 62.2766C97.0555 62.2444 97.1141 62.2114 97.178 62.179C97.1937 62.171 97.2103 62.1642 97.2266 62.1562C97.2776 62.1314 97.331 62.1054 97.3871 62.0808C97.4082 62.0716 97.43 62.0634 97.4516 62.0542C97.5015 62.033 97.5523 62.0109 97.6045 61.9902C97.6492 61.9725 97.6947 61.9555 97.7404 61.9383C97.7688 61.9275 97.7971 61.9165 97.8257 61.9059C97.8432 61.8995 97.8607 61.8933 97.8782 61.8869C97.9746 61.8517 98.0717 61.819 98.1657 61.7868C98.2065 61.7729 98.2462 61.7576 98.2858 61.7444C98.4238 61.6982 98.553 61.6569 98.6631 61.6215L98.6864 61.6139C98.7671 61.6062 98.8468 61.6 98.9253 61.5948C99.0039 61.5896 99.0814 61.5856 99.1579 61.5828C99.2343 61.58 99.3097 61.5782 99.3841 61.5777Z" fill="#2F1533"/>
<path d="M72.3972 72.6808C72.7001 72.6825 73.0029 72.6848 73.3053 72.6859C73.0456 72.685 72.7856 72.6828 72.5255 72.6815C72.4827 72.6813 72.4399 72.6811 72.3972 72.6808Z" fill="#2F1533"/>
<path d="M67.169 60.64C67.3464 60.6388 67.5207 60.6459 67.6916 60.6609C67.948 60.6835 68.197 60.7245 68.438 60.7819C68.92 60.8968 69.3702 61.0788 69.7834 61.3205C70.1966 61.5622 70.5725 61.8638 70.907 62.2158C71.0185 62.3331 71.126 62.4555 71.2281 62.5839C71.4322 62.8406 71.6164 63.1193 71.7804 63.4164C71.9854 63.7878 72.1581 64.1887 72.2954 64.6146C72.3229 64.6998 72.3492 64.7859 72.3738 64.8731C72.423 65.0474 72.4664 65.2256 72.504 65.4072C72.5125 65.4483 72.5166 65.4879 72.5172 65.5263C72.5174 65.5361 72.5169 65.5458 72.5166 65.5554C72.5165 65.5588 72.5168 65.5622 72.5166 65.5656C72.5154 65.5898 72.5124 65.6133 72.5084 65.6365C72.5035 65.6647 72.4967 65.6921 72.4882 65.7189C72.4859 65.7262 72.4831 65.7333 72.4806 65.7405C72.4786 65.7462 72.4765 65.7519 72.4743 65.7576C72.4658 65.7801 72.4571 65.8025 72.4465 65.8241L72.4364 65.8399C72.4277 65.8563 72.4182 65.8721 72.4085 65.8881L72.3858 65.9274C72.3851 65.9283 72.3839 65.9289 72.3833 65.9299C72.3734 65.9445 72.3628 65.9587 72.3523 65.973C72.3375 65.9932 72.3227 66.0135 72.3068 66.0332C72.3043 66.0362 72.3023 66.0396 72.2999 66.0427C72.2684 66.0808 72.2345 66.1173 72.2013 66.1542C72.1837 66.1737 72.167 66.1939 72.1494 66.2131C72.1431 66.2201 72.1368 66.2271 72.1305 66.234C72.1041 66.2429 72.0721 66.2497 72.0357 66.2575C72.0218 66.2604 72.0074 66.2642 71.9921 66.267C71.9789 66.2694 71.9652 66.271 71.951 66.2733C71.9037 66.281 71.8512 66.2884 71.7937 66.2948C71.7728 66.2972 71.7513 66.299 71.7292 66.3012C71.682 66.3059 71.632 66.3105 71.5794 66.3145C71.539 66.3176 71.497 66.3206 71.4537 66.3234C71.4362 66.3244 71.4185 66.3255 71.4006 66.3265C71.2686 66.3342 71.125 66.3402 70.9727 66.3449C70.9374 66.346 70.9016 66.3471 70.8653 66.3481C70.7013 66.3524 70.5286 66.3546 70.3509 66.3563C70.162 66.3581 69.9673 66.3592 69.7714 66.3588C69.7487 66.3588 69.7259 66.3589 69.7032 66.3588C69.4448 66.3581 69.1851 66.3562 68.9341 66.3531C68.1543 66.3435 67.4576 66.3266 67.1444 66.3253C67.1185 66.3261 67.0926 66.3263 67.0666 66.3272C66.6994 66.3394 66.3192 66.3514 65.9329 66.3626C65.8846 66.364 65.8361 66.3651 65.7876 66.3664C65.504 66.3744 65.2174 66.3825 64.9306 66.388C64.8664 66.3892 64.8021 66.3894 64.7379 66.3905C64.6458 66.3921 64.5537 66.3931 64.4617 66.3943C64.3968 66.3952 64.3319 66.3969 64.2671 66.3975C64.2532 66.3976 64.2393 66.3974 64.2254 66.3975C64.086 66.3988 63.9471 66.3991 63.8089 66.3994C63.7206 66.3995 63.6325 66.3997 63.5448 66.3994C63.1317 66.3979 62.7266 66.3914 62.3384 66.3766C62.2683 66.3198 62.2102 66.2569 62.1621 66.1897C62.1565 66.1819 62.1503 66.1747 62.145 66.1669C62.1066 66.1096 62.0758 66.0487 62.0515 65.985C61.9301 65.6669 61.9773 65.2741 62.1267 64.856C62.545 63.6853 63.7624 62.3152 64.3082 61.8229C64.3739 61.7636 64.4394 61.708 64.5041 61.655C64.5369 61.6281 64.5694 61.6018 64.602 61.5765C64.6107 61.5697 64.6193 61.5628 64.6279 61.5562C64.664 61.5286 64.7001 61.5022 64.736 61.4764C64.7524 61.4646 64.7683 61.4523 64.7847 61.4409C64.8229 61.4142 64.8615 61.3891 64.8997 61.3642C64.9061 61.3601 64.9123 61.3557 64.9186 61.3515C64.9551 61.3281 64.9914 61.305 65.028 61.2831C65.042 61.2747 65.0562 61.2666 65.0703 61.2584C65.1128 61.2337 65.1552 61.2096 65.198 61.1868C65.2295 61.17 65.2616 61.1545 65.2934 61.1387C65.3029 61.1339 65.3123 61.1287 65.3218 61.1241C65.3246 61.1227 65.3273 61.121 65.33 61.1197C65.4967 61.0387 65.6672 60.9708 65.8451 60.9112C65.871 60.9025 65.8972 60.8942 65.9234 60.8859C65.9624 60.8735 66.0018 60.8614 66.0416 60.8497C66.0523 60.8466 66.0631 60.8433 66.0738 60.8402C66.1165 60.828 66.1597 60.8163 66.2034 60.8048C66.2206 60.8002 66.2378 60.7953 66.2552 60.7908C66.33 60.7716 66.4064 60.7536 66.4846 60.7357C66.6176 60.7054 66.7558 60.6765 66.9004 60.6483C66.9905 60.6435 67.0805 60.6406 67.169 60.64Z" fill="#2F1533"/>
<path fill-rule="evenodd" clip-rule="evenodd" d="M58.3748 0.00190078C58.9663 0.00316558 59.5569 0.00497274 60.1461 0.00950391C60.3857 0.0113404 60.625 0.0136114 60.864 0.0158399C61.8689 0.0252316 62.8695 0.0376436 63.8639 0.0500539C65.4609 0.069884 67.0416 0.0887457 68.5985 0.0950391L69.9654 0.0975735L85.0059 0.0785657C85.7038 0.0782513 86.4705 0.0707823 87.267 0.0633594C88.1903 0.0548234 89.1537 0.0470535 90.0963 0.0513211C90.2503 0.0520134 90.4037 0.053081 90.5564 0.0544891C90.822 0.0569453 91.0851 0.0602068 91.3444 0.0652602C91.8038 0.074215 92.2511 0.0875457 92.6785 0.107077C92.7195 0.108952 92.7604 0.111426 92.8011 0.113413C93.0286 0.124541 93.2502 0.13648 93.4646 0.151429C98.8823 0.177723 104.299 0.175189 109.717 0.143826L109.972 0.143192C119.543 0.116581 128.614 0.0915543 137.53 4.28943C137.732 4.38447 138.059 4.52548 138.45 4.69366C139.727 5.24438 141.679 6.08653 142.114 6.5558C142.48 6.75997 142.845 6.96841 143.205 7.18116C143.385 7.28763 143.565 7.39506 143.744 7.50365C145.174 8.37166 146.554 9.30733 147.881 10.3054C148.213 10.555 148.541 10.8084 148.866 11.0657C149.191 11.323 149.513 11.5839 149.831 11.8488C150.149 12.1139 150.464 12.3829 150.775 12.6554C151.086 12.9277 151.394 13.2039 151.698 13.4835C151.85 13.6233 152.001 13.7639 152.151 13.9055C152.752 14.4721 153.339 15.0531 153.91 15.6479C154.053 15.7965 154.195 15.9461 154.336 16.0965C155.323 17.149 156.265 18.2428 157.158 19.3753C157.541 19.8608 157.914 20.3535 158.279 20.8528C158.522 21.1857 158.761 21.5215 158.996 21.8603C159.584 22.7072 160.145 23.5728 160.68 24.4555C160.894 24.8084 161.104 25.164 161.31 25.5224C161.413 25.7017 161.514 25.8816 161.615 26.0623C161.917 26.6042 162.209 27.1522 162.491 27.7058C163.243 29.1817 163.925 30.6982 164.532 32.2506C164.854 33.0748 165.154 33.9095 165.433 34.7533C165.667 35.4592 165.887 36.1717 166.09 36.8904C166.101 36.9307 166.113 36.971 166.125 37.0114C166.217 37.3406 166.306 37.6708 166.391 38.0017C166.52 38.4983 166.64 38.9968 166.753 39.497C166.828 39.8304 166.9 40.1645 166.968 40.4993C167.002 40.6666 167.035 40.8342 167.068 41.0018C167.294 42.1762 167.479 43.3588 167.62 44.5474C167.64 44.7172 167.659 44.8873 167.677 45.0574C167.701 45.2891 167.722 45.525 167.742 45.7645C167.752 45.8804 167.759 45.9973 167.768 46.1149C167.774 46.1841 167.779 46.2536 167.784 46.3233C167.799 46.5333 167.814 46.7456 167.827 46.9601C167.83 47.0182 167.834 47.0765 167.837 47.135C167.847 47.2965 167.856 47.4592 167.864 47.6228C167.868 47.7073 167.872 47.792 167.876 47.8769C167.883 48.029 167.89 48.182 167.896 48.3356C167.901 48.4598 167.907 48.5844 167.911 48.7094C167.915 48.8185 167.918 48.928 167.922 49.0376C167.927 49.1829 167.931 49.3287 167.935 49.4748C167.957 50.2535 167.97 51.0433 167.977 51.8318C167.98 52.098 167.982 52.3641 167.983 52.6295C167.984 52.8603 167.986 53.0906 167.986 53.3201C167.987 53.5992 167.986 53.8771 167.986 54.1533C167.985 54.7383 167.983 55.3154 167.979 55.8792C167.978 56.109 167.978 56.3366 167.977 56.5616L167.971 57.702C167.965 58.9047 167.973 60.1083 167.983 61.3116C167.987 61.8331 167.99 62.3546 167.993 62.876C167.995 63.1316 167.997 63.3871 167.998 63.6426C168 64.1744 168.001 64.706 167.999 65.2374C167.998 65.4822 167.997 65.727 167.995 65.9717C167.995 66.0691 167.994 66.1665 167.993 66.2638C167.986 67.0147 167.972 67.7649 167.949 68.5143C167.945 68.621 167.941 68.7276 167.937 68.8343C167.927 69.1225 167.916 69.4106 167.902 69.6985C167.895 69.8504 167.889 70.0023 167.881 70.1541C167.876 70.2428 167.871 70.3315 167.866 70.4202C167.851 70.6909 167.835 70.9614 167.816 71.2318C167.814 71.27 167.812 71.3083 167.809 71.3465C167.766 71.9581 167.713 72.5689 167.651 73.1788C167.648 73.2116 167.645 73.2443 167.641 73.2771C167.592 73.7496 167.537 74.2217 167.474 74.6931C167.451 74.866 167.426 75.0387 167.401 75.2114C167.392 75.2732 167.382 75.3347 167.373 75.3964C167.353 75.5293 167.333 75.6622 167.312 75.795C167.306 75.8285 167.301 75.8621 167.296 75.8957C167.273 76.0356 167.25 76.1754 167.226 76.3151C167.214 76.3796 167.203 76.444 167.192 76.5084C167.158 76.7017 167.122 76.895 167.085 77.0881C167.021 77.4218 166.953 77.7547 166.882 78.0867C166.811 78.4187 166.737 78.7499 166.659 79.0801C166.31 80.5667 165.893 82.0351 165.411 83.4811C165.328 83.7281 165.243 83.9742 165.157 84.2199C165.075 84.4538 164.992 84.6873 164.906 84.92C164.761 85.3146 164.611 85.707 164.456 86.0978C163.784 87.7927 163.021 89.4515 162.167 91.0665C161.949 91.4792 161.726 91.8894 161.496 92.2963C161.449 92.3794 161.401 92.4618 161.353 92.5446C161.254 92.7175 161.154 92.8895 161.053 93.061C159.769 95.2432 158.33 97.3121 156.754 99.2557C156.622 99.4186 156.489 99.5811 156.355 99.7423C156.059 100.099 155.758 100.451 155.452 100.799C152.846 103.761 149.908 106.401 146.7 108.668C146.366 108.904 146.028 109.136 145.688 109.365C145.243 109.663 144.793 109.953 144.338 110.237C144.194 110.327 144.05 110.417 143.905 110.506C142.233 111.528 140.5 112.454 138.712 113.278C138.526 113.364 138.338 113.449 138.15 113.532C137.962 113.616 137.773 113.699 137.583 113.781C137.394 113.863 137.204 113.943 137.013 114.023C136.498 114.237 135.978 114.443 135.455 114.641C135.346 114.682 135.236 114.722 135.127 114.763C133.82 115.246 132.489 115.678 131.136 116.054C129.599 116.482 127.882 116.864 126.149 117.158C125.932 117.195 125.716 117.23 125.499 117.264C124.415 117.433 123.332 117.567 122.292 117.654C122.072 117.672 121.855 117.689 121.64 117.703C121.446 117.716 121.255 117.727 121.066 117.736C119.178 118.228 110.296 117.881 107.902 117.883L61.5642 117.857C60.3047 117.858 59.0598 117.87 57.825 117.882C51.5282 117.945 45.4955 118.004 39.188 116.583C30.9518 114.675 23.3298 110.711 17.0311 105.06C7.58592 96.5033 1.24111 84.3897 0.571235 71.5594C-0.117436 70.101 -0.0569265 59.1907 0.106117 52.499C0.133266 51.3837 0.162838 50.3856 0.192694 49.568C0.207643 49.159 0.222426 48.7952 0.236931 48.4845C0.251409 48.174 0.265987 47.9164 0.279272 47.7198C0.441388 45.32 0.752359 42.9682 1.21014 40.6723C1.25175 40.4636 1.29439 40.2553 1.33843 40.0476C1.51456 39.2165 1.71013 38.3929 1.92488 37.5772C2.08596 36.9653 2.25786 36.3579 2.44055 35.755C2.56233 35.3531 2.68901 34.9533 2.82036 34.5556C3.0174 33.9589 3.22496 33.3668 3.44346 32.7796C3.58921 32.388 3.74005 31.9986 3.89531 31.6113C4.05045 31.2243 4.21035 30.8394 4.37496 30.4569C4.45733 30.2654 4.54048 30.0744 4.62522 29.8841C5.04861 28.9332 5.50171 27.9966 5.98392 27.0747C6.17684 26.7059 6.3744 26.3395 6.57669 25.9755C6.67786 25.7934 6.78031 25.612 6.88382 25.4312C7.00663 25.2167 7.13184 25.0034 7.25793 24.7906C7.66312 24.1068 8.08476 23.4318 8.52374 22.7663C8.63877 22.5919 8.7546 22.4179 8.87194 22.2449C9.10682 21.8984 9.34636 21.5546 9.59047 21.2134C10.3228 20.1898 11.0967 19.19 11.9116 18.2152C12.3191 17.7278 12.7368 17.2466 13.1648 16.7719C13.6434 16.241 14.1356 15.7189 14.6398 15.2044C14.8871 14.952 15.1365 14.7007 15.3899 14.4523C15.6979 14.1504 16.0107 13.8517 16.3277 13.5557C16.6447 13.2598 16.9661 12.9668 17.2921 12.6769C17.4552 12.532 17.6197 12.3877 17.785 12.2442C17.9246 12.1231 18.0652 12.0032 18.2065 11.8843C19.1958 11.0517 20.2257 10.2727 21.2841 9.53432C21.7377 9.21795 22.1962 8.90872 22.6593 8.60611C22.8136 8.50525 22.9685 8.40527 23.1238 8.30578C23.4345 8.10664 23.7469 7.91003 24.0609 7.71591C24.3747 7.52196 24.6899 7.33017 25.0063 7.14061C25.2724 6.98119 25.5392 6.8228 25.8064 6.66541C27.6779 5.56324 29.5832 4.52238 31.6027 3.71349C31.781 3.64208 31.9598 3.5719 32.1392 3.50314C32.1673 3.49236 32.1957 3.48218 32.2239 3.47146C32.354 3.42195 32.4844 3.37324 32.6151 3.3251C32.6857 3.29906 32.7566 3.27344 32.8274 3.2478C32.9439 3.20562 33.0605 3.16348 33.1775 3.12235C33.2333 3.10275 33.2891 3.08342 33.345 3.06406C33.6693 2.95165 33.9951 2.84291 34.3226 2.73839C34.35 2.72964 34.3773 2.72048 34.4048 2.71178C34.7647 2.59772 35.1268 2.48914 35.4905 2.38421C35.5445 2.36861 35.5987 2.35337 35.6529 2.33796C35.7591 2.30773 35.8654 2.27747 35.972 2.24799C36.0497 2.22651 36.1274 2.20509 36.2052 2.184C36.9098 1.99306 37.6209 1.81865 38.3374 1.65875C38.623 1.59501 38.9095 1.53347 39.1969 1.47437C39.222 1.46921 39.247 1.46366 39.2721 1.45853L39.6038 1.39201C39.8061 1.35202 40.0088 1.31324 40.2118 1.27542C40.2757 1.26351 40.3399 1.25228 40.4039 1.24058C40.6393 1.19756 40.8753 1.15596 41.1117 1.11576C41.1877 1.10283 41.2637 1.08975 41.3398 1.07711C41.6269 1.02944 41.9147 0.983973 42.2031 0.940254C42.2444 0.933994 42.2856 0.927426 42.3269 0.921246C42.6191 0.877541 42.9119 0.835632 43.2053 0.795794C43.2948 0.783649 43.3844 0.772108 43.4739 0.760313C43.7227 0.727547 43.9719 0.696045 44.2215 0.665907C44.2521 0.662218 44.2826 0.658153 44.3132 0.654503C44.6197 0.617889 44.9269 0.583432 45.2345 0.550593C45.2897 0.544706 45.3449 0.539256 45.4001 0.533486C45.5516 0.517646 45.7034 0.502834 45.8551 0.487867C46.1219 0.46156 46.389 0.436174 46.6564 0.41247C46.7762 0.401853 46.8961 0.391536 47.016 0.381424C47.2767 0.359441 47.5378 0.339008 47.799 0.319331C47.9336 0.309197 48.0681 0.298464 48.2028 0.288919C48.4507 0.271351 48.6989 0.255776 48.9473 0.240132C49.0882 0.231256 49.229 0.221169 49.3701 0.212888C49.7404 0.191138 50.1112 0.171186 50.4823 0.15333C50.5434 0.150391 50.6045 0.148565 50.6656 0.145727C50.9887 0.130712 51.3121 0.116233 51.6356 0.103909C51.7761 0.0985581 51.9166 0.0942086 52.0571 0.0893368C52.2844 0.0814598 52.5117 0.0738414 52.739 0.067161C52.9277 0.0616141 53.1165 0.0567222 53.3052 0.0519547C53.5013 0.0470035 53.6975 0.0428039 53.8936 0.0386492C54.0621 0.0350776 54.2306 0.0315267 54.3991 0.0285117C54.6269 0.0244397 54.8546 0.020858 55.0823 0.0177406C55.2464 0.0154917 55.4105 0.0131897 55.5746 0.0114047C56.2856 0.00367812 56.9961 0.000353801 57.7055 0H57.9065C58.0626 4.79394e-05 58.2187 0.00156999 58.3748 0.00190078ZM105.518 58.8172C103.801 55.9673 100.36 54.2268 97.0541 54.6931C83.6965 55.6619 80.519 74.0114 89.0315 81.3275C91.3375 83.3125 94.3323 84.3041 97.3644 84.0855C100.712 83.8125 102.378 82.4794 104.811 80.4658C104.292 86.8493 102.277 90.2954 95.3573 89.5173C92.6734 89.2157 91.0594 88.5486 88.5967 87.4588C88.5493 87.6299 88.5006 87.8149 88.4501 88.0094C88.3723 88.3097 88.2921 88.6335 88.2093 88.9648L88.1827 89.0713C87.954 89.9913 87.7151 90.9518 87.4983 91.6133L86.7539 94.46C94.6716 97.8028 108.259 98.3313 112.044 88.8426C113.745 84.5791 113.604 78.6525 113.475 73.2257V73.2181C113.42 70.9068 113.368 68.6867 113.46 66.7244C113.626 63.1934 113.832 58.7234 113.661 55.2646L112.965 55.2659H112.706L111.966 55.2646C109.885 55.2608 107.526 55.2564 105.734 55.4129L105.518 58.8172ZM139.82 56.3322C136.515 55.2779 133.227 54.4587 129.704 54.8401C126.307 55.3077 123.426 56.3328 121.305 59.1707C118.346 63.1281 119.136 67.7565 123.077 70.6229C124.583 71.7184 126.158 72.3343 127.728 72.9482C128.179 73.1244 128.63 73.3005 129.078 73.4874C129.873 73.8194 130.661 74.1863 131.433 74.6513C131.993 75.6746 132.586 77.4284 131.156 78.0005C127.607 79.4204 123.514 77.8073 120.413 76.26C120.246 77.403 119.962 78.541 119.662 79.6726C119.525 80.1882 119.386 80.7024 119.251 81.2154C119.21 81.3729 119.171 81.5307 119.131 81.688C119.055 81.9906 118.979 82.292 118.911 82.5934C118.879 82.734 118.848 82.8744 118.819 83.0148C122.276 84.4657 125.263 85.2095 129.066 85.0651C135.097 84.6127 141.307 82.1905 140.853 74.9605C140.523 69.6979 136.886 68.2761 133.303 66.8752C131.79 66.2834 130.287 65.6955 129.046 64.8243C128.608 64.0424 128.42 63.725 128.153 62.8804L128.347 62.6422C128.644 62.2753 128.947 61.9021 129.278 61.5765C132.806 60.6679 134.98 61.42 138.173 62.9248C138.583 60.8859 139.155 58.3135 139.82 56.3322ZM67.6632 54.5328C63.2313 54.8262 60.0911 55.8596 57.0268 59.3627C51.9036 65.219 51.8416 76.3183 57.9855 81.4688C63.7205 86.2771 72.6392 85.1468 79.2393 83.1212L78.5082 79.3152C78.371 78.4776 78.2446 77.6381 78.1296 76.7973C73.5435 78.2147 63.9119 79.5509 62.1279 73.4741C62.0477 73.1985 61.9737 72.9216 61.9055 72.6428C62.6929 72.6359 63.4885 72.6327 64.2905 72.6327C65.2352 72.6333 66.1882 72.6378 67.1463 72.6447L69.317 72.6612H69.3682C70.7168 72.672 72.069 72.6823 73.414 72.6865C73.3778 72.6864 73.3415 72.686 73.3053 72.6859C73.3426 72.686 73.3799 72.6864 73.4171 72.6865C74.5072 72.69 75.5925 72.6896 76.6673 72.6808C78.0374 72.6701 79.3904 72.6466 80.7143 72.6035C80.957 67.3618 80.9936 62.5275 77.2013 58.2811C74.6697 55.4471 71.2906 54.6608 67.6632 54.5328ZM47.4034 55.6397C41.4447 54.057 33.2489 53.1915 29.5248 59.7359C25.7021 66.4551 31.3177 71.2198 37.289 73.0217C38.8152 73.5147 41.5313 74.7432 40.7925 76.5439C39.2664 80.2637 31.1913 77.2522 29.2518 76.0402C29.109 76.753 28.9434 77.486 28.7658 78.2261C28.5251 79.2278 28.2628 80.2415 28.0056 81.235C27.8697 81.7602 27.7351 82.2798 27.6062 82.7886C31.6001 84.3516 34.4243 84.9662 38.7501 84.7635C38.8417 84.7153 39.0275 84.6729 39.2468 84.6349C39.3614 84.6149 39.4852 84.5964 39.6095 84.5791L39.5855 84.5823C39.6165 84.5778 39.6481 84.574 39.679 84.5696L39.7505 84.5601L39.9761 84.5303C40.1694 84.5056 40.3401 84.4834 40.4494 84.4638C43.1232 83.9816 45.2036 83.4412 47.1898 81.4333C48.8373 79.7613 49.7328 77.4867 49.6683 75.1367C49.5533 69.4945 44.9401 67.6292 41.2912 66.1542C38.8803 65.1791 36.8902 64.3744 36.8991 62.7632C37.0539 62.3881 37.4318 61.9864 37.8502 61.6614C37.914 61.612 37.9785 61.5644 38.0435 61.5188L38.1042 61.4764C38.1579 61.4402 38.2116 61.4048 38.2654 61.3718C38.5068 61.2223 38.7419 61.1082 38.9378 61.0481C41.4605 60.2751 44.1008 61.3503 46.3575 62.269L46.8884 62.4844C47.1133 61.5543 48.3488 56.917 48.3469 56.2182C47.9791 55.9381 47.8161 55.8513 47.4034 55.6397ZM94.5964 24.548C85.9197 21.1133 85.598 21.2311 77.5684 24.1665L76.5896 24.5239L65.9114 28.3964C65.361 28.5966 64.7878 28.8114 64.2045 29.03L63.0411 29.464C63.0092 29.4758 62.9769 29.4865 62.945 29.4982C62.6552 29.6053 62.3652 29.7118 62.0761 29.8157C62.0489 29.8254 62.0218 29.8357 61.9946 29.8454C61.7569 29.9307 61.5196 30.0132 61.2843 30.0945C61.2303 30.1131 61.1763 30.1312 61.1225 30.1496C60.9356 30.2134 60.7499 30.2756 60.5657 30.3358C60.4978 30.3581 60.4303 30.3807 60.3629 30.4024C60.1327 30.4764 59.9055 30.5479 59.6816 30.6146L47.1904 35.1138C45.7193 35.6479 44.1027 36.2821 42.6303 36.77C38.9428 37.9916 36.8119 41.1785 38.223 44.9928C38.7924 46.5121 39.9457 47.7394 41.4239 48.3996C43.5365 49.3639 45.4128 48.705 47.4009 48.0068L47.8938 47.8345L48.2799 47.7033C48.5498 47.5652 48.9523 47.3966 49.4181 47.2161C49.602 47.1451 49.796 47.0722 49.9957 46.9981C50.2592 46.9005 50.5328 46.8017 50.8065 46.7041L51.5061 46.457L52.1077 46.2473L52.1778 46.2226L52.696 46.042C52.866 45.9825 53.0208 45.928 53.1555 45.8792L63.5625 42.1657L77.2512 37.2027C77.8421 36.9854 78.4766 36.7459 79.1351 36.4963L79.3468 36.4165C81.5188 35.594 83.9234 34.6836 85.8616 34.1292L110.009 43.6667L117.941 46.8277L118.287 46.9677C118.431 47.0266 118.576 47.0874 118.722 47.1495L119.145 47.3288C121.195 48.2026 123.473 49.1732 125.652 48.7196C130.832 47.6418 132.14 40.3897 127.609 37.7274C126 36.7827 123.688 35.9273 121.587 35.1499C120.843 34.8743 120.124 34.6082 119.473 34.3516L94.5964 24.548Z" fill="#2F1533"/>
</svg>
