<?xml version="1.0" encoding="UTF-8"?>
<svg id="Camada_1" data-name="Camada 1" xmlns="http://www.w3.org/2000/svg" viewBox="0 0 1080 1080">
  <defs>
    <style>
      .cls-1 {
        fill: #edeae5;
      }
    </style>
  </defs>
  <path class="cls-1" d="M162.37,551.93c1.16-.73,2.41-.85,3.19-.85h35.01v-12.96h84.78v-4.73c0-25.79-9.22-47.5-26.64-62.72-15.34-13.45-36.01-20.85-58.14-20.85v12.96c-22.13,0-42.77,7.4-58.13,20.85-17.42,15.23-26.62,36.93-26.62,62.72,0,39.6,26.53,82.18,84.76,83.83v-12.96c1.16.02,2.34.05,3.55.05,47.54,0,73.98-24.97,75.06-26.03l3.14-3.03-16.36-20-3.66,3.03c-.21.19-22.22,18.04-56.13,18.04-1.91,0-3.78-.09-5.6-.26v12.96c-7.75-.83-14.63-3.26-20.5-7.23-17.73-11.96-21.4-31.35-20.71-36.67.17-1.39.57-4.61,3-6.15ZM178.09,495.62c7.05-4.87,14.92-6.88,22.48-6.9v-12.96c9.17-.02,17.94,2.84,24.35,7.02,10.78,7.07,14.45,17.59,15.01,21.23.19,1.18.57,3.62-.87,5.63-1.49,2.03-4.02,2.46-4.94,2.55h-33.55v12.96h-39.95c.38-2.91,2.79-19.43,17.47-29.53Z"/>
  <g>
    <path class="cls-1" d="M782.01,536.88c-.77,3.17-1.74,6.27-2.97,9.29-.95,2.34-1.88,4.21-2.91,6.06-6.34,11.35-17.91,19.77-31.48,23.09v-93.72h-26.47v121.75h13.23c1.04,0,2.07-.02,3.11-.06,34.72-1.29,64.04-26.31,72.31-60.05l15.12-61.65c-8.82,0-17.64,0-26.47,0-4.24,17.39-10.77,44.16-13.49,55.28Z"/>
    <path class="cls-1" d="M447.13,492.42c-11.62-10.17-27.25-15.77-43.99-15.77s-32.36,5.6-43.99,15.77c-13.18,11.53-20.15,27.95-20.15,47.47,0,30.57,20.91,63.46,66.81,63.46,35.98,0,55.97-18.9,56.81-19.7l2.37-2.29-12.38-15.12-2.77,2.29c-.17.14-16.81,13.65-42.46,13.65-7.6,0-14.27-1.98-19.74-5.67-13.42-9.06-16.18-23.72-15.67-27.75.13-1.05.44-3.49,2.28-4.65.88-.56,1.82-.64,2.41-.64h90.63v-3.58c0-19.52-6.97-35.94-20.15-47.47ZM432.26,521.9c-1.12,1.55-3.05,1.86-3.73,1.95h-55.62c.29-2.21,2.12-14.7,13.21-22.36,11.78-8.13,26.58-5.68,35.44.11,8.16,5.34,10.93,13.3,11.36,16.05.14.89.43,2.74-.66,4.26Z"/>
    <path class="cls-1" d="M680.16,492.42c-11.62-10.17-27.25-15.77-43.99-15.77s-32.36,5.6-43.99,15.77c-13.18,11.53-20.15,27.95-20.15,47.47,0,30.57,20.91,63.46,66.81,63.46,35.98,0,55.97-18.9,56.81-19.7l2.37-2.29-12.38-15.12-2.77,2.29c-.17.14-16.81,13.65-42.46,13.65-7.6,0-14.27-1.98-19.74-5.67-13.42-9.06-16.18-23.72-15.67-27.75.13-1.05.44-3.49,2.28-4.65.88-.56,1.82-.64,2.41-.64h90.63v-3.58c0-19.52-6.97-35.94-20.15-47.47ZM665.29,521.9c-1.12,1.55-3.05,1.86-3.73,1.95h-55.62c.29-2.21,2.12-14.7,13.21-22.36,11.78-8.13,26.58-5.68,35.44.11,8.16,5.34,10.93,13.3,11.36,16.05.14.89.43,2.74-.66,4.26Z"/>
    <path class="cls-1" d="M895.38,476.65c-47.28,0-68.81,32.9-68.81,63.46,0,16.56,6.16,32.01,17.35,43.51,12.55,12.91,30.35,19.73,51.46,19.73,47.28,0,68.81-32.78,68.81-63.24s-21.53-63.46-68.81-63.46ZM895.38,583.73c-25.07,0-36.5-22.73-36.5-43.84s11.42-43.62,36.5-43.62,36.5,22.61,36.5,43.62-11.42,43.84-36.5,43.84Z"/>
    <path class="cls-1" d="M554.15,578.49l-29.67.14c-6.08.12-11.38-2.4-13.58-6.74-.52-1-1.11-2.63-1.11-4.87l-.13-88.65-24.51-.05.13,88.9c.02,19.59,16.89,36.13,36.83,36.13l32.04-.04h8.94v-24.84h-7.12l-1.82.02Z"/>
  </g>
</svg>