<?xml version="1.0" encoding="UTF-8"?>
<svg id="Camada_1" data-name="Camada 1" xmlns="http://www.w3.org/2000/svg" viewBox="0 0 1920 1080">
  <defs>
    <style>
      .cls-1 {
        fill: #2f1533;
      }
    </style>
  </defs>
  <path class="cls-1" d="M1148.91,1032.92h-624.33c-14.72,0-26.65-11.93-26.65-26.65v-258.8c0-14.72,11.93-26.65,26.65-26.65h456.26c9.02,0,17.43,4.57,22.35,12.13l168.07,258.8c11.51,17.73-1.21,41.16-22.35,41.16Z"/>
  <path class="cls-1" d="M1330.26,88.21l-324.71,587.72c-4.69,8.49-13.63,13.76-23.33,13.76h-457.65c-14.72,0-26.65-11.93-26.65-26.65V75.32c0-14.72,11.93-26.65,26.65-26.65h782.36c20.29,0,33.14,21.77,23.33,39.54Z"/>
  <path class="cls-1" d="M1821.09,75.32v836.24c0,14.72-11.93,26.65-26.65,26.65h-203.5c-8.58,0-16.64,4.14-21.65,11.11-19.28,26.85-32.79,45.66-52.07,72.5-5.01,6.97-13.06,11.11-21.65,11.11h-246c-9.02,0-17.43-4.57-22.35-12.13l-194.81-299.97h0c-5.36-8.25-5.73-18.79-.98-27.4l2.06-3.73L1380.07,62.43c4.69-8.49,13.63-13.76,23.33-13.76h391.05c14.72,0,26.65,11.93,26.65,26.65Z"/>
  <rect class="cls-1" x="-211.76" y="355.15" width="983.29" height="367.14" rx="36.75" ry="36.75" transform="translate(818.61 258.84) rotate(90)"/>
</svg>