<svg preserveAspectRatio="none" width="100%" height="100%" overflow="visible" style="display: block;" viewBox="0 0 170 34" fill="none" xmlns="http://www.w3.org/2000/svg">
<g id="Group 3">
<path id="Vector" d="M131.879 1.03301C129.427 1.03301 126.976 1.03301 124.521 1.03301C123.343 5.74181 121.528 12.9905 120.772 16.0015C120.558 16.8599 120.288 17.6993 119.946 18.517C119.682 19.1506 119.424 19.657 119.138 20.1579C117.375 23.2312 114.159 25.5112 110.388 26.4102V1.03301H103.03V34H106.708C106.997 34 107.283 33.9946 107.572 33.9838C117.222 33.6345 125.372 26.8596 127.671 17.7236L131.873 1.0303L131.879 1.03301Z" fill="var(--fill-0, #1E1E1E)"/>
<path id="Vector_2" d="M29.5255 4.23189C26.3526 1.50277 22.0847 0 17.5138 0C12.9428 0 8.67771 1.50277 5.50207 4.23189C1.9032 7.32597 0 11.7323 0 16.9705C0 25.174 5.70959 34 18.2428 34C28.0674 34 33.5258 28.9282 33.7551 28.7135L34.4023 28.099L31.0218 24.0415L30.2655 24.6561C30.2191 24.6936 25.6754 28.319 18.6715 28.319C16.5963 28.319 14.775 27.7877 13.2814 26.7975C9.61702 24.3662 8.86338 20.4322 9.00264 19.3508C9.03814 19.069 9.12279 18.4142 9.62521 18.1029C9.8655 17.9526 10.1222 17.9312 10.2833 17.9312H35.0303V16.9705C35.0303 11.7323 33.1271 7.32597 29.5282 4.23189H29.5255ZM25.4652 12.1429C25.1593 12.5588 24.6323 12.642 24.4467 12.6661H9.25931C9.3385 12.0731 9.83819 8.72139 12.8664 6.66582C16.083 4.48414 20.1242 5.1416 22.5435 6.69535C24.7716 8.12834 25.528 10.2644 25.6454 11.0024C25.6836 11.2412 25.7628 11.7376 25.4652 12.1455V12.1429Z" fill="var(--fill-0, #1E1E1E)"/>
<path id="Vector_3" d="M93.2538 24.6561C93.2087 24.6936 88.7983 28.319 81.9999 28.319C79.9856 28.319 78.2177 27.7877 76.7679 26.7975C73.211 24.3662 72.4795 20.4322 72.6147 19.3508C72.6491 19.069 72.7313 18.4142 73.219 18.1029C73.4522 17.9526 73.7014 17.9312 73.8577 17.9312H97.8788V16.9705C97.8788 11.7323 96.0314 7.32597 92.5381 4.23189C89.4583 1.50277 85.3157 0 80.8788 0C76.4419 0 72.3019 1.50277 69.2195 4.23189C65.7262 7.32597 63.8788 11.7323 63.8788 16.9705C63.8788 25.174 69.4209 34 81.5865 34C91.1228 34 96.4211 28.9282 96.6437 28.7135L97.2718 28.099L93.9906 24.0415L93.2564 24.6561H93.2538ZM76.3651 6.66582C79.4873 4.48414 83.41 5.1416 85.7583 6.69535C87.921 8.12834 88.6552 10.2644 88.7692 11.0024C88.8063 11.2412 88.8832 11.7376 88.5943 12.1455C88.2974 12.5615 87.7859 12.6447 87.6057 12.6688H72.8638C72.9407 12.0758 73.4257 8.72408 76.3651 6.66851V6.66582Z" fill="var(--fill-0, #1E1E1E)"/>
<path id="Vector_4" d="M170 17.0295C170 8.82605 164.197 0 151.455 0C138.712 0 132.909 8.82873 132.909 17.0295C132.909 21.4734 134.569 25.6194 137.585 28.7055C140.968 32.1699 145.765 34 151.455 34C164.197 34 170 25.2035 170 17.0295ZM151.455 28.735C144.698 28.735 141.617 22.6354 141.617 16.9705C141.617 11.3056 144.695 5.26504 151.455 5.26504C158.214 5.26504 161.292 11.3324 161.292 16.9705C161.292 22.6085 158.214 28.735 151.455 28.735Z" fill="var(--fill-0, #1E1E1E)"/>
<path id="Vector_5" d="M58.4243 27.2397L50.5801 27.2778C48.9726 27.3104 47.5714 26.6251 46.9897 25.4449C46.8522 25.173 46.6963 24.7298 46.6963 24.1206L46.6619 0.0135934L40.1818 0L40.2162 24.175C40.2215 29.5022 44.6817 34 49.9535 34L58.4243 33.9891H60.7879V27.2343H58.9055L58.4243 27.2397Z" fill="var(--fill-0, #1E1E1E)"/>
</g>
</svg>
