<svg preserveAspectRatio="none" width="100%" height="100%" overflow="visible" style="display: block;" viewBox="0 0 1300 260" fill="none" xmlns="http://www.w3.org/2000/svg">
<g id="logo-shape-hero">
<path d="M1008.48 7.89951C989.738 7.89951 970.991 7.89951 952.223 7.89951C943.211 43.908 929.331 99.339 923.55 122.365C921.913 128.928 919.851 135.347 917.237 141.601C915.218 146.446 913.241 150.318 911.052 154.149C897.576 177.651 872.984 195.085 844.141 201.96V7.89951H787.879V260H815.999C818.21 260 820.399 259.959 822.61 259.876C896.407 257.205 958.727 205.397 976.305 135.534L1008.44 7.87878L1008.48 7.89951Z" fill="var(--fill-0, #EDEAE5)"/>
<path d="M225.783 32.3615C201.52 11.4918 168.883 0 133.929 0C98.9746 0 66.3589 11.4918 42.0747 32.3615C14.5539 56.0221 0 89.7175 0 129.774C0 192.507 43.6616 260 139.504 260C214.633 260 256.373 221.216 258.127 219.574L263.076 214.875L237.226 183.847L231.442 188.546C231.087 188.834 196.341 216.557 142.782 216.557C126.913 216.557 112.986 212.494 101.564 204.922C73.5419 186.33 67.7788 156.246 68.8437 147.976C69.1152 145.822 69.7625 140.815 73.6045 138.434C75.442 137.285 77.4048 137.121 78.6368 137.121H267.879V129.774C267.879 89.7175 253.325 56.0221 225.804 32.3615H225.783ZM194.734 92.8572C192.395 96.038 188.365 96.674 186.945 96.8587H70.8065C71.4121 92.3236 75.2332 66.693 98.3899 50.974C122.987 34.2904 153.891 39.3181 172.391 51.1997C189.43 62.1579 195.214 78.4926 196.112 84.1358C196.404 85.9622 197.01 89.7585 194.734 92.8776V92.8572Z" fill="var(--fill-0, #EDEAE5)"/>
<path d="M713.117 188.546C712.773 188.834 679.046 216.557 627.058 216.557C611.655 216.557 598.136 212.494 587.049 204.922C559.849 186.33 554.255 156.246 555.289 147.976C555.552 145.822 556.181 140.815 559.91 138.434C561.694 137.285 563.599 137.121 564.795 137.121H748.485V129.774C748.485 89.7175 734.358 56.0221 707.645 32.3615C684.093 11.4918 652.414 0 618.485 0C584.556 0 552.897 11.4918 529.325 32.3615C502.612 56.0221 488.485 89.7175 488.485 129.774C488.485 192.507 530.866 260 623.896 260C696.821 260 737.337 221.216 739.04 219.574L743.844 214.875L718.752 183.847L713.137 188.546H713.117ZM583.968 50.974C607.844 34.2904 637.841 39.3181 655.799 51.1997C672.337 62.1579 677.952 78.4926 678.823 84.1358C679.107 85.9622 679.695 89.7585 677.486 92.8776C675.216 96.0584 671.304 96.6945 669.926 96.8792H557.194C557.782 92.3441 561.491 66.7135 583.968 50.9945V50.974Z" fill="var(--fill-0, #EDEAE5)"/>
<path d="M1300 130.226C1300 67.4933 1255.63 0 1158.18 0C1060.74 0 1016.36 67.5138 1016.36 130.226C1016.36 164.208 1029.06 195.913 1052.12 219.512C1077.99 246.005 1114.67 260 1158.18 260C1255.63 260 1300 192.732 1300 130.226ZM1158.18 219.738C1106.51 219.738 1082.95 173.094 1082.95 129.774C1082.95 86.4547 1106.49 40.262 1158.18 40.262C1209.87 40.262 1233.41 86.6599 1233.41 129.774C1233.41 172.889 1209.87 219.738 1158.18 219.738Z" fill="var(--fill-0, #EDEAE5)"/>
<path d="M446.774 208.304L386.789 208.595C374.496 208.844 363.781 203.604 359.333 194.579C358.282 192.499 357.089 189.11 357.089 184.452L356.826 0.10395L307.273 0L307.536 184.868C307.576 225.605 341.683 260 381.997 260L446.774 259.917H464.849V208.262H450.454L446.774 208.304Z" fill="var(--fill-0, #EDEAE5)"/>
</g>
</svg>
