<?xml version="1.0" encoding="UTF-8"?>
<svg id="Camada_1" data-name="Camada 1" xmlns="http://www.w3.org/2000/svg" viewBox="440 435 200 210">
  <defs>
    <style>
      .cls-1 {
        fill: #2f1533;
      }
    </style>
  </defs>
  <path class="cls-1" d="M501.78,551.93c1.16-.73,2.41-.85,3.19-.85h35.01v-12.96h84.78v-4.73c0-25.79-9.22-47.5-26.64-62.72-15.34-13.45-36.01-20.85-58.14-20.85v12.96c-22.13,0-42.77,7.4-58.13,20.85-17.42,15.23-26.62,36.93-26.62,62.72,0,39.6,26.53,82.18,84.76,83.83v-12.96c1.16.02,2.34.05,3.55.05,47.54,0,73.98-24.97,75.06-26.03l3.14-3.03-16.36-20-3.66,3.03c-.21.19-22.22,18.04-56.13,18.04-1.91,0-3.78-.09-5.6-.26v12.96c-7.75-.83-14.63-3.26-20.5-7.23-17.73-11.96-21.4-31.35-20.71-36.67.17-1.39.57-4.61,3-6.15ZM517.5,495.62c7.05-4.87,14.92-6.88,22.48-6.9v-12.96c9.17-.02,17.94,2.84,24.35,7.02,10.78,7.07,14.45,17.59,15.01,21.23.19,1.18.57,3.62-.87,5.63-1.49,2.03-4.02,2.46-4.94,2.55h-33.55v12.96h-39.95c.38-2.91,2.79-19.43,17.47-29.53Z"/>
</svg>