<?xml version="1.0" encoding="utf-8"?>
<!-- Generator: Adobe Illustrator 21.1.0, SVG Export Plug-In . SVG Version: 6.00 Build 0)  -->
<svg version="1.1" id="Layer_1" xmlns="http://www.w3.org/2000/svg" xmlns:xlink="http://www.w3.org/1999/xlink" x="0px" y="0px"
	 viewBox="0 0 100 30" style="enable-background:new 0 0 100 30;" xml:space="preserve">
<style type="text/css">
	.st0{fill:#00B8F1;}
	.st1{fill:#ABE0F9;}
	.st2{fill:#44C7F4;}
	.st3{fill:#0094D9;}
	.st4{fill:#EC1164;}
	.st5{fill:#EF5A93;}
	.st6{fill:#B30E53;}
	.st7{fill:#4E4D4E;}
</style>
<g id="XMLID_469_">
	<path id="XMLID_493_" class="st0" d="M3.4,0c0.4,0,0.9,0.3,1.4,0.7L15,10.2l-5.7,5.2L3.4,0z"/>
	<path id="XMLID_492_" class="st1" d="M15,10.2l-5.6,5.3L15,30l5.7-14.5L15,10.2z"/>
	<path id="XMLID_491_" class="st2" d="M0,24.4c0-0.2,0.1-0.4,0.3-0.5l9.1-8.4L15,30c-1.1,0-2.3-0.1-3.1-0.4l-10.7-4
		C0.3,25.2-0.1,24.8,0,24.4z"/>
	<path id="XMLID_490_" class="st3" d="M0.3,23.8l9.1-8.4L3.4,0c-0.6,0-1,0.4-1.2,1.4L0,24.4C0,24.2,0.1,24,0.3,23.8z"/>
	<path id="XMLID_488_" class="st4" d="M26.7,0c-0.4,0-0.9,0.3-1.4,0.7L15,10.2l5.7,5.2C20.7,15.4,26.7,0,26.7,0z"/>
	<path id="XMLID_487_" class="st5" d="M30.1,24.4c0-0.2-0.1-0.4-0.3-0.5l-9.1-8.4L15,30c1.1,0,2.3-0.1,3.1-0.4l10.7-4
		C29.8,25.2,30.2,24.8,30.1,24.4z"/>
	<path id="XMLID_486_" class="st6" d="M29.8,23.8l-9.1-8.4l6-15.4c0.5,0,1,0.4,1.1,1.3l2.2,23C30.1,24.2,30,24,29.8,23.8z"/>
	<g id="XMLID_470_">
		<path id="XMLID_484_" class="st7" d="M42.1,10.7c1.7-0.6,2.9-0.9,3.7-0.9c1.3,0,1.9,0.7,1.9,2.2v7.9h-2v-7.3c0-0.5,0-0.8-0.1-1
			c-0.1-0.2-0.2-0.3-0.4-0.3c-0.2,0-1.1,0.3-2.8,0.8v7.8h-2v-7.3c0-0.5,0-0.8-0.1-1c-0.1-0.2-0.2-0.3-0.4-0.3s-1.2,0.3-2.9,0.8v7.8
			h-2v-10h1.5l0.2,0.7c0.2-0.1,0.6-0.2,1.1-0.3c0.5-0.1,0.9-0.2,1.1-0.3c0.6-0.2,1.2-0.3,1.6-0.3C41.3,9.8,41.8,10.1,42.1,10.7z"/>
		<path id="XMLID_481_" class="st7" d="M58.5,16.6c0,1-0.3,1.9-1,2.4c-0.6,0.6-1.5,0.9-2.7,0.9s-2.1-0.3-2.7-0.9
			c-0.6-0.6-1-1.4-1-2.4v-3.5c0-1,0.3-1.9,1-2.4c0.6-0.6,1.5-0.9,2.7-0.9s2.1,0.3,2.7,0.9c0.6,0.6,1,1.4,1,2.4V16.6z M53.2,16.6
			c0,0.6,0.2,1,0.5,1.3c0.3,0.3,0.7,0.5,1.3,0.5c0.5,0,0.9-0.2,1.3-0.5c0.3-0.3,0.5-0.8,0.5-1.3v-3.5c0-0.6-0.2-1-0.5-1.3
			c-0.3-0.3-0.7-0.5-1.3-0.5c-0.5,0-0.9,0.2-1.3,0.5c-0.3,0.3-0.5,0.8-0.5,1.3V16.6z"/>
		<path id="XMLID_478_" class="st7" d="M69.4,13.6v3.3c0,0.9-0.3,1.6-0.9,2.2S67.1,20,66.2,20H62V5h2v4.6l3.3,1.2
			c0.6,0.2,1.1,0.5,1.5,1C69.2,12.2,69.4,12.8,69.4,13.6z M64,18.5h1.7c0.5,0,0.9-0.2,1.2-0.5c0.3-0.3,0.5-0.7,0.5-1.2v-2.9
			c0-0.6-0.1-1.1-0.3-1.4c-0.2-0.3-0.5-0.5-0.9-0.6L64,11.2L64,18.5L64,18.5z"/>
		<path id="XMLID_477_" class="st0" d="M72.9,5v15h6.6v-1.4h-4.7V5H72.9z"/>
		<path id="XMLID_474_" class="st0" d="M89.4,13.3c0-1.1-0.3-1.9-0.9-2.5c-0.6-0.6-1.5-0.9-2.7-0.9c-1.2,0-2.1,0.3-2.7,0.9
			s-0.9,1.5-0.9,2.5V17c0,0.9,0.3,1.7,0.8,2.2s1.3,0.8,2.2,0.8h3v-1.2h-2.6c-0.5,0-0.8-0.2-1.1-0.5c-0.3-0.3-0.4-0.7-0.4-1.2v-0.2
			l3.2-1c1.4-0.4,2.1-1.2,2.1-2.3C89.4,13.6,89.4,13.3,89.4,13.3z M87.7,13.4c0,0.3-0.1,0.7-0.2,1c-0.1,0.2-0.2,0.3-0.5,0.4
			c-0.2,0.1-0.4,0.1-0.6,0.2c-0.2,0.1-0.5,0.1-0.9,0.3c-0.5,0.1-0.9,0.2-1.3,0.4H84v-2.8c0-0.6,0.2-1,0.5-1.4
			c0.3-0.3,0.8-0.5,1.3-0.5c1.2,0,1.8,0.6,1.8,1.8L87.7,13.4L87.7,13.4z"/>
		<path id="XMLID_471_" class="st0" d="M100,13.3c0-1.1-0.3-1.9-0.9-2.5c-0.6-0.6-1.5-0.9-2.7-0.9c-1.2,0-2.1,0.3-2.7,0.9
			s-0.9,1.5-0.9,2.5V17c0,0.9,0.3,1.7,0.8,2.2s1.3,0.8,2.2,0.8h3v-1.2h-2.6c-0.5,0-0.8-0.2-1.1-0.5c-0.3-0.3-0.4-0.7-0.4-1.2v-0.2
			l3.2-1c1.4-0.4,2.1-1.2,2.1-2.3C100,13.6,100,13.3,100,13.3z M98.3,13.4c0,0.3-0.1,0.7-0.2,1c-0.1,0.2-0.2,0.3-0.5,0.4
			c-0.2,0.1-0.4,0.1-0.6,0.2c-0.2,0.1-0.5,0.1-0.9,0.3c-0.5,0.1-0.9,0.2-1.3,0.4l-0.3,0.1V13c0-0.6,0.2-1,0.5-1.4
			c0.3-0.3,0.8-0.5,1.3-0.5c1.2,0,1.8,0.6,1.8,1.8v0.5H98.3z"/>
	</g>
</g>
</svg>
