<svg width="84" height="23" viewBox="0 0 84 23" fill="none" xmlns="http://www.w3.org/2000/svg">
<path d="M0.00065093 0.711038H2.62078V11.0246C2.62078 12.0165 3.23886 11.9976 3.78138 11.9976H8.47912V14.4125H2.84483C1.3651 14.4125 0 13.8511 0 11.7547L0.00065093 0.711038Z" fill="#1E1E1E"/>
<path d="M10.0878 0.711038H15.909C19.8395 0.711038 20.6634 4.22791 20.6634 7.61453C20.6634 11.6387 19.243 14.4086 15.909 14.4086H10.0878V0.711038ZM15.7032 12.0744C17.4063 12.0744 18.0426 10.3531 18.0426 7.60085C18.0426 3.93158 17.1634 3.03348 15.7032 3.03348H12.7073V12.0725L15.7032 12.0744Z" fill="#1E1E1E"/>
<path d="M22.478 0.711038H25.1359L30.5644 9.56444V0.711038H33.1846V14.4119H30.5644L25.1197 5.6529V14.4119H22.4806L22.478 0.711038Z" fill="#1E1E1E"/>
<path d="M39.2864 0.711038H42.2628L46.7176 14.4119H43.9294L42.9558 11.3795H38.4619L37.47 14.4119H34.6623L39.2864 0.711038ZM42.3371 9.05905L40.8019 4.15497L39.1549 9.05905H42.3371Z" fill="#1E1E1E"/>
<path d="M52.5928 4.13694C52.5928 1.42308 54.2028 0.636997 56.2987 0.599875C58.0801 0.556334 59.8599 0.738622 61.5956 1.14239V3.20106C60.3979 3.08839 57.6833 3.01414 57.0099 3.01414C55.8682 2.99526 55.213 3.07341 55.213 4.34339V5.01811C55.213 6.10378 55.6272 6.32847 56.6732 6.32847H58.8446C61.5396 6.32847 62.0827 8.4438 62.0827 9.95931V10.877C62.0827 13.9842 60.1543 14.5638 58.3014 14.5638C56.5179 14.6331 54.7338 14.444 53.0045 14.0024V11.9424C53.7534 12.0167 56.0362 12.1482 57.7777 12.1482C58.5638 12.1482 59.462 12.018 59.462 10.9688V10.2394C59.462 9.45327 59.238 8.94789 58.2245 8.94789H56.1281C52.8136 8.94789 52.5903 6.51473 52.5903 5.31704L52.5928 4.13694Z" fill="#E85A4A"/>
<path d="M68.2419 0H70.9559L65.6961 15.7608H62.9821L68.2419 0Z" fill="#E85A4A"/>
<path d="M76.4944 0.711038H79.4702L83.925 14.4119H81.1336L80.1599 11.3795H75.666L74.6741 14.4119H71.8664L76.4944 0.711038ZM79.5457 9.05905L78.0113 4.15497L76.3642 9.05905H79.5457Z" fill="#E85A4A"/>
<path d="M3.37958 17.7653H4.45095L6.05442 22.6967H5.04818L4.69779 21.6052H3.08324L2.72829 22.6967H1.71554L3.37958 17.7653ZM4.4783 20.7702L3.92601 19.0053L3.33399 20.7702H4.4783Z" fill="#1E1E1E"/>
<path d="M9.82786 17.7119C10.4662 17.6951 11.1037 17.7679 11.7218 17.9281V18.6627C11.6814 18.6627 10.8191 18.5481 10.0513 18.5481C9.30292 18.5481 9.16355 18.9994 9.16355 20.2186C9.16355 21.499 9.31139 21.8422 10.0057 21.8468C10.3134 21.8347 10.6096 21.7263 10.8523 21.5368V20.6543H10.1652V20.0545C10.5424 19.9275 10.9401 19.8727 11.3375 19.893C11.4789 19.893 11.6332 19.893 11.7935 19.9067V22.6961H11.1213L10.8654 22.3659C10.7245 22.4926 10.5598 22.5901 10.3809 22.6526C10.202 22.7151 10.0125 22.7414 9.8233 22.7299C8.42889 22.784 8.21984 21.6117 8.21984 20.2036C8.21723 18.7695 8.48881 17.7119 9.82786 17.7119Z" fill="#1E1E1E"/>
<path d="M14.4501 18.7917C14.4372 18.6498 14.4565 18.5069 14.5065 18.3736C14.5566 18.2402 14.636 18.1199 14.739 18.0215C14.8419 17.9231 14.9658 17.8492 15.1013 17.8053C15.2367 17.7614 15.3804 17.7486 15.5215 17.7679C15.5215 17.7679 17.2598 17.8154 17.6903 17.8753V18.6569H15.7429C15.3925 18.6569 15.3925 18.8523 15.3925 19.0346V19.8038L17.3868 19.8689V20.6465L15.3925 20.7058V21.4749C15.3925 21.8299 15.6153 21.8253 15.8107 21.8253H17.6903V22.5997C17.306 22.6537 15.5879 22.7136 15.5879 22.7136C15.1503 22.7338 14.4495 22.6329 14.4495 21.7237L14.4501 18.7917ZM15.8829 16.4204H16.5837L17.235 17.3322H16.6085L16.2106 16.9277L15.7859 17.3322H15.1529L15.8829 16.4204Z" fill="#1E1E1E"/>
<path d="M20.2785 17.7653H21.2353L23.1891 20.9519V17.7653H24.1309V22.6987H23.1898L21.2307 19.5458V22.6987H20.2831L20.2785 17.7653Z" fill="#1E1E1E"/>
<path d="M28.3866 17.712C28.9666 17.6996 29.5451 17.7747 30.1027 17.9347V18.6759C30.0962 18.6759 29.2678 18.5821 28.6047 18.5821C27.9111 18.5821 27.6487 18.7371 27.6487 20.2324C27.6487 21.3396 27.8304 21.8697 28.6047 21.8697C29.3147 21.8697 30.1027 21.8157 30.1027 21.8157V22.5503C29.5444 22.7046 28.965 22.7684 28.3866 22.7392C27.14 22.7255 26.7095 21.7831 26.7095 20.2201C26.7069 18.6414 27.0436 17.712 28.3866 17.712Z" fill="#1E1E1E"/>
<path d="M32.6694 17.7653H33.615V22.6987H32.672L32.6694 17.7653Z" fill="#1E1E1E"/>
<path d="M37.7885 17.7653H38.8599L40.4634 22.6967H39.4571L39.1067 21.6052H37.4896L37.1372 22.6987H36.1271L37.7885 17.7653ZM38.8866 20.7702L38.3343 19.0053L37.7423 20.7702H38.8866Z" fill="#1E1E1E"/>
<path d="M46.6296 17.7653H48.7247C50.1393 17.7653 50.4357 19.032 50.4357 20.2512C50.4357 21.6996 49.9238 22.6967 48.7247 22.6967H46.6296V17.7653ZM48.6486 21.854C49.2614 21.854 49.4907 21.2346 49.4907 20.244C49.4907 18.9239 49.1742 18.6002 48.6486 18.6002H47.5707V21.8566L48.6486 21.854Z" fill="#1E1E1E"/>
<path d="M53.0781 17.7653H54.0218V22.6987H53.0781V17.7653Z" fill="#1E1E1E"/>
<path d="M58.1985 17.7119C58.8368 17.6951 59.4743 17.7679 60.0924 17.9281V18.6627C60.052 18.6627 59.1897 18.5481 58.4219 18.5481C57.6742 18.5481 57.5342 18.9994 57.5342 20.2186C57.5342 21.499 57.682 21.8422 58.3763 21.8468C58.684 21.8347 58.9802 21.7263 59.223 21.5368V20.6543H58.5359V20.0545C58.913 19.9275 59.3107 19.8727 59.7082 19.893C59.8495 19.893 60.0039 19.893 60.1641 19.9067V22.696H59.4907L59.2347 22.3659C59.0939 22.4927 58.9292 22.5902 58.7503 22.6527C58.5713 22.7152 58.3818 22.7414 58.1926 22.7299C56.7982 22.784 56.5892 21.6117 56.5892 20.2036C56.5885 18.7695 56.8588 17.7119 58.1985 17.7119Z" fill="#1E1E1E"/>
<path d="M62.8415 17.7653H63.7853V22.6987H62.8415V17.7653Z" fill="#1E1E1E"/>
<path d="M66.2778 17.7653H69.925V18.6341H68.5573V22.6987H67.6142V18.6367H66.2804L66.2778 17.7653Z" fill="#1E1E1E"/>
<path d="M73.1696 17.7653H74.2409L75.8444 22.6967H74.8382L74.4878 21.6052H72.8739L72.5189 22.6967H71.5081L73.1696 17.7653ZM74.2683 20.7702L73.7153 19.0053L73.1233 20.7702H74.2683Z" fill="#1E1E1E"/>
<path d="M78.3389 17.7653H79.282V21.4775C79.282 21.8325 79.5047 21.8279 79.7001 21.8279H81.3934V22.6987H79.3614C78.8287 22.6987 78.3377 22.4967 78.3377 21.7426L78.3389 17.7653Z" fill="#1E1E1E"/>
</svg>
