<svg width="168" height="38" overflow="visible" style="display: block;" viewBox="0 0 168 38" fill="none" xmlns="http://www.w3.org/2000/svg">
<g id="Vector">
<path d="M37.8689 6.96524C39.7434 7.07718 42.469 6.99522 44.3954 6.99435L56.7518 6.98983C59.9961 6.98983 63.6291 6.71321 66.758 7.58447C68.3166 8.01843 69.9894 9.04251 70.7377 10.5164C71.5655 12.1469 71.5275 14.2386 70.9951 15.9569C70.4403 17.6889 69.2258 18.2232 67.725 18.9762C68.6181 19.1203 69.4877 19.3837 70.3101 19.7591C74.0478 21.4999 74.4971 25.895 72.8917 29.2853C70.795 33.7051 60.7271 32.9012 56.532 32.9L43.9688 32.893C42.6009 32.892 39.0025 32.8129 37.77 32.9897C37.7341 30.355 37.572 7.4515 37.8689 6.96524ZM44.4854 27.5352L57.0661 27.5277C58.3278 27.5282 59.6043 27.5262 60.8647 27.528C62.808 27.5309 64.0039 27.6189 65.7053 26.6122C65.9691 26.3581 66.3039 26.0581 66.5169 25.769C66.5286 24.9576 66.6187 24.1928 65.9906 23.5702C64.7543 22.3441 61.8901 22.4849 60.2432 22.4799L49.768 22.4911C48.3246 22.4929 45.8413 22.5683 44.4649 22.4607L44.4854 27.5352ZM44.4967 17.0465C48.2846 17.0068 52.0727 16.9986 55.8607 17.0217C57.8259 17.0226 62.1133 17.2923 63.6736 16.3312C64.014 15.5289 64.2547 14.7739 63.9041 13.914C63.673 13.347 63.2014 12.9643 62.6403 12.7435C60.7611 12.0037 50.4248 12.3491 47.7394 12.3545C46.6961 12.3565 45.4998 12.4761 44.4779 12.316L44.4967 17.0465Z" fill="var(--fill-0, #2F1533)" fill-opacity="0.5"/>
<path d="M132.723 6.98831C139.824 7.08375 147.042 6.86655 154.095 7.01516C162.861 7.1999 168.545 11.2807 167.958 20.6229C167.731 24.2444 167.081 27.0415 164.275 29.6184C160.041 33.301 152.458 32.9028 147.184 32.9008L137.707 32.8935C136.442 32.8923 133.881 32.8255 132.751 32.9898C132.647 24.4315 132.939 15.4788 132.723 6.98831ZM139.55 27.4719C142.013 27.4406 144.476 27.4352 146.938 27.4556C150.218 27.4613 154.638 27.7381 157.641 26.222C158.879 25.6634 159.894 24.3849 160.366 23.1362C161.109 21.1692 161.053 18.1594 160.176 16.2631C159.489 14.7722 158.197 13.6698 156.656 13.1156C153.696 12.0509 145.052 12.4632 141.506 12.4716L139.521 12.5035C139.582 17.4833 139.533 22.4892 139.55 27.4719Z" fill="var(--fill-0, #2F1533)" fill-opacity="0.5"/>
<path d="M78.4251 7.00779C83.5003 6.91191 88.4808 6.96379 93.7978 6.98902C99.43 7.22811 110.359 5.41549 111.852 13.0466C112.656 17.1515 110.126 21.4428 105.827 22.0554C108.449 24.9718 110.939 27.9933 113.566 30.9067C114.203 31.6137 114.706 32.2742 115.415 32.9291C114.004 32.8712 112.389 32.9022 110.964 32.8969C109.791 32.9064 108.618 32.8978 107.445 32.8712C106.704 32.314 105.516 30.9116 104.859 30.1777C102.676 27.7422 100.719 25.2278 98.4617 22.8469C97.1479 22.744 95.1463 22.8022 93.8054 22.803L85.3596 22.8036L85.3749 32.9254C83.2905 32.8537 80.5039 32.8526 78.4312 32.9508L78.4251 7.00779ZM104.471 16.497C106.062 14.7516 104.569 12.8624 102.571 12.6498C100.906 12.4727 99.2491 12.5302 97.5768 12.5313L89.5986 12.5386C88.3151 12.54 86.6185 12.5905 85.3615 12.528L85.3624 17.2705L96.4763 17.2651C98.5624 17.2659 102.87 17.5723 104.471 16.497Z" fill="var(--fill-0, #2F1533)" fill-opacity="0.5"/>
<path d="M125.429 6.97457L125.555 6.986C125.756 7.184 125.768 7.31579 125.765 7.65031C125.736 10.162 125.74 12.7134 125.74 15.2201L125.768 32.9408C123.704 32.8247 120.99 32.8931 118.898 32.9162L118.661 32.8818C118.523 32.5026 118.598 27.0678 118.598 26.1583L118.601 6.98557C120.877 6.99991 123.153 6.99625 125.429 6.97457Z" fill="var(--fill-0, #2F1533)" fill-opacity="0.5"/>
<path d="M28.6245 0.0415994C29.099 0.00299153 29.4916 -0.0819886 29.851 0.213394C30.5868 1.46718 31.4453 8.07634 31.35 9.53869C30.0884 9.82394 28.5766 10.0403 27.285 10.2857C26.2144 10.4891 24.4351 10.9017 23.4054 10.9625C22.9362 10.3158 20.5784 3.52018 20.3505 2.56394C21.932 1.42598 26.7019 0.464344 28.6245 0.0415994Z" fill="var(--fill-0, #2F1533)" fill-opacity="0.5"/>
<path d="M17.6889 3.46437C17.8707 3.50416 18.0416 3.59594 18.1984 3.69375C19.0296 4.21161 21.2382 9.69414 21.5104 10.8502C21.5814 11.1521 21.6412 11.4221 21.4717 11.6911C20.8114 12.0956 15.8162 14.2644 15.1005 14.3357C13.8374 12.7543 12.2708 9.9864 11.0972 8.2911C10.062 6.79553 16.5434 3.90922 17.6889 3.46437Z" fill="var(--fill-0, #2F1533)" fill-opacity="0.5"/>
<path d="M8.81552 8.96564C9.13135 8.95151 9.43256 9.00242 9.66208 9.21897C10.5486 10.0552 13.6871 14.2489 13.8133 15.1847C13.64 15.6049 10.0784 18.1333 9.56416 18.3711C8.76212 18.1664 4.46596 13.9402 4.62506 13.1C5.06697 12.0885 7.9017 9.41718 8.81552 8.96564Z" fill="var(--fill-0, #2F1533)" fill-opacity="0.5"/>
<path d="M21.7705 13.3029C22.0509 13.2782 22.0932 13.3113 22.3355 13.4439C23.1584 14.3955 24.3542 18.4293 24.5729 19.6487C24.5435 19.6639 24.5141 19.6786 24.4843 19.6929C23.8617 19.9934 20.1167 21.3937 19.5032 21.1839C18.612 20.1981 17.1009 17.3814 16.4477 16.1844C15.8416 15.0738 20.8795 13.4955 21.7705 13.3029Z" fill="var(--fill-0, #2F1533)" fill-opacity="0.5"/>
<path d="M3.35797 14.628C4.62553 14.8104 7.7515 18.2751 8.64355 19.3217C7.92545 20.1656 6.87776 21.6605 6.21402 22.5801C5.20911 22.5663 3.45209 20.7323 2.52787 20.1472C2.24193 19.9661 1.13325 19.0157 1.13997 18.7159C1.16651 17.5218 2.6391 15.5328 3.35797 14.628Z" fill="var(--fill-0, #2F1533)" fill-opacity="0.5"/>
<path d="M14.5789 16.4937C14.7123 16.5355 15.0848 16.6691 15.1578 16.7508C15.8178 17.4892 18.4076 20.9853 18.5265 21.7178C18.188 22.2044 15.4742 23.6003 14.8393 23.7337C13.6233 23.177 12.4708 21.3926 11.3378 20.5737C9.2358 19.0543 13.3757 17.0597 14.5789 16.4937Z" fill="var(--fill-0, #2F1533)" fill-opacity="0.5"/>
<path d="M9.44168 20.3525C10.3193 20.5822 13.4087 23.3384 13.9337 24.041C14.1009 24.807 12.3755 26.1977 11.7459 26.5146C10.7918 26.3404 8.47803 24.5117 7.66169 23.8721C6.49529 22.958 8.65837 21.0272 9.44168 20.3525Z" fill="var(--fill-0, #2F1533)" fill-opacity="0.5"/>
<path d="M0.631998 19.8071C1.28306 20.0478 4.94603 22.7773 5.40202 23.3273C5.59103 24.0109 4.91592 25.663 4.67103 26.3908L4.49925 26.4597C3.86563 26.3729 0.154347 24.2269 0.031089 23.5408C-0.133761 22.6225 0.399563 20.761 0.631998 19.8071Z" fill="var(--fill-0, #2F1533)" fill-opacity="0.5"/>
<path d="M19.0395 22.7474C19.976 23.0415 21.8106 26 22.2763 26.9416C21.7629 27.2683 19.8986 28.0551 19.2711 28.0292C18.3034 27.1998 16.8954 26.0903 16.0903 25.1732C15.2333 24.197 18.4932 22.9958 19.0395 22.7474Z" fill="var(--fill-0, #2F1533)" fill-opacity="0.5"/>
<path d="M6.45079 24.3024C6.68778 24.3029 7.13922 24.3275 7.31295 24.466C7.94516 24.9702 10.9035 26.5048 11.1073 27.215C11.0317 27.8638 10.5091 28.7026 10.1853 29.2769C9.18316 29.3091 6.42946 27.7032 5.49029 27.129C5.64658 26.3796 6.02036 24.875 6.45079 24.3024Z" fill="var(--fill-0, #2F1533)" fill-opacity="0.5"/>
<path d="M10.8995 32.447C11.6922 32.8067 12.5279 32.9474 12.9704 33.1478C13.5739 33.3061 14.2999 33.4738 14.8616 33.7188C16.3555 36.0406 18.5149 37.6188 21.4175 37.6761L21.3236 37.8567C21.0856 37.8674 20.8478 37.8801 20.6101 37.8949C17.0867 37.6246 13.1011 36.8124 11.0756 33.539C10.8876 33.2352 10.7944 32.7927 10.8995 32.447Z" fill="var(--fill-0, #2F1533)" fill-opacity="0.5"/>
<path d="M12.8414 27.5101C12.7715 27.4004 12.6075 27.2113 12.6902 27.089C13.1073 26.4729 14.2408 25.282 15.0147 25.2016C15.6949 25.4523 18.5449 27.8194 18.795 28.447C18.4926 28.9375 17.4939 29.4485 16.9512 29.9099C16.0983 29.4676 13.34 27.6586 12.8414 27.5101Z" fill="var(--fill-0, #2F1533)" fill-opacity="0.5"/>
<path d="M12.3127 30.512C12.0092 30.4077 11.3996 30.2262 11.2324 29.9637C11.0668 29.6989 11.0174 29.3779 11.0957 29.0759C11.2674 28.4022 11.9518 27.6344 12.7326 27.8328C13.2151 28.304 15.975 29.7547 16.728 30.2043C16.2382 30.6675 15.7137 31.353 15.3858 31.6527C14.348 31.2007 13.3853 30.878 12.3127 30.512Z" fill="var(--fill-0, #2F1533)" fill-opacity="0.5"/>
<path d="M5.49524 27.7521C6.23068 28.0061 9.48889 29.6274 9.98182 30.1213C9.9764 30.6722 9.99438 31.3631 9.88716 31.8906C9.04049 31.7379 7.64988 31.2142 6.82693 30.9011C5.25371 30.3027 5.20995 29.1941 5.49524 27.7521Z" fill="var(--fill-0, #2F1533)" fill-opacity="0.5"/>
<path d="M10.9023 32.3552C10.5442 31.8506 10.4489 31.0471 10.9184 30.571C11.3031 30.4441 11.3533 30.5303 11.7826 30.6393C12.3537 30.8377 14.9111 31.6843 15.2595 31.9353C15.1187 32.4795 14.9855 33.0255 14.8601 33.5734C14.2493 33.3812 14.1831 33.1918 13.2999 33.0016C12.5718 32.7261 11.6727 32.4528 10.9023 32.3552Z" fill="var(--fill-0, #2F1533)" fill-opacity="0.5"/>
<path d="M12.8414 27.5101C13.34 27.6586 16.0983 29.4676 16.9512 29.9099L16.728 30.2043C15.975 29.7547 13.2151 28.304 12.7326 27.8328L12.8414 27.5101Z" fill="var(--fill-0, #2F1533)" fill-opacity="0.5"/>
<path d="M12.3127 30.512C13.3853 30.878 14.348 31.2007 15.3858 31.6527L15.2595 31.9353C14.9111 31.6843 12.3537 30.8377 11.7826 30.6393L12.3127 30.512Z" fill="var(--fill-0, #2F1533)" fill-opacity="0.5"/>
<path d="M10.9023 32.3552C11.6727 32.4528 12.5718 32.7261 13.2999 33.0016L12.9704 33.1478C12.5279 32.9474 11.6922 32.8067 10.8995 32.447L10.9023 32.3552Z" fill="var(--fill-0, #2F1533)" fill-opacity="0.5"/>
<path d="M21.4175 37.6761C21.9921 37.6809 22.6586 37.806 23.2343 37.8973C22.7318 37.9448 20.9719 38.1039 20.6101 37.8949C20.8478 37.8801 21.0856 37.8674 21.3236 37.8567L21.4175 37.6761Z" fill="var(--fill-0, #2F1533)" fill-opacity="0.5"/>
<path d="M13.2999 33.0016C14.1831 33.1918 14.2493 33.3812 14.8601 33.5734L14.8616 33.7188C14.2999 33.4738 13.5739 33.3061 12.9704 33.1478L13.2999 33.0016Z" fill="var(--fill-0, #2F1533)" fill-opacity="0.5"/>
</g>
</svg>
