<svg width="133" height="40" overflow="visible" style="display: block;" viewBox="0 0 133 40" fill="none" xmlns="http://www.w3.org/2000/svg">
<g id="Vector">
<path fill-rule="evenodd" clip-rule="evenodd" d="M63.6345 18.2734C62.7388 7.31554 53.1854 -0.835811 42.2988 0.0685329C31.416 0.972667 23.3208 10.584 24.2164 21.5381C25.112 32.4922 34.6591 40.6418 45.5424 39.7437C56.4298 38.8445 64.5305 29.2312 63.6345 18.2734ZM42.3394 6.36855C49.7668 5.48434 56.5009 10.8258 57.3827 18.3011C58.2645 25.7762 52.961 32.5568 45.5344 33.4473C38.1033 34.339 31.3613 28.9969 30.4786 21.5167C29.5964 14.0365 34.9074 7.25333 42.3394 6.36855Z" fill="var(--fill-0, #2F1533)" fill-opacity="0.5"/>
<path d="M128.868 0.259697C129.166 0.21673 129.158 0.219849 129.457 0.265724C129.709 0.599444 129.597 5.71649 129.602 6.55202C126.59 6.53856 123.403 7.71449 121.09 9.63605C112.694 16.6085 115.58 30.2951 126.095 33.1781C127.38 33.5302 128.297 33.6153 129.609 33.7155C129.536 35.6807 129.578 38.0014 129.563 39.9947C127.807 39.915 126.408 39.7599 124.688 39.3378C121.792 38.5258 119.279 37.2605 116.96 35.3092C113.025 32.0205 110.541 27.2988 110.052 22.174C109.57 16.5817 111.007 11.46 114.681 7.18662C118.509 2.73347 123.177 0.736532 128.868 0.259697Z" fill="var(--fill-0, #2F1533)" fill-opacity="0.5"/>
<path d="M69.9077 0.026238C73.1317 0.223735 75.4375 0.621426 78.3847 2.05635C83.0666 4.33477 86.6614 8.38744 88.3818 13.3272C90.1311 18.3702 89.7984 23.9083 87.4596 28.703C84.9036 33.8565 80.8444 37.0904 75.4807 38.8876C73.3425 39.5176 72.1202 39.6996 69.8937 39.7588L69.885 33.5249C73.0768 33.4064 76.3067 32.1712 78.6982 30.0229C81.4018 27.6097 83.0388 24.211 83.2453 20.5796C83.6764 12.7156 77.5233 6.71421 69.8845 6.2994C69.8733 4.20835 69.8811 2.11718 69.9077 0.026238Z" fill="var(--fill-0, #2F1533)" fill-opacity="0.5"/>
<path d="M18.8824 0.260313C19.1478 0.21207 19.1563 0.227145 19.4281 0.264835C19.6549 0.786899 19.5361 5.58077 19.5761 6.55684C16.4853 6.61908 13.5058 7.72868 11.1191 9.70634C4.88006 14.9339 4.61483 24.5243 10.5725 30.0344C13.2159 32.4792 16.0784 33.4473 19.583 33.7133C19.468 35.6807 19.5605 37.9637 19.4971 40C17.6342 39.8385 16.5596 39.7976 14.7107 39.3205C12.253 38.7648 9.08357 36.9934 7.17102 35.4093C3.10789 32.0172 0.552233 27.1375 0.0675711 21.8467C-0.367876 16.5371 1.3141 11.2712 4.74226 7.2119C8.42184 2.80193 13.3056 0.760086 18.8824 0.260313Z" fill="var(--fill-0, #2F1533)" fill-opacity="0.5"/>
<path d="M97.8443 9.49003C99.2866 9.4729 100.741 9.44007 102.173 9.47183C103.161 9.49369 103.66 10.1501 103.676 11.0843C103.707 12.9519 103.692 14.8397 103.69 16.7055L103.672 27.5968L103.7 34.3777C103.706 35.5698 103.746 36.8653 103.67 38.0477C103.614 38.8984 103.417 39.2236 102.786 39.7373C101.799 39.7642 100.812 39.7847 99.8247 39.8008C98.864 39.8105 97.8529 39.8514 97.135 39.1429C96.8558 37.7203 96.951 33.611 96.9521 31.9796L96.9478 13.2895C96.9478 11.8041 96.5487 10.3501 97.8443 9.49003Z" fill="var(--fill-0, #2F1533)" fill-opacity="0.5"/>
<path d="M99.6277 0.166641C100.814 -0.0696229 102.035 0.353798 102.825 1.27527C103.614 2.19685 103.851 3.47433 103.445 4.62054C103.039 5.76665 102.051 6.60467 100.86 6.81476C99.0467 7.13481 97.3157 5.92592 96.9776 4.10419C96.6395 2.28235 97.8217 0.526421 99.6277 0.166641Z" fill="var(--fill-0, #2F1533)" fill-opacity="0.5"/>
<path d="M129.067 16.2338C130.251 16.02 131.459 16.4638 132.228 17.3955C132.998 18.3272 133.209 19.6032 132.784 20.7363C132.358 21.8693 131.36 22.6846 130.171 22.8709C128.361 23.1544 126.662 21.9196 126.359 20.1016C126.057 18.2835 127.264 16.5589 129.067 16.2338Z" fill="var(--fill-0, #2F1533)" fill-opacity="0.5"/>
<path d="M69.916 15.6808C73.0397 16.5749 74.2908 18.7316 72.3147 21.6259C71.4166 22.3346 70.9976 22.4381 69.912 22.7376C69.835 20.5376 69.8722 17.8841 69.916 15.6808Z" fill="var(--fill-0, #2F1533)" fill-opacity="0.5"/>
</g>
</svg>
