<svg width="203" height="55" overflow="visible" style="display: block;" viewBox="0 0 203 55" fill="none" xmlns="http://www.w3.org/2000/svg">
<g id="Vector">
<path d="M27.289 10.2428C37.5759 9.30698 46.6963 16.6266 47.6535 26.5859C48.6107 36.5454 41.0416 45.3682 30.7531 46.2856C20.4779 47.2019 11.3787 39.8859 10.4228 29.9394C9.46685 19.9929 17.0157 11.1774 27.289 10.2428ZM37 24.0303C38.57 23.3087 38.8627 22.9079 39.4416 21.2852C38.7659 19.3363 37.9046 18.2796 35.5735 18.4819C34.5963 18.8401 33.8663 19.2247 33.4237 20.2147C33.1235 20.8806 33.1225 21.6373 33.421 22.304C34.0734 23.7943 35.4546 24.2263 37 24.0303Z" fill="var(--fill-0, white)"/>
<path d="M162.694 5.88345C168.862 5.71719 174.008 10.4085 174.206 16.3784C174.406 22.3484 169.583 27.3509 163.416 27.5698C157.212 27.7902 152.006 23.0853 151.805 17.0781C151.605 11.0707 156.488 6.05079 162.694 5.88345ZM163.782 23.3616C168.147 22.4675 168.735 17.7623 167.944 14.199C167.299 11.2995 165.303 9.50428 162.145 9.83788C155.615 11.3578 156.067 24.1702 163.782 23.3616Z" fill="var(--fill-0, white)"/>
<path d="M92.1778 5.90579C98.3837 5.68915 103.584 10.4072 103.763 16.4166C103.942 22.4258 99.0314 27.4264 92.823 27.5565C86.6774 27.6853 81.5758 22.9897 81.3985 17.0412C81.2213 11.0928 86.0347 6.12026 92.1778 5.90579ZM93.5419 23.2965C95.0981 22.8742 96.2857 22.2857 97.0105 20.8022C99.1069 16.5117 97.845 9.13372 91.5444 9.83779C90.6375 10.0732 89.9601 10.3082 89.2954 10.9894C85.7667 14.6051 86.6183 24.4739 93.5419 23.2965Z" fill="var(--fill-0, white)"/>
<path d="M134.003 6.21697C138.917 5.89485 145.796 6.31395 148.708 10.911C150.507 13.752 150.362 18.6071 148.86 21.5625C147.797 23.6528 145.977 24.7402 143.98 25.88C140.022 27.9245 133.932 27.4642 129.63 27.1198C129.694 20.5343 129.815 13.1959 129.616 6.63931C131.051 6.40673 132.548 6.32353 134.003 6.21697ZM135.161 9.93572C135.217 12.7366 135.234 15.538 135.211 18.3393C135.211 19.6876 135.28 22.0697 135.164 23.3654C137.243 23.3225 139.425 23.4142 141.258 22.3433C144.528 20.208 145.043 15.44 143.041 12.2628C141.767 10.2419 139.373 9.88493 137.106 9.86521L135.161 9.93572Z" fill="var(--fill-0, white)"/>
<path d="M24.8931 0.0256424C24.9485 0.0196997 25.2019 0.0662946 25.2744 0.0779098C25.6309 0.540356 25.4918 6.23813 25.543 7.26594C21.997 6.8898 17.9773 7.26513 14.3724 7.1375C12.0465 7.05525 9.49456 7.33253 7.19276 7.11211C7.38584 12.9048 7.25512 19.6936 7.19918 25.5282C5.3939 25.2834 3.17623 25.3427 1.33822 25.3776C0.716768 25.4264 0.610446 25.532 0.194549 25.2597C0.0170763 24.513 0.0880459 20.5217 0.0888551 19.534L0.0987879 7.01406C0.0997505 5.14401 0.192707 1.81451 0 0.0350935C2.69728 0.147193 6.0789 0.0587321 8.80774 0.0576516L24.8931 0.0256424Z" fill="var(--fill-0, white)"/>
<path d="M56.4127 0.0213572L56.6288 0.00595852C57.1292 0.482181 56.8752 1.74472 56.889 2.44393C57.0396 10.0813 56.6729 17.8766 56.9124 25.4975C55.0999 25.3161 51.862 25.283 50.0667 25.4957L50.0822 8.38955C50.1197 7.92035 50.1428 7.79339 50.0388 7.32676C49.4504 6.96264 33.6856 7.14267 31.6339 7.19791C31.6593 4.89446 31.7356 2.36722 31.638 0.0837558C39.7391 -0.106814 48.2556 0.0984766 56.4127 0.0213572Z" fill="var(--fill-0, white)"/>
<path d="M0.0855373 29.9507C2.44613 29.967 4.84935 29.9341 7.21351 29.9242L7.2269 48.2085C11.2641 48.0393 15.5927 48.2555 19.6519 48.1785C21.4035 48.1453 23.7769 48.2858 25.4594 48.0264C25.3944 49.9772 25.4468 53.0034 25.5376 54.9408C21.5811 54.6678 16.2587 54.8468 12.1955 54.8247C8.87955 54.8067 3.29282 54.6734 0.0911466 54.9689L0.101986 37.7108C0.103005 35.5665 -0.0573642 31.8687 0.0855373 29.9507Z" fill="var(--fill-0, white)"/>
<path d="M50.1733 29.9806C52.3544 29.9046 54.7736 29.9363 56.9737 29.9196C56.8461 31.0367 56.892 33.0556 56.8908 34.2427L56.887 41.5226C56.8862 45.0047 56.6776 51.7661 56.9476 55C55.0389 54.7503 51.8264 54.8274 49.8333 54.8267L38.3778 54.8312C36.1881 54.8297 33.7966 54.7831 31.6322 54.9647C31.6696 52.7006 31.6927 50.4362 31.7014 48.1718L50.093 48.1793C50.0076 46.8122 50.0472 30.2113 50.1733 29.9806Z" fill="var(--fill-0, white)"/>
<path d="M120.49 6.29965C122.201 6.31951 123.912 6.31073 125.623 6.27331C125.474 7.91308 125.56 10.7746 125.561 12.4911C125.567 17.1531 125.533 21.8349 125.582 26.4949C125.586 26.8928 125.578 27.033 125.329 27.2692L124.982 27.2287C123.602 27.181 121.271 27.5741 120.044 27.0518C119.449 26.7987 113.652 16.5868 113.007 15.3418C112.377 14.1258 111.866 12.8364 111.332 11.5783C111.717 17.0633 111.504 21.9534 111.601 27.3757C110.237 27.1153 107.946 27.2017 106.491 27.2453C106.332 21.2813 106.76 15.058 106.552 9.06717C106.522 8.19171 106.536 7.19524 106.578 6.32302C108.175 6.30006 111.122 5.96983 112.535 6.47293C114.195 7.06382 120.126 19.0141 121.136 21.1714C121.11 20.6881 121.049 20.2221 120.984 19.7427C120.383 15.2833 120.608 10.7919 120.49 6.29965Z" fill="var(--fill-0, white)"/>
<path d="M190.989 6.27476C192.517 6.31163 194.296 6.33175 195.804 6.23789C195.652 11.9657 196.014 21.0186 195.777 27.0228C195.696 27.1141 195.628 27.1919 195.571 27.2561L195.188 27.2288C193.693 27.1857 192.009 27.217 190.499 27.2172C190.085 26.686 188.465 23.7676 187.995 22.9483C185.632 18.832 183.326 15.9986 181.596 11.5602C181.705 14.1426 181.847 16.5996 181.875 19.1973C181.906 21.8683 181.83 24.6306 181.922 27.2873C180.488 27.1262 178.532 27.2019 177.09 27.2813C176.919 20.4319 177.151 13.242 177.042 6.30623C178.887 6.32001 181.091 6.23032 182.886 6.38402C185.332 8.29269 190.335 18.0764 191.493 21.0584C190.894 16.4197 191.009 10.9843 190.989 6.27476Z" fill="var(--fill-0, white)"/>
<path d="M66.7835 6.26679C68.6174 6.32851 70.4707 6.29353 72.3066 6.27719C71.9869 11.3564 72.4058 17.7757 72.2376 22.9993C74.633 22.7887 78.4068 23.0095 81.0264 22.9077C81.0042 24.292 80.9981 25.6767 81.008 27.0612C80.9695 27.0823 80.7111 27.2362 80.6875 27.2369C76.2887 27.3632 71.1215 26.8605 66.7936 27.2938L66.7835 6.26679Z" fill="var(--fill-0, white)"/>
<path d="M96.3673 35.6509C96.5894 35.645 96.8115 35.642 97.0336 35.6417L154.972 35.6143C156.513 35.6138 163.295 35.3757 163.958 36.0086C163.836 36.3578 163.808 36.2929 163.457 36.5356C158.602 36.6689 153.437 36.5913 148.551 36.5913L106.074 36.5955C103.275 36.5953 100.41 36.6113 97.6076 36.5596C96.9824 36.548 96.285 36.4798 95.8767 36.0263C96.0354 35.7376 95.9947 35.8255 96.3673 35.6509Z" fill="var(--fill-0, white)"/>
<path d="M94.8292 43.2622C97.4299 43.5719 101.337 42.7946 98.113 46.7201C98.1889 47.2791 99.8487 48.341 100.096 49.2292L99.9419 49.3873C99.5444 49.4147 99.3378 49.2833 98.9713 49.1253C98.3993 48.4538 97.1775 46.8252 96.246 46.8205C95.1657 47.5256 96.6984 48.7262 95.2646 49.487L95.0347 49.4162C94.7846 48.9955 94.8492 44.1805 94.8292 43.2622ZM97.781 46.0756C98.1168 45.6428 98.2703 45.4962 98.3473 44.959C98.0377 43.9081 96.9399 44.0566 95.9848 44.1277C95.8514 44.7938 95.6713 45.448 96.0057 46.0547C96.5296 46.4522 97.2115 46.3853 97.781 46.0756Z" fill="var(--fill-0, white)"/>
<path d="M130.529 43.2441C132.994 43.3544 136.757 43.4533 134.094 46.852C133.54 46.9689 132.915 47.0524 132.35 47.1402C131.979 47.0934 131.85 47.0477 131.496 47.1788C131.254 47.5961 131.454 48.4432 131.347 49.1773C131.065 49.5424 131.2 49.4824 130.832 49.5452C130.366 49.059 130.546 44.34 130.529 43.2441ZM131.384 46.4417C131.926 46.3894 133.176 46.2994 133.66 46.208C134.766 44.0485 133.166 44.1085 131.479 44.0509C131.404 44.9091 131.387 45.5798 131.384 46.4417Z" fill="var(--fill-0, white)"/>
<path d="M89.7506 45.4652C90.0424 44.6027 90.2597 43.2066 91.4062 43.3626C92.3203 43.9861 93.5627 48.114 93.7919 49.2583L93.6783 49.5263L93.4788 49.5436C92.918 49.0518 92.5995 48.2655 92.3343 47.5883C91.5462 47.6303 90.7569 47.6504 89.9676 47.6486C89.445 48.1009 89.576 49.2085 88.6608 49.5503L88.5428 49.3949C88.5203 48.2821 89.309 46.553 89.7506 45.4652ZM90.4538 46.0316C90.3024 46.3967 90.0659 46.7252 90.2416 47.1109C90.9599 46.9183 91.4729 47.1762 91.9858 46.779C92.0714 46.4623 91.277 44.4575 91.1111 43.9425C90.8882 44.5569 90.6526 45.3924 90.4538 46.0316Z" fill="var(--fill-0, white)"/>
<path d="M89.7506 45.4652L90.4538 46.0316C90.3024 46.3967 90.0659 46.7252 90.2416 47.1109C90.1498 47.3206 90.106 47.4661 89.9676 47.6486C89.445 48.1009 89.576 49.2085 88.6608 49.5503L88.5428 49.3949C88.5203 48.2821 89.309 46.553 89.7506 45.4652Z" fill="var(--fill-0, white)"/>
<path d="M137.509 43.0996C138.554 43.2137 138.911 44.4545 139.207 45.3043C139.478 46.0839 140.788 48.9258 140.401 49.5036C139.291 49.5845 139.708 47.48 138.547 47.6387C137.784 47.6472 137.378 47.6214 136.619 47.5321C136.375 48.2198 136.05 49.1984 135.386 49.5964L135.26 49.4343C135.171 48.3718 136.918 44.043 137.509 43.0996ZM137.711 46.9399L138.469 47.0297C138.998 46.4861 138.2 44.4515 137.815 44.1836C137.541 44.8682 136.931 46.144 136.93 46.7983L137.054 46.9849C137.29 46.9769 137.476 46.9741 137.711 46.9399Z" fill="var(--fill-0, white)"/>
<path d="M152.066 43.1039C154.213 43.3562 154.534 46.0224 155.632 47.541C156.134 47.2239 155.743 44.2812 156.19 43.1475L156.405 43.1918C156.735 43.7015 156.88 44.9499 156.812 45.5569C156.696 46.5697 157.024 48.7933 156.424 49.5287C154.211 48.6499 154.209 45.1672 152.879 44.6634C152.579 45.5531 153.229 48.6006 152.564 49.3534L152.303 49.2999C151.863 48.6633 152.042 44.1449 152.066 43.1039Z" fill="var(--fill-0, white)"/>
<path d="M200.252 4.54774C201.408 4.63918 202.518 4.79693 202.92 6.05528C203.066 6.51895 203.011 7.02042 202.765 7.44303C202.369 8.13548 201.781 8.40722 201.039 8.6271C199.128 8.69706 198.602 7.97368 198.238 6.2938C198.305 6.16495 198.375 6.03759 198.447 5.91185C198.979 4.99425 199.224 4.8257 200.252 4.54774ZM200.964 8.0454C201.512 7.96288 201.793 7.83983 202.133 7.37685C202.352 7.07364 202.434 6.69614 202.358 6.33297C202.16 5.37188 201.424 5.20373 200.554 5.10851C198.284 5.5118 198.532 8.0716 200.964 8.0454Z" fill="var(--fill-0, white)"/>
<path d="M201.183 5.83784C201.493 5.74951 201.608 5.80489 201.83 5.97506C201.567 6.35499 201.32 6.18643 200.792 6.59026C201.004 7.02489 201.392 6.65266 201.814 7.19506L201.754 7.39009L201.398 7.41818C200.796 7.12483 200.512 7.20425 199.83 7.27975L199.636 7.07216C199.948 6.39388 199.606 6.25896 199.93 5.86458C200.36 5.82123 200.752 5.83311 201.183 5.83784Z" fill="var(--fill-0, white)"/>
<path d="M163.864 43.2176C164.995 43.3297 167.717 42.9605 168.243 43.7442C167.784 44.4602 166.056 43.9082 164.856 44.1991C164.698 44.4719 164.746 44.7985 164.751 45.0867C164.786 46.5316 166.989 45.0126 168.2 46.0173L168.196 46.2413C167.544 46.5705 165.534 46.3969 164.753 46.2867C164.74 46.8883 164.584 48.2428 164.991 48.6319C166.395 48.5393 166.69 48.4154 168.021 48.8433L168.187 49.0066C167.794 49.4375 166.954 49.3538 166.411 49.3391C165.408 49.3454 164.889 49.3591 163.902 49.5031C163.84 47.4019 163.943 45.2888 163.864 43.2176Z" fill="var(--fill-0, white)"/>
<path d="M164.991 48.6319C166.395 48.5393 166.69 48.4154 168.021 48.8433L168.187 49.0066C167.794 49.4375 166.954 49.3538 166.411 49.3391C165.846 48.841 165.63 48.9648 164.991 48.6319Z" fill="var(--fill-0, white)"/>
<path d="M147.239 43.3331C148.116 43.2974 150.25 43.1717 150.955 43.6486L150.909 43.6535L150.825 43.9473L150.743 43.9738L150.791 43.6594L150.648 43.9976L149.848 44.0705C149.218 44.0916 148.121 44.0037 147.687 44.2506C147.438 44.5647 147.237 45.3223 147.661 45.592C147.923 45.758 148.636 45.6667 149.038 45.7328C149.686 45.6991 150.433 45.6044 150.934 46.0905L150.847 46.2509C150.388 46.3838 150.318 46.3848 149.847 46.3801C148.873 46.4131 148.441 46.4029 147.474 46.2948C147.495 47.0413 147.45 47.8459 147.425 48.5965C149.219 48.5464 150.133 48.5037 151.822 48.9959C149.998 49.4159 148.418 49.314 146.556 49.4459C146.61 47.8996 146.647 45.1275 146.451 43.6182L146.44 43.5323C146.751 43.3093 146.845 43.3299 147.239 43.3331Z" fill="var(--fill-0, white)"/>
<path d="M147.239 43.3331C148.116 43.2974 150.25 43.1717 150.955 43.6486L150.909 43.6535L150.825 43.9473L150.743 43.9738L150.791 43.6594L150.648 43.9976L149.848 44.0705C148.862 43.833 148.015 44.1618 147.239 43.3331Z" fill="var(--fill-0, white)"/>
<path d="M149.038 45.7328C149.686 45.6991 150.433 45.6044 150.934 46.0905L150.847 46.2509C150.388 46.3838 150.318 46.3848 149.847 46.3801C149.342 46.1943 148.794 46.1626 148.25 46.004C148.46 45.8334 148.764 45.7961 149.038 45.7328Z" fill="var(--fill-0, white)"/>
<path d="M113.963 43.3285C115.04 43.258 117.18 42.9203 117.479 44.1937C116.948 44.5435 115.313 43.6246 114.066 44.2695C113.767 44.5846 113.704 44.632 113.67 45.0525C114.463 46.3444 118.647 45.6205 117.418 48.3075C117.111 48.9793 116.627 49.1376 115.948 49.3679C115.028 49.4592 113.656 49.5525 112.907 48.9951C112.632 48.5218 112.693 48.7367 112.712 48.1604C112.975 48.0197 116.474 49.7086 116.751 47.6634C116.148 46.5285 110.005 46.1854 113.963 43.3285Z" fill="var(--fill-0, white)"/>
<path d="M84.5665 46.8513C85.0749 45.7276 85.6929 44.0408 86.6529 43.31L87.0018 43.2463C87.7613 43.9518 87.602 48.8652 87.15 49.4562L86.9301 49.5248C86.0604 48.7038 86.7807 45.2393 86.6741 44.0588C86.4072 44.6749 85.0912 47.497 84.6619 47.7398C83.675 47.3235 83.3678 44.8595 82.4295 44.54C81.9628 44.0862 81.8026 43.9629 81.5567 43.3785C83.2333 42.7467 83.9339 44.8744 84.3353 46.0783C84.4203 46.3337 84.4973 46.5914 84.5665 46.8513Z" fill="var(--fill-0, white)"/>
<path d="M102.67 43.314C104.106 43.2296 105.098 43.0754 106.174 44.1784L106.145 44.3583C104.725 44.682 101.824 42.8549 101.632 45.7645C101.503 47.702 101.975 48.5853 104.066 48.6984C104.869 48.537 105.204 48.1754 105.868 48.1151L106.04 48.2738C105.832 49.5384 103.736 49.6458 102.739 49.3552C100.84 48.8018 100.363 46.6411 100.961 45.0051C101.325 44.0113 101.723 43.7566 102.67 43.314Z" fill="var(--fill-0, white)"/>
<path d="M157.339 43.3485C158.406 43.2526 162.781 43.036 163.451 43.7041C162.781 44.2063 161.678 44.1039 160.873 44.056L160.874 47.1841C160.885 47.9087 160.994 48.9189 160.563 49.4931L160.365 49.4273C159.916 48.3738 160.025 45.2891 160.02 44.0445C159.136 44.114 157.918 44.2927 157.273 43.6493L157.339 43.3485Z" fill="var(--fill-0, white)"/>
<path d="M170.7 45.7892C171.838 45.9115 174.458 46.0967 174.217 47.6989C173.944 49.5216 171.22 49.6358 169.783 49.3808C169.211 49.2793 168.995 48.6988 168.953 48.2092L169.101 48.0861C170.293 48.4947 172.067 49.0775 173.091 48.0246C173.454 46.7874 171.491 46.6985 170.64 46.5879C170.565 46.1112 170.471 46.1075 170.7 45.7892Z" fill="var(--fill-0, white)"/>
<path d="M122.134 43.7314L123.15 44.0505C122.318 47.1899 125.083 44.7789 126.525 46.0171C126.223 46.6275 123.663 46.404 123.005 46.3062C122.998 46.6579 122.938 48.3866 122.993 48.6291L122.656 49.078L122.728 49.229L123.307 49.367C122.752 49.3711 122.602 49.4597 122.181 49.2328C122.015 48.3016 122.138 44.9201 122.134 43.7314Z" fill="var(--fill-0, white)"/>
<path d="M81.5567 43.3785C81.8026 43.9629 81.9628 44.0862 82.4295 44.54C82.7051 46.1037 82.5616 47.2948 82.6808 48.8564C82.6967 49.0655 82.4322 49.1957 82.2614 49.3113C81.7529 49.3194 81.9079 49.3869 81.6119 49.1227C81.4324 48.3974 81.5498 44.3917 81.5567 43.3785Z" fill="var(--fill-0, white)"/>
<path d="M109.941 43.364C110.449 44.4602 111.976 48.2109 111.964 49.2829L111.846 49.5043C110.843 49.2205 111.1 48.111 110.362 47.5705L110.338 47.1368C110.342 46.5458 109.669 44.7596 109.451 44.1405L109.447 44.122C109.54 43.8678 109.773 43.5901 109.941 43.364Z" fill="var(--fill-0, white)"/>
<path d="M142.307 44.005L142.414 43.8227C142.81 43.8538 142.879 43.8759 143.25 44.0127C143.272 45.0139 143.465 48.9812 142.961 49.5517L142.706 49.4918C142.002 48.2717 142.768 45.1945 142.307 44.005Z" fill="var(--fill-0, white)"/>
<path d="M142.307 44.005C141.313 44.1443 140.999 44.2827 140.139 43.7734L140.041 43.5904C140.571 43.0842 145.02 43.1841 145.673 43.6452C145.158 44.3793 144.102 44.1493 143.25 44.0127C142.879 43.8759 142.81 43.8538 142.414 43.8227L142.307 44.005Z" fill="var(--fill-0, white)"/>
<path d="M122.134 43.7314L122.156 43.422C122.702 42.9891 125.73 43.2528 126.366 43.6719L126.375 43.8484C125.683 44.2048 123.917 44.1721 123.15 44.0505L122.134 43.7314Z" fill="var(--fill-0, white)"/>
<path d="M107.599 45.8433C107.833 45.2207 108.503 43.5707 109.146 43.2695C109.432 43.1356 109.63 43.2653 109.941 43.364C109.773 43.5901 109.54 43.8678 109.447 44.122L109.451 44.1405C109.24 44.5223 108.591 46.2369 108.494 46.3418C108.206 46.3493 108.089 46.3422 107.803 46.3044L107.599 45.8433Z" fill="var(--fill-0, white)"/>
<path d="M170.64 46.5879C168.591 46.3414 168.585 44.4205 170.029 43.3851L170.622 43.9854C169.822 44.5709 169.663 45.3481 170.7 45.7892C170.471 46.1075 170.565 46.1112 170.64 46.5879Z" fill="var(--fill-0, white)"/>
<path d="M107.599 45.8433L107.803 46.3044C108.089 46.3422 108.206 46.3493 108.494 46.3418L108.25 46.7644L107.843 47.051C107.889 47.2613 107.908 47.3603 107.989 47.5667C107.479 48.101 107.584 49.1913 106.636 49.4015C106.339 48.7105 107.295 46.5633 107.599 45.8433Z" fill="var(--fill-0, white)"/>
<path d="M170.029 43.3851C171.287 43.2194 172.627 43.0673 173.754 43.7538L173.849 43.9747C173.274 44.3605 171.485 44.0773 170.622 43.9854L170.029 43.3851Z" fill="var(--fill-0, white)"/>
<path d="M122.993 48.6291C123.84 48.5733 125.674 48.3702 126.299 48.9133C125.894 49.5409 124.023 49.3735 123.307 49.367L122.728 49.229L122.656 49.078L122.993 48.6291Z" fill="var(--fill-0, white)"/>
<path d="M107.989 47.5667C107.908 47.3603 107.889 47.2613 107.843 47.051L108.25 46.7644C108.789 47.1544 109.527 46.9017 110.338 47.1368L110.362 47.5705C109.754 47.7149 108.647 47.6056 107.989 47.5667Z" fill="var(--fill-0, white)"/>
</g>
</svg>
