<svg width="115" height="39" overflow="visible" style="display: block;" viewBox="0 0 115 39" fill="none" xmlns="http://www.w3.org/2000/svg">
<g id="Vector">
<path d="M100.119 0.117553C107.381 -0.828994 114.018 4.3664 114.902 11.6894C115.786 19.0125 110.578 25.6584 103.302 26.4921C96.1046 27.3168 89.5942 22.1393 88.7206 14.8956C87.8462 7.65186 92.9355 1.05386 100.119 0.117553ZM102.554 22.5732C107.622 22.1646 111.408 17.7052 111.022 12.5988C110.637 7.49227 106.224 3.66126 101.154 4.02964C96.0554 4.40017 92.2266 8.87474 92.6142 14.0096C93.0019 19.1446 97.4593 22.984 102.554 22.5732Z" fill="var(--fill-0, #2F1533)" fill-opacity="0.5"/>
<path d="M11.4934 0.121391C18.7325 -0.823174 25.3558 4.33689 26.2691 11.6325C27.1824 18.9282 22.0382 25.5832 14.793 26.4788C7.58205 27.3702 1.01396 22.2177 0.105017 14.9565C-0.804012 7.69525 4.28866 1.06142 11.4934 0.121391ZM13.9636 22.5803C19.0369 22.1476 22.8064 17.6616 22.3924 12.5495C21.9783 7.43742 17.5369 3.62638 12.4611 4.02779C7.36323 4.43101 3.5601 8.92902 3.97593 14.0632C4.39176 19.1975 8.86839 23.0149 13.9636 22.5803Z" fill="var(--fill-0, #2F1533)" fill-opacity="0.5"/>
<path d="M61.8881 0.695633C68.5674 0.809235 75.5744 0.705294 82.2823 0.70678C78.6952 5.59943 75.2843 10.7946 71.7496 15.7361C70.3507 17.6922 68.8452 20.0323 67.3955 21.9111C72.3004 21.875 77.497 21.8243 82.393 21.8862C82.3807 22.6182 82.5708 25.2258 82.2463 25.6833C81.162 25.5883 79.4049 25.6414 78.2592 25.6418L63.9575 25.6398C62.7059 25.6397 60.9207 25.589 59.728 25.7093C60.5368 24.419 61.8102 22.7273 62.7239 21.4218L72.5266 7.40625C73.1789 6.47011 74.123 5.02713 74.8262 4.17288C71.4538 4.09363 68.056 4.18362 64.682 4.1496C63.7928 4.14069 62.7684 4.11517 61.8944 4.22258C61.9491 3.10671 61.8569 1.85461 61.8881 0.695633Z" fill="var(--fill-0, #2F1533)" fill-opacity="0.5"/>
<path d="M42.112 0C42.7159 0.261301 44.2639 2.83328 44.683 3.50705C48.2298 9.20854 51.7648 15.0014 54.1294 21.3209C54.765 23.0195 55.0131 24.8122 55.1866 26.6072C54.2232 26.5059 52.0104 26.572 50.9648 26.6042C50.9702 25.2834 50.1773 22.53 49.6685 21.3252C48.2853 18.0496 46.52 14.9222 44.6699 11.8926C43.9321 10.6845 43.1391 9.266 42.234 8.20181C42.1682 8.18018 42.1668 8.20503 42.0684 8.24722C41.3683 9.57139 40.2272 11.1387 39.4648 12.42C37.5791 15.5899 33.2248 22.9358 33.672 26.5757C32.4276 26.5129 30.5007 26.5599 29.2412 26.5805C30.3982 18.0982 35.5953 10.4112 40.0043 3.27787C40.685 2.17677 41.4823 1.1347 42.112 0Z" fill="var(--fill-0, #2F1533)" fill-opacity="0.5"/>
<path d="M29.4567 28.8888C30.8336 28.8197 32.535 28.8216 33.9132 28.8767C34.8249 30.4977 35.466 31.7675 36.9671 32.9243C40.1126 35.3482 43.7905 35.0736 47.18 33.2182C47.8885 34.5041 48.5141 35.8546 49.1468 37.1814C45.616 39.5306 40.0315 39.5225 36.3036 37.6255C32.1659 35.52 30.9128 33.0615 29.4567 28.8888Z" fill="var(--fill-0, #2F1533)" fill-opacity="0.5"/>
<path d="M47.18 33.2182C48.1068 32.5858 48.7648 32.0105 49.4606 31.1115C49.7986 30.6747 50.3572 28.9627 50.8358 28.9123C52.2477 28.7636 53.7352 28.9358 55.1554 28.8618C53.949 32.5405 52.6563 35.1213 49.1468 37.1814C48.5141 35.8546 47.8885 34.5041 47.18 33.2182Z" fill="var(--fill-0, #2F1533)" fill-opacity="0.5"/>
</g>
</svg>
