<svg width="183" height="38" overflow="visible" style="display: block;" viewBox="0 0 183 38" fill="none" xmlns="http://www.w3.org/2000/svg">
<g id="Vector">
<path d="M104.745 0.154908C107.599 0.150946 110.56 0.108027 113.405 0.166533C113.316 4.28994 113.393 8.69921 113.393 12.8414L113.391 37.2018L104.744 37.2068L104.723 35.9063C104.464 36.0594 104.2 36.2064 103.934 36.3469C100.511 38.1135 97.0554 38.1895 93.4293 37.0908C89.1456 35.3594 86.3279 32.3231 85.2248 27.8555C84.3412 24.303 84.9247 20.5522 86.8485 17.4191C88.5913 14.5833 91.4206 12.5497 94.7045 11.7725C98.1286 10.9558 101.744 11.527 104.733 13.3567C104.729 8.96895 104.696 4.53926 104.745 0.154908ZM99.0105 30.8435C101.389 30.8804 102.793 30.4091 104.524 28.762C104.601 28.6874 104.677 28.6103 104.751 28.5306C104.683 26.0943 104.69 23.1612 104.735 20.7139C103.129 18.882 101.362 18.2612 98.9462 18.3392C90.8747 19.1557 92.1024 30.8148 99.0105 30.8435Z" fill="#2F1533" fill-opacity="0.5"/>
<path d="M5.17436 1.66749C8.53279 1.797 12.2081 1.70901 15.5829 1.6937C21.2524 1.66798 27.1738 1.54526 31.5315 5.78729C36.3595 10.4872 36.1929 19.2882 31.3978 23.9304C26.6304 28.5305 20.2845 28.1958 14.1526 28.1938C14.1648 31.1308 14.21 34.2731 14.1386 37.1966C11.4608 37.2933 7.90584 37.201 5.17165 37.2015C5.08791 35.1838 5.15142 32.7449 5.15097 30.7014C5.13754 27.442 5.14417 24.1827 5.17085 20.9235C8.69853 20.8341 12.3952 20.9838 15.9273 20.927C17.4395 20.9026 20.0225 21.0527 21.4252 20.7332C22.5838 20.4719 23.6456 19.9005 24.4922 19.0827C26.8098 16.8202 26.7855 12.8678 24.4702 10.6082C23.6226 9.78674 22.5526 9.22042 21.3867 8.97614C20.2767 8.74202 17.0464 8.83788 15.7588 8.83893L5.17038 8.84532C5.08874 6.75597 5.12208 3.75995 5.17436 1.66749Z" fill="#2F1533" fill-opacity="0.5"/>
<path d="M54.1187 11.5073C54.3339 11.4787 55.1145 11.4735 55.3696 11.4658L55.3637 19.5219C51.8674 19.5823 49.0364 20.3817 46.4555 22.7169C46.5565 27.4038 46.4612 32.4769 46.4636 37.199L37.8011 37.2041L37.7801 36.0081C37.7781 28.0808 37.6411 19.7477 37.8019 11.8543C40.5908 11.9338 43.6683 11.8663 46.4835 11.8784C46.4496 12.7448 46.5226 13.8021 46.3984 14.643C48.8034 12.583 50.9947 11.8329 54.1187 11.5073Z" fill="#2F1533" fill-opacity="0.5"/>
<path d="M132.594 0.159694C134.73 0.132633 139.122 -0.476313 139.764 2.17733C139.927 2.8546 139.807 3.56785 139.431 4.15794C138.926 4.94647 138.284 5.21844 137.417 5.41069C138.323 6.59152 139.299 7.82189 140.154 9.03139C139.743 9.05223 139.315 9.04662 138.902 9.04741C138.212 8.34315 136.854 6.44233 136.216 5.59407C135.383 5.60751 134.549 5.60946 133.716 5.59993C133.786 6.4953 133.751 8.11547 133.764 9.05144L132.592 9.05161L132.594 0.159694ZM133.717 4.65874C135.114 4.67306 137.046 4.91072 138.128 4.10774C138.545 3.68421 138.636 3.43644 138.813 2.87301C138.041 0.425042 135.795 1.23222 133.703 1.12569C133.766 1.99341 133.752 3.74678 133.717 4.65874Z" fill="#2F1533" fill-opacity="0.5"/>
<path d="M160.978 0.156584C163.222 0.128991 167.74 -0.443717 167.824 2.85261C167.844 3.61836 167.549 4.35993 167.004 4.90899C166.214 5.70937 165.37 5.87013 164.304 5.89181C163.986 5.93786 162.497 5.92309 162.093 5.9269L162.102 9.05757L160.96 9.04111C161.112 6.39642 160.914 2.92633 160.978 0.156584ZM162.098 4.958C163.446 4.98706 165.039 5.18042 166.136 4.31138C166.534 3.8383 166.747 3.44724 166.681 2.82015C166.458 0.675359 163.596 1.19186 162.093 1.12974L162.098 4.958Z" fill="#2F1533" fill-opacity="0.5"/>
<path d="M152.884 0.160823C153.196 0.143832 153.711 0.0679721 153.943 0.235786C154.112 0.451537 154.048 0.864095 154.034 1.14974C154.02 3.16644 154.395 7.27925 152.884 8.23875C148.659 10.9211 145.747 7.64248 146.379 3.27708C146.471 2.64245 146.384 0.761523 146.407 0.155631C146.746 0.135979 147.194 0.148671 147.542 0.148329L147.511 4.43599C147.507 5.51086 147.543 6.68674 148.362 7.49667C149.266 8.39655 151.199 8.39641 152.098 7.49204C152.792 6.79473 152.909 5.79258 152.908 4.86422C152.905 3.2969 152.895 1.72859 152.884 0.160823Z" fill="#2F1533" fill-opacity="0.5"/>
<path d="M67.945 38C66.9347 37.778 65.8739 37.6215 64.889 37.3396C61.8142 36.4893 59.1653 34.5613 57.4463 31.9223C55.4755 28.8776 54.8535 24.8961 55.6599 21.394C56.3996 18.1146 58.4437 15.2599 61.3389 13.4624C67.6203 9.57669 77.3154 10.9904 81.3071 17.3782C83.2698 20.5191 83.796 24.1823 82.964 27.7515C82.2091 31.1285 80.0961 34.0642 77.1033 35.8946C75.6461 36.7889 74.0802 37.326 72.4063 37.6643C72.0017 37.7461 70.9702 37.9094 70.667 38H67.945ZM70.2527 30.4571C73.5306 29.97 75.7876 26.975 75.2981 23.7619C74.8086 20.5489 71.7572 18.3304 68.477 18.8027C65.1863 19.2766 62.9133 22.2783 63.4044 25.5018C63.8955 28.7253 66.9642 30.9456 70.2527 30.4571Z" fill="#2F1533" fill-opacity="0.5"/>
<path d="M116.881 11.8546C119.538 11.886 122.973 11.7581 125.527 11.8875C125.46 14.7296 125.463 17.745 125.498 20.5982C125.527 22.974 125.01 27.3639 126.828 29.0623C129.349 31.4204 132.378 30.2803 134.632 28.1586C134.736 28.0606 134.838 27.9612 134.939 27.8605C134.904 26.4769 134.895 25.0624 134.912 23.6774C134.957 19.7469 134.842 15.7844 134.934 11.8571C137.767 11.8814 140.8 11.8089 143.601 11.8799L143.598 37.199L134.935 37.204C134.924 36.6823 134.895 36.0729 134.905 35.5588C132.763 37.0998 131.542 37.4702 129.001 38H126.653C125.17 37.6828 123.871 37.4621 122.495 36.7594C116.328 33.6114 116.741 26.971 116.853 21.1603C116.913 18.0713 116.751 14.9227 116.881 11.8546Z" fill="#2F1533" fill-opacity="0.5"/>
<path d="M153.866 28.5441C154.207 29.7569 154.542 30.3309 155.662 31.0241C157.118 31.9259 161.362 32.1405 162.314 30.4893C162.48 30.2026 162.522 29.8626 162.429 29.5457C162.075 28.325 159.595 28.1152 158.517 27.9121C155.245 27.296 151.724 27.1925 149.206 24.7476C147.469 23.06 146.912 20.4283 147.35 18.118C148.654 11.2295 157.948 10.3358 163.604 11.8289C166.711 12.6443 169.532 14.6083 170.415 17.7564C170.621 18.4908 170.742 19.2138 170.858 19.9651L163.158 19.9712C162.958 19.0278 162.738 18.5894 161.805 17.8988C160.345 16.8168 155.231 16.6099 155.538 19.3083C155.698 20.7147 158.937 21.1223 160.014 21.2598C164.228 21.8349 169.758 22.7531 170.863 27.5727C171.314 29.5375 171.011 31.8712 169.92 33.5386C168.038 36.416 164.551 37.4846 161.271 37.8795C161.078 37.9027 160.826 37.9391 160.64 38H157.302C156.592 37.8267 155.876 37.7655 155.16 37.6316C149.872 36.6431 146.74 33.7176 146.196 28.4398C148.701 28.5404 151.329 28.4847 153.866 28.5441Z" fill="#2F1533" fill-opacity="0.5"/>
<path d="M174.377 11.8574C177.211 11.9058 180.159 11.8717 183 11.8815V37.1931C180.151 37.2289 177.234 37.1988 174.379 37.2011C174.307 36.0994 174.35 34.6605 174.35 33.5354L174.349 27.0441C174.348 22.1284 174.234 16.7123 174.377 11.8574Z" fill="#2F1533" fill-opacity="0.5"/>
<path d="M0 9.09838L7.27822 9.08551C10.1309 9.07614 13.3292 8.59748 15.4634 10.8064C16.5932 11.9756 17.1558 13.2634 17.1487 14.883C17.1465 16.4259 16.511 17.9031 15.3854 18.982C14.2384 20.0876 13.0568 20.4908 11.5082 20.7001C10.9603 20.5285 5.38166 20.6638 4.50592 20.6705C3.08694 20.6062 1.4359 20.6478 0 20.6519V9.09838Z" fill="#2F1533" fill-opacity="0.5"/>
<path d="M177.774 0H179.121C181.273 0.55141 182.282 1.37612 183 3.48558V5.5875C182.912 5.91647 182.623 6.60032 182.454 6.89607C181.87 7.93357 180.882 8.69536 179.716 9.00801C178.518 9.34922 177.231 9.20852 176.139 8.61697C175.073 8.02636 174.337 7.03927 174.017 5.88732C173.67 4.64716 173.839 3.32286 174.487 2.20486C175.272 0.864858 176.325 0.383793 177.774 0Z" fill="#2F1533" fill-opacity="0.5"/>
<path d="M121.466 0H122.663L122.681 0.00295661C123.94 0.219437 124.447 0.438745 125.482 1.19968L124.777 2.0279C122.639 0.361171 119.786 0.628403 118.865 3.40201C118.531 4.42432 118.623 5.53442 119.12 6.49096C120.369 8.88394 122.79 8.38111 124.749 7.38138C124.667 6.79356 124.701 5.81892 124.704 5.19747C124.027 5.19069 122.502 5.41572 122.055 5.01631C121.918 4.77138 121.936 4.69887 121.978 4.42476C122.276 4.12704 125.012 4.24498 125.734 4.2202C125.724 5.42192 125.735 6.62371 125.765 7.82512C122.842 10.0805 118.537 9.5795 117.631 5.72307C117.335 4.44668 117.56 3.10741 118.259 1.99183C119.033 0.78308 120.104 0.30895 121.466 0Z" fill="#2F1533" fill-opacity="0.5"/>
<path d="M11.5082 20.7001C10.9603 20.5285 5.38166 20.6638 4.50592 20.6705C5.02064 20.8012 11.3188 20.7901 11.5082 20.7001Z" fill="var(--fill-0, #2F1533)" fill-opacity="0.5"/>
</g>
</svg>
