<svg width="127" height="68" overflow="visible" style="display: block;" viewBox="0 0 127 68" fill="none" xmlns="http://www.w3.org/2000/svg">
<g id="Vector">
<path d="M64.9144 23.1563L73.4433 23.1628C74.9104 23.1632 77.3139 23.1084 78.7224 23.2855C79.3366 23.3633 79.9352 23.5335 80.4976 23.79C83.5878 25.2203 82.6939 29.9827 80.7263 31.9655C79.568 33.1325 78.345 33.3421 76.8739 33.8603C76.6385 33.8639 76.1313 33.8488 75.9672 34.0391C76.1125 34.1648 76.5322 34.1425 76.7401 34.1462C77.4639 34.4173 78.6895 34.3875 79.1919 35.2159C80.1882 36.8569 79.648 39.1381 79.5929 40.9633C79.5585 42.1122 79.5996 43.6798 79.4025 44.7511C80.3678 43.3303 81.3485 41.66 82.2775 40.1881L89.2679 29.0335L91.3996 25.6177C91.8825 24.8434 92.4032 23.9608 92.9662 23.2508C95.3199 23.1765 98.0435 23.2581 100.45 23.2269C101.447 28.1678 102.293 33.1747 103.282 38.1203C103.716 40.2915 104.061 42.7135 104.541 44.8534C103.759 44.732 102.563 44.7612 101.747 44.7615C100.335 44.7574 98.922 44.7678 97.5101 44.793C97.3742 43.7837 96.9242 41.2854 96.9262 40.3829C94.021 40.3866 91.0309 40.4287 88.1324 40.3769C87.7644 41.1047 86.0216 44.2128 85.5944 44.7602C84.4906 44.8328 82.5264 44.7662 81.3183 44.7656L72.7303 44.773C72.6792 43.8225 72.889 42.6155 72.9671 41.6487C73.068 41.0251 73.0619 40.2686 73.1709 39.6585C73.9485 35.3145 71.3056 36.5262 68.2537 36.2469C68.2086 36.8146 67.8649 38.2084 67.7323 38.8318L66.4284 44.8078C65.0266 44.7095 63.4956 44.7997 62.0814 44.7729C61.523 44.7623 60.8394 44.8078 60.3006 44.7396C60.2947 43.8826 60.6619 42.5671 60.8481 41.6873L62.2487 35.2803L63.9739 27.3457C64.2441 26.1036 64.5674 24.3326 64.9144 23.1563ZM74.6017 31.966C75.803 31.0706 75.9651 30.3887 76.2564 28.9816C75.688 27.0783 74.5256 27.2675 72.8056 27.182C71.9897 27.1414 71.1226 27.2094 70.3167 27.1082C70.1001 27.4866 69.3494 31.5835 69.108 32.3961C70.423 32.3917 73.5671 32.5062 74.6017 31.966ZM90.3939 36.4438C90.7181 36.4122 90.9341 36.3904 91.2643 36.4007C92.8229 36.3969 94.8322 36.3418 96.3524 36.4234C96.1412 35.2546 95.6495 27.7928 95.4093 27.539L92.1301 33.4302C91.6135 34.3523 90.9583 35.6026 90.3939 36.4438Z" fill="var(--fill-0, #2F1533)" fill-opacity="0.5"/>
<path d="M43.8692 23.1128C45.4108 22.9902 48.0549 23.1231 49.7181 23.0935C52.0187 23.1449 54.2937 22.973 56.5887 23.1828C60.5896 23.5486 62.3058 26.7903 60.3774 30.2458C59.2633 32.242 57.2432 32.9103 55.1709 33.4475C56.2883 33.7768 57.1376 33.8559 58.1385 34.6161C58.8406 35.1495 59.3633 35.8318 59.4582 36.7176C59.7023 38.9961 59.1856 40.2401 57.8393 41.9936C57.8245 42.0115 57.8096 42.0292 57.7945 42.0468C57.0215 42.9459 55.3589 43.9331 54.1969 44.2168C52.1886 44.7071 50.0067 44.7674 47.9434 44.7683C45.5959 44.7694 43.2475 44.7625 40.8999 44.7636C40.3375 44.7638 39.7838 44.7539 39.223 44.8032C39.5058 43.1597 39.9733 41.2592 40.3219 39.6156L43.2534 26.0237C43.4663 25.06 43.7176 24.0842 43.8692 23.1128ZM46.0756 40.761C47.9561 40.6663 50.0554 41.0118 51.6946 40.2332C53.4923 39.0857 54.2265 36.116 51.4598 35.7129C50.079 35.5118 48.6461 35.644 47.2522 35.6017C47.1178 36.3964 46.337 40.1768 46.0756 40.761ZM47.9636 31.7397C49.449 31.6486 52.1249 31.9156 53.3171 31.3461C54.5797 30.4547 55.2822 28.7956 54.2822 27.4545C52.5494 26.559 50.9364 27.1915 49.0068 26.9448C48.9791 27.8425 48.3626 30.962 47.9636 31.7397Z" fill="var(--fill-0, #2F1533)" fill-opacity="0.5"/>
<path d="M46.9266 11.3092C48.751 11.4124 50.9897 11.3548 52.8455 11.3549L77.1781 11.3538C80.3262 11.378 83.4743 11.3622 86.6217 11.3061C86.2491 12.4968 85.4291 18.0229 85.002 18.7411C84.8237 18.8452 84.5735 18.7853 84.3589 18.7602L49.9721 18.7495C48.3057 18.7502 46.4176 18.7137 44.7676 18.7728C44.8549 18.2494 45.1586 16.9163 45.2869 16.3754C45.5189 15.3975 46.0197 12.1636 46.3408 11.4657C46.5067 11.3206 46.7024 11.3294 46.9266 11.3092Z" fill="var(--fill-0, #2F1533)" fill-opacity="0.5"/>
<path d="M38.2216 49.1406C39.182 49.0496 41.5843 49.1225 42.6819 49.1227L69.0937 49.1241C72.2472 49.111 75.4007 49.1145 78.5542 49.1347C78.0342 51.3525 77.4981 54.2988 77.0864 56.5348C75.3738 56.4497 73.1371 56.5076 71.3895 56.5072L45.4744 56.5073C42.5893 56.5076 39.6169 56.4716 36.7387 56.5248L37.6652 52.0475C37.8475 51.1855 38.1302 49.9987 38.2216 49.1406Z" fill="var(--fill-0, #2F1533)" fill-opacity="0.5"/>
<path d="M41.1811 23.1488L41.3033 23.1644C41.3265 23.2003 41.3497 23.2363 41.3729 23.2722C41.1808 24.381 40.5876 26.3297 40.5756 27.3732L33.9831 27.3753C32.6674 27.3755 31.2181 27.404 29.912 27.3461C29.8236 27.9894 29.12 31.2614 28.9054 31.7589C31.1023 31.6836 33.389 31.7717 35.5932 31.7368C36.6916 31.7195 37.8697 31.7622 38.9592 31.659C38.6947 32.717 38.2414 35.1584 37.9224 36.013C35.7612 35.8669 33.2463 36.0381 31.0597 35.974C30.1156 35.9463 28.9612 36.0407 28.0421 35.8722C27.7288 37.017 27.4423 39.496 26.9777 40.4868C30.5765 40.3965 34.2481 40.5127 37.8792 40.4286L37.7137 41.1227C37.6046 41.9075 37.1198 44.0752 36.8607 44.8314C35.7251 44.6905 32.4743 44.7652 31.202 44.7651L19.945 44.7621C20.3455 43.4288 20.8375 40.7445 21.1484 39.3148L23.688 27.6708C23.8948 26.7604 24.4399 23.8372 24.697 23.1668C26.1482 23.1104 28.076 23.1685 29.5599 23.1699C33.4337 23.1869 37.3074 23.1798 41.1811 23.1488Z" fill="var(--fill-0, #2F1533)" fill-opacity="0.5"/>
<path d="M76.7401 34.1462C76.5322 34.1425 76.1125 34.1648 75.9672 34.0391C76.1313 33.8488 76.6385 33.8639 76.8739 33.8603C76.8369 33.9559 76.8033 34.069 76.7401 34.1462Z" fill="#2F1533" fill-opacity="0.5"/>
<path d="M35.7999 60.5521L60.5667 60.5447C65.645 60.5447 71.0581 60.4434 76.0923 60.5481C75.5959 62.803 75.2239 65.2181 74.6757 67.4707C74.6246 67.6826 74.4887 67.8526 74.3279 68H34.4109C34.3519 67.838 34.3333 67.7078 34.3636 67.5358C34.7698 65.2286 35.4201 62.8552 35.7999 60.5521Z" fill="var(--fill-0, #2F1533)" fill-opacity="0.5"/>
<path d="M48.819 0H89.0245C88.5214 2.35455 88.0296 5.01025 87.589 7.37647C85.7412 7.29546 83.7434 7.32846 81.8835 7.32806L47.2364 7.34008C47.6832 5.29351 48.2431 1.81031 48.819 0Z" fill="var(--fill-0, #2F1533)" fill-opacity="0.5"/>
<path d="M110.495 23.1619C115.915 23.0562 121.539 23.229 127 23.1567V24.2621C126.729 25.0838 126.362 26.5226 126.419 27.3802C123.007 27.2939 119.081 27.52 115.742 27.3436C115.618 27.8846 114.804 31.3658 114.803 31.6925C115.053 31.7518 117.355 31.7509 117.769 31.7357C119.878 31.658 122.715 31.8717 124.755 31.6588C124.397 33.1201 124.106 34.5544 123.764 36.009C121.609 35.8907 119.259 36.0197 117.088 35.9726C116.033 35.9498 114.902 36.0316 113.859 35.872C113.477 37.1259 113.254 39.4166 112.802 40.4963C116.354 40.3575 120.156 40.6025 123.695 40.4173C123.306 41.902 123.127 43.3764 122.674 44.8419C121.833 44.7026 118.329 44.7644 117.32 44.7647L105.772 44.7551C105.871 43.8744 106.206 42.7167 106.397 41.812L109.611 27.1211C109.883 25.8725 110.146 24.3682 110.495 23.1619Z" fill="var(--fill-0, #2F1533)" fill-opacity="0.5"/>
<path d="M12.8971 37.4884C10.4065 35.0163 2.00968 36.3878 2.13934 30.9068C2.18729 28.8799 2.74405 27.4649 4.23573 26.0154C6.56294 23.754 9.83665 23.1206 12.988 23.1163C15.1754 23.1313 18.0259 23.4029 19.6198 25.028C20.3327 25.7549 20.6244 26.9407 20.5976 27.9378C20.5832 28.4745 20.3993 29.3173 20.4155 29.7625C18.4123 29.7643 16.1406 29.7143 14.1591 29.7856C14.2506 29.382 14.3789 28.9473 14.3245 28.5363C13.9179 25.4618 8.06 26.9743 8.63345 29.7669C9.03658 31.0797 11.6256 31.3891 12.6584 31.6943C14.7717 32.3187 18.9642 32.9692 19.3533 35.6361C20.0295 40.2695 16.1645 43.6764 11.821 44.3831C8.49717 44.924 4.76854 45.088 1.78963 43.3424C0.961488 42.8138 0.401496 41.9066 0 41.0337V37.7116C1.93042 37.7043 4.34231 37.767 6.21359 37.679C5.92333 39.4537 6.27139 40.536 8.2916 40.8317C9.46097 41.0029 10.8966 40.8175 11.8487 40.092C12.7744 39.3865 12.9873 38.5721 12.8971 37.4884Z" fill="var(--fill-0, #2F1533)" fill-opacity="0.5"/>
</g>
</svg>
