<svg width="1296" height="595" overflow="visible" style="display: block;" viewBox="0 0 1296 595" fill="none" xmlns="http://www.w3.org/2000/svg">
<path id="Subtract" d="M133.08 79C133.08 96.673 147.407 111 165.08 111H438.9C456.573 111 470.9 96.6731 470.9 79V32C470.9 14.3269 485.227 0 502.9 0H1264C1281.67 0 1296 14.3269 1296 32V454C1296 471.673 1281.67 486 1264 486H1129.4C1111.73 486 1097.4 500.327 1097.4 518V563C1097.4 580.673 1083.08 595 1065.4 595H32C14.3269 595 1.67115e-07 580.673 0 563V32C0 14.3269 14.3269 1.28852e-07 32 0H101.08C118.753 0 133.08 14.3269 133.08 32V79Z" fill="var(--fill-0, white)"/>
</svg>
