<svg preserveAspectRatio="none" width="100%" height="100%" overflow="visible" style="display: block;" viewBox="0 0 1810 362" fill="none" xmlns="http://www.w3.org/2000/svg">
<g id="logo-shape-hero">
<path d="M1404.12 10.9985C1378.02 10.9985 1351.92 10.9985 1325.79 10.9985C1313.24 61.1334 1293.91 138.31 1285.87 170.369C1283.59 179.508 1280.72 188.445 1277.08 197.152C1274.26 203.898 1271.51 209.289 1268.46 214.623C1249.7 247.344 1215.46 271.619 1175.3 281.19V10.9985H1096.97V362H1136.12C1139.2 362 1142.25 361.942 1145.33 361.827C1248.07 358.108 1334.84 285.976 1359.32 188.705L1404.06 10.9697L1404.12 10.9985Z" fill="url(#paint0_linear_0_27)"/>
<path d="M314.36 45.0572C280.578 16.0001 235.138 0 186.47 0C137.803 0 92.3921 16.0001 58.5809 45.0572C20.2635 78.0001 0 124.914 0 180.686C0 268.029 60.7903 362 194.233 362C298.835 362 356.951 308 359.393 305.714L366.283 299.171L330.291 255.971L322.238 262.514C321.744 262.914 273.368 301.514 198.797 301.514C176.702 301.514 157.311 295.857 141.408 285.314C102.393 259.429 94.369 217.543 95.8517 206.029C96.2296 203.029 97.1308 196.057 102.48 192.743C105.039 191.143 107.771 190.914 109.487 190.914H372.97V180.686C372.97 124.914 352.706 78.0001 314.389 45.0572H314.36ZM271.129 129.286C267.873 133.714 262.262 134.6 260.285 134.857H98.5845C99.4276 128.543 104.748 92.8571 136.989 70.9714C171.236 47.7429 214.263 54.7429 240.022 71.2858C263.745 86.5429 271.798 109.286 273.048 117.143C273.455 119.686 274.298 124.971 271.129 129.314V129.286Z" fill="url(#paint1_linear_0_27)"/>
<path d="M992.878 262.514C992.399 262.914 945.441 301.514 873.058 301.514C851.611 301.514 832.789 295.857 817.353 285.314C779.482 259.429 771.694 217.543 773.133 206.029C773.5 203.029 774.374 196.057 779.567 192.743C782.05 191.143 784.703 190.914 786.368 190.914H1042.12V180.686C1042.12 124.914 1022.45 78.0001 985.259 45.0572C952.468 16.0001 908.361 0 861.121 0C813.882 0 769.803 16.0001 736.984 45.0572C699.79 78.0001 680.121 124.914 680.121 180.686C680.121 268.029 739.128 362 868.656 362C970.19 362 1026.6 308 1028.97 305.714L1035.66 299.171L1000.72 255.971L992.907 262.514H992.878ZM813.063 70.9714C846.306 47.7429 888.071 54.7429 913.073 71.2858C936.101 86.5429 943.917 109.286 945.131 117.143C945.526 119.686 946.344 124.971 943.268 129.314C940.108 133.743 934.661 134.629 932.743 134.886H775.785C776.604 128.571 781.768 92.8857 813.063 71V70.9714Z" fill="url(#paint2_linear_0_27)"/>
<path d="M1810 181.314C1810 93.9714 1748.22 0 1612.55 0C1476.87 0 1415.09 94 1415.09 181.314C1415.09 228.629 1432.77 272.771 1464.88 305.629C1500.89 342.514 1551.97 362 1612.55 362C1748.22 362 1810 268.343 1810 181.314ZM1612.55 305.943C1540.61 305.943 1507.81 241 1507.81 180.686C1507.81 120.372 1540.58 56.0571 1612.55 56.0571C1684.51 56.0571 1717.28 120.657 1717.28 180.686C1717.28 240.714 1684.51 305.943 1612.55 305.943Z" fill="url(#paint3_linear_0_27)"/>
<path d="M622.047 290.023L538.529 290.428C521.414 290.776 506.495 283.479 500.302 270.914C498.838 268.018 497.178 263.299 497.178 256.814L496.812 0.14473L427.818 0L428.184 257.393C428.241 314.112 475.728 362 531.857 362L622.047 361.884H647.212V289.965H627.17L622.047 290.023Z" fill="url(#paint4_linear_0_27)"/>
</g>
<defs>
<linearGradient id="paint0_linear_0_27" x1="871" y1="316.5" x2="871" y2="-91.5" gradientUnits="userSpaceOnUse">
<stop stop-color="#2F1533"/>
<stop offset="1" stop-color="#261129"/>
</linearGradient>
<linearGradient id="paint1_linear_0_27" x1="871" y1="316.5" x2="871" y2="-91.5" gradientUnits="userSpaceOnUse">
<stop stop-color="#2F1533"/>
<stop offset="1" stop-color="#261129"/>
</linearGradient>
<linearGradient id="paint2_linear_0_27" x1="871" y1="316.5" x2="871" y2="-91.5" gradientUnits="userSpaceOnUse">
<stop stop-color="#2F1533"/>
<stop offset="1" stop-color="#261129"/>
</linearGradient>
<linearGradient id="paint3_linear_0_27" x1="871" y1="316.5" x2="871" y2="-91.5" gradientUnits="userSpaceOnUse">
<stop stop-color="#2F1533"/>
<stop offset="1" stop-color="#261129"/>
</linearGradient>
<linearGradient id="paint4_linear_0_27" x1="871" y1="316.5" x2="871" y2="-91.5" gradientUnits="userSpaceOnUse">
<stop stop-color="#2F1533"/>
<stop offset="1" stop-color="#261129"/>
</linearGradient>
</defs>
</svg>
