<svg width="311" height="93" overflow="visible" style="display: block;" viewBox="0 0 311 93" fill="none" xmlns="http://www.w3.org/2000/svg">
<g id="Vector">
<path fill-rule="evenodd" clip-rule="evenodd" d="M38.3381 0.0788766C28.4648 -0.00740305 18.2093 -0.0970146 9.06391 0.244947C3.55468 1.64962 0.300682 5.52677 0.179661 11.2961C0.0913298 15.5228 0.0913298 19.7282 0.0913298 23.9492L0.0948074 72.3455C0.0951552 73.2223 0.0728985 74.138 0.0499463 75.0748L0.048903 75.099C-0.101677 81.2077 -0.274515 88.2209 5.65481 91.3186C9.33238 93.2395 16.3578 93.0585 21.6574 92.9218H21.6772L21.6981 92.9211C22.8704 92.8912 23.9575 92.8628 24.9034 92.8607L50.6224 92.8411L71.5026 92.853C74.4906 92.8541 80.2992 93.008 82.9993 92.6478C86.6104 91.7556 90.4977 89.1465 91.4512 85.5606C92.3944 82.0137 92.2921 76.026 92.2125 71.3743C92.1923 70.192 92.1735 69.0958 92.1739 68.1479L92.1697 22.9009C92.1694 22.264 92.1815 21.4636 92.1954 20.5605L92.1965 20.4986C92.2622 16.2503 92.3624 9.77745 91.4053 7.24675C90.2911 4.38567 88.0797 2.09873 85.2712 0.904145C83.0302 -0.0559792 76.685 0.0448558 72.7233 0.107987C71.9269 0.120614 71.2269 0.131662 70.676 0.132363L50.9284 0.153933C46.8996 0.153758 42.6753 0.116931 38.3777 0.0794027L38.3381 0.0788766ZM64.9633 23.4749C65.4686 23.9854 65.3987 30.9403 65.3647 34.3314C65.3573 35.0539 65.3518 35.6145 65.3535 35.9167L42.7132 51.1533L42.5888 51.1673L42.3144 50.9202L42.314 38.725C47.2268 35.2647 52.5566 31.7279 57.7831 28.2597C60.2164 26.6451 62.6274 25.0453 64.9633 23.4749ZM65.3504 52.694V52.684V52.6772C65.3813 49.2183 65.4495 41.6062 65.059 40.8257L50.1115 50.8502C49.4376 51.3041 48.6892 51.797 47.9123 52.3082L47.9029 52.3145C45.9777 53.5823 43.88 54.9638 42.3092 56.1472C42.3081 56.4342 42.3001 56.9295 42.2897 57.5648C42.2326 61.0349 42.1071 68.6826 42.6785 69.4062C44.4607 68.1939 46.307 66.9265 48.187 65.636L48.1912 65.6328L48.1954 65.6302C53.8802 61.728 59.8732 57.6141 65.3403 54.1636C65.3396 53.8934 65.3441 53.3752 65.3504 52.694ZM35.8791 36.9743L35.8874 36.9801L37.0301 37.7706C37.5156 38.1061 37.9816 38.427 38.4215 38.7276L38.4146 69.6071L26.9326 62.1094L26.9399 31.0243C29.5331 32.5811 32.9415 34.9408 35.8791 36.9743Z" fill="var(--fill-0, #2F1533)"/>
<path fill-rule="evenodd" clip-rule="evenodd" d="M65.3504 52.694C65.3542 52.2626 65.3589 51.7659 65.363 51.2252C65.3589 51.7617 65.3542 52.2549 65.3504 52.684V52.694Z" fill="white"/>
<path fill-rule="evenodd" clip-rule="evenodd" d="M273.685 5.87123L266.21 5.86456L266.186 18.1976C261.615 14.7994 256.095 15.0356 252.692 19.8557C248.112 26.3442 248.606 40.7682 257.885 42.8168C261.052 42.9183 262.965 42.8356 265.47 40.4752C265.893 40.0729 266.309 39.6632 266.717 39.2471L267.012 42.0682L273.692 42.0783L273.685 5.87123ZM261.93 21.3032C267.061 21.71 266.654 27.3601 266.32 31.9982C266.253 32.9341 266.189 33.829 266.173 34.6311C264.772 36.3388 264.194 36.9279 262.035 37.4068C258.748 37.2509 257.743 33.9128 257.671 31.1198C257.568 27.2104 257.632 22.7252 261.93 21.3032Z" fill="var(--fill-0, #2F1533)"/>
<path fill-rule="evenodd" clip-rule="evenodd" d="M227.715 50.028L220.214 50.0292L220.231 62.3264C204.49 51.1205 197.151 82.65 211.64 86.9229C214.78 87.14 216.808 87.0372 219.351 84.7936C219.595 84.5776 219.832 84.3552 220.063 84.1265C220.279 83.9126 220.49 83.6934 220.695 83.4689C220.73 83.6962 220.764 83.9368 220.799 84.1837C220.898 84.8736 221.003 85.6101 221.133 86.227L227.72 86.2285L227.715 50.028ZM215.277 65.6425C215.369 65.632 215.46 65.6222 215.552 65.6132C217.693 65.4065 218.507 66.0839 220.01 67.3343L220.152 67.4526C220.299 69.7575 220.264 72.8534 220.233 75.6462L220.232 75.6988C220.22 76.7787 220.209 77.812 220.209 78.7354C219.161 80.2064 218.463 80.7041 216.909 81.4852C210.158 81.9099 211.006 71.4297 213.123 67.3783C213.226 67.181 213.369 66.9935 213.535 66.8162C213.924 66.4027 214.441 66.0436 214.875 65.7418L214.962 65.6814C215.067 65.6674 215.172 65.6544 215.277 65.6425Z" fill="var(--fill-0, #2F1533)"/>
<path fill-rule="evenodd" clip-rule="evenodd" d="M214.962 65.6814C214.905 65.7207 214.847 65.7611 214.788 65.8023C214.817 65.7819 214.847 65.7618 214.875 65.7418L214.962 65.6814ZM220.209 78.7232C220.209 77.7878 220.221 76.7401 220.233 75.6462L220.232 75.6988C220.22 76.7738 220.209 77.8029 220.209 78.7232ZM215.4 65.6288C215.348 65.6344 215.296 65.6402 215.243 65.6464C215.254 65.6451 215.266 65.6437 215.277 65.6425C215.318 65.6378 215.359 65.6332 215.4 65.6288Z" fill="white"/>
<path fill-rule="evenodd" clip-rule="evenodd" d="M175.692 71.745C175.109 64.4411 170.757 60.2514 163.404 60.0573C159.73 60.299 156.775 61.0702 154.27 63.9972C149.773 69.2487 149.94 79.6565 155.3 84.2805C157.908 86.5304 160.729 87.0141 164.006 87.0404C172.636 86.3751 176.356 80.0693 175.692 71.745ZM162.275 65.6551C168.358 65.2913 168.284 71.4785 167.913 76.0275C167.711 78.5061 166.764 80.3085 164.562 81.4806C158.019 81.8833 158.388 74.0241 159.324 69.4599C159.705 67.6048 160.672 66.5365 162.275 65.6551Z" fill="var(--fill-0, #2F1533)"/>
<path fill-rule="evenodd" clip-rule="evenodd" d="M172.501 36.5999C176.978 25.0867 171.974 14.7458 159.108 16.1318C144.098 19.5318 146.464 46.0623 164.81 42.6113C167.9 41.6387 171.284 39.7253 172.501 36.5999ZM160.608 21.5164C162.774 21.3391 164.65 21.8707 165.476 24.0825C166.927 27.9657 167.116 35.2088 162.87 37.2984C156.696 37.7147 156.856 31.0596 157.338 26.5661C157.586 24.2644 158.533 22.566 160.608 21.5164Z" fill="var(--fill-0, #2F1533)"/>
<path d="M190.178 5.86211L197.699 5.89979L197.697 19.3431C200.783 16.3335 205.985 14.2032 209.762 17.6868C212.498 20.2115 211.942 26.1114 211.935 29.7594L211.886 42.0727L204.38 42.063V32.0602C204.35 29.5095 205.648 20.6505 201.436 21.4974C199.86 21.814 198.562 23.4092 197.694 24.707L197.709 42.0742L190.178 42.0705V5.86211Z" fill="var(--fill-0, #2F1533)"/>
<path fill-rule="evenodd" clip-rule="evenodd" d="M236.329 32.3003C236.657 22.2942 236.917 14.374 222.97 16.1571C220.536 16.457 218.783 16.9196 216.462 17.7549C217 19.3926 217.531 21.0828 218.097 22.7061C218.389 22.6291 218.703 22.5427 219.033 22.4517C221.618 21.7395 225.207 20.7506 227.437 21.89C228.465 22.4143 229.549 24.8824 228.797 26.1247C228.162 26.5108 226.39 26.5584 224.992 26.5959C224.414 26.6113 223.9 26.6252 223.558 26.6604C220.236 27.0022 215.49 28.7143 214.824 32.4939C213.983 37.2626 215.572 41.0116 220.238 42.6137C224.243 43.2928 226.887 42.8391 229.874 39.8605C233.904 44.7976 241.444 43.8878 238.268 36.924C238.184 36.7394 237.972 36.7329 237.717 36.7252C237.091 36.706 236.201 36.6787 236.276 33.9993C236.293 33.4274 236.311 32.8606 236.329 32.3003ZM228.497 30.5851C228.57 30.6154 228.626 30.6851 228.848 30.859C229.078 31.8141 229.024 33.3553 228.98 34.5669C228.972 34.8067 228.964 35.0336 228.959 35.2405C227.061 37.4396 226.306 37.5483 223.594 37.3386C222.203 36.14 221.094 33.9137 222.621 32.297C224.255 30.5686 225.913 30.6289 228.118 30.5511C228.351 30.5625 228.431 30.5572 228.497 30.5851Z" fill="var(--fill-0, #2F1533)"/>
<path fill-rule="evenodd" clip-rule="evenodd" d="M228.5 30.5861C228.484 30.5797 228.469 30.5749 228.451 30.5712C228.468 30.5747 228.485 30.5802 228.5 30.5861C228.499 30.5858 228.501 30.5865 228.5 30.5861ZM228.959 35.2405C228.967 34.9275 228.981 34.5685 228.994 34.1885C228.99 34.3174 228.985 34.4438 228.98 34.5669C228.972 34.8067 228.964 35.0336 228.959 35.2405Z" fill="white"/>
<path fill-rule="evenodd" clip-rule="evenodd" d="M306.222 62.6218C304.305 60.5085 300.868 60.1664 298.134 60.052C294.586 60.2713 291.928 60.6653 288.569 61.9232C289.098 63.4627 289.703 65.403 290.29 66.8864C290.513 66.8231 290.764 66.748 291.038 66.6663C294.062 65.7633 299.849 64.0355 300.981 68.0431C301.128 68.5694 301.15 70.0221 301.158 70.5932L300.823 70.5927C296.865 70.5848 291.788 70.5748 288.859 73.5632C285.491 76.9993 286.231 83.0449 290.131 85.7827C294.399 87.9281 298.603 87.4504 302.055 84.029C304.378 87.0699 307.398 87.7983 310.938 86.2716C310.965 84.8795 311.268 82.254 310.235 81.1786C310.111 81.0496 309.635 80.9016 309.324 80.8048C309.166 80.7557 309.05 80.7199 309.045 80.7066C308.209 78.4542 308.322 75.7872 308.436 73.0964C308.597 69.2803 308.76 65.4168 306.222 62.6218ZM300.6 74.7164L301.145 74.7087V79.4211C300.118 80.5119 299.709 80.9082 298.372 81.5641C298.073 81.5739 297.212 81.6142 296.633 81.5704C296.398 81.5525 296.209 81.5209 296.122 81.468C292.668 79.3545 293.959 76.1997 297.022 74.8925C298.23 74.7483 299.398 74.7326 300.6 74.7164Z" fill="var(--fill-0, #2F1533)"/>
<path fill-rule="evenodd" clip-rule="evenodd" d="M296.122 81.468C296.216 81.5255 296.43 81.5578 296.692 81.5746C296.672 81.5732 296.652 81.5718 296.633 81.5704C296.398 81.5525 296.209 81.5209 296.122 81.468Z" fill="white"/>
<path fill-rule="evenodd" clip-rule="evenodd" d="M300.186 31.6394C300.477 21.36 297.703 15.316 286.206 16.1222C278.287 18.0105 275.617 26.3667 277.353 33.5707C279.974 44.4386 291.699 45.0846 299.429 39.3469L296.771 35.8224L296.331 35.3775C295.746 35.5337 295.293 35.7708 294.806 36.0088C294.602 36.1084 294.391 36.2082 294.163 36.3023C288.734 38.5405 285.513 37.4585 284.549 31.6313L300.186 31.6394ZM287.443 21.0414L287.576 21.0208L287.666 21.0084L287.8 20.9917C292.206 20.4542 292.599 23.5373 293.022 27.0194L290.475 27.0567L284.54 27.0625C284.57 26.8412 284.597 26.6287 284.624 26.424L284.627 26.3977C284.939 23.9742 285.108 22.6567 287.443 21.0414Z" fill="var(--fill-0, #2F1533)"/>
<path fill-rule="evenodd" clip-rule="evenodd" d="M284.563 26.8891C284.584 26.7293 284.604 26.5748 284.624 26.424L284.627 26.3977C284.606 26.5566 284.585 26.7202 284.563 26.8891ZM287.666 21.0084L287.8 20.9917C287.726 21.0003 287.651 21.01 287.576 21.0208L287.666 21.0084Z" fill="white"/>
<path d="M193.692 60.0338C198.971 60.3125 200.765 63.7061 200.753 68.6798C200.738 74.528 200.714 80.3816 200.699 86.2297L193.242 86.2227C193.271 80.9926 193.306 75.7437 193.296 70.5141C193.279 69.0165 193.075 66.9351 191.919 65.871C190.073 64.1724 187.493 67.5062 186.535 68.8372C186.365 74.3329 186.52 80.6686 186.52 86.2309L179.036 86.224V60.9069L185.598 60.8983L186.045 63.8578C188.597 61.1868 190.068 60.4248 193.692 60.0338Z" fill="var(--fill-0, #2F1533)"/>
<path d="M277.014 60.0419C285.27 60.445 284.094 68.3339 284.06 74.3112L284.026 86.2363L276.546 86.2288C276.578 81.3803 276.608 76.5344 276.63 71.6824C276.637 70.0801 276.657 66.9882 275.233 65.9118C273.254 64.4174 270.909 67.4141 269.805 68.8483L269.8 86.2298L262.357 86.2266L262.365 60.8967L268.915 60.9135L269.406 63.8093C271.951 61.1693 273.424 60.413 277.014 60.0419Z" fill="var(--fill-0, #2F1533)"/>
<path d="M130.81 8.95818C137.222 9.068 143.875 8.97826 150.306 8.97826L150.309 14.6127L138.538 14.6005L138.546 23.3834L146.907 23.3683C146.926 24.5064 147.107 27.9241 146.701 28.8279L146.151 28.9504L138.533 28.9574L138.579 42.0776L130.793 42.0719L130.81 8.95818Z" fill="var(--fill-0, #2F1533)"/>
<path d="M130.782 53.2036L138.551 53.1954L138.547 80.0324L150.517 80.0327L150.535 86.2345L130.785 86.2308L130.782 53.2036Z" fill="var(--fill-0, #2F1533)"/>
<path d="M177.056 5.87029L184.511 5.8693L184.489 25.1173C184.486 27.1318 184.137 35.3326 185.111 36.6088C186.072 37.0989 187.464 36.9465 188.582 36.9261C188.587 38.0953 188.784 41.3813 188.327 42.1548C183.859 43.5755 178.082 43.221 177.307 37.503C176.825 33.9396 177.034 29.9054 177.037 26.2731L177.056 5.87029Z" fill="var(--fill-0, #2F1533)"/>
<path d="M244.717 60.2532C245.953 60.1808 247.052 59.9344 247.974 60.714C248.803 62.1452 247.679 65.6816 247.362 67.7234C245.349 67.4888 243.19 67.2273 241.793 69.0266C238.811 72.8689 239.817 81.62 239.858 86.2301L232.377 86.2237L232.369 60.9059L238.956 60.8908L239.44 65.6575C240.938 62.6767 241.594 61.5143 244.717 60.2532Z" fill="var(--fill-0, #2F1533)"/>
<path d="M250.168 60.8929L257.676 60.8934L257.684 86.2338L250.15 86.2276L250.168 60.8929Z" fill="var(--fill-0, #2F1533)"/>
<path d="M252.685 50.0607C254.239 49.6132 255.908 50.0644 257.032 51.2348C258.153 52.4049 258.544 54.1036 258.05 55.653C257.553 57.2021 256.253 58.3502 254.662 58.6385C252.37 59.0548 250.158 57.5854 249.629 55.2977C249.103 53.0098 250.445 50.7067 252.685 50.0607Z" fill="var(--fill-0, #2F1533)"/>
</g>
</svg>
