<svg width="297" height="79" overflow="visible" style="display: block;" viewBox="0 0 297 79" fill="none" xmlns="http://www.w3.org/2000/svg">
<g id="Union">
<path fill-rule="evenodd" clip-rule="evenodd" d="M40.1052 0.370602C49.4003 -0.371821 60.7621 -0.636481 68.2051 5.99662C73.1313 10.3415 77.3891 14.473 78.2913 21.0248L78.3679 21.6669L79.3505 21.9001C79.5136 21.848 79.7846 21.8039 80.1377 21.7663C80.4902 21.7288 80.9245 21.6962 81.4152 21.6707C81.9067 21.6453 82.4547 21.6253 83.0337 21.6096C85.9265 21.5312 89.5906 21.5615 90.8291 21.5523C90.6594 24.0232 90.6104 26.9077 90.6012 29.7925C90.5924 32.4574 90.616 35.1227 90.6127 37.4614L90.6012 63.4416C90.9111 63.2292 91.2161 63.0082 91.5186 62.7824C91.878 62.5141 92.2319 62.2364 92.5816 61.9511C93.1616 61.4779 93.7293 60.983 94.2863 60.47C96.5195 58.4133 98.5848 56.0748 100.616 53.7509C101.084 53.216 101.553 52.6849 102.019 52.1552C102.771 51.2989 103.521 50.4525 104.279 49.6346L121.706 31.0022C122.804 29.8093 124.278 28.1621 125.824 26.5228C125.989 26.3481 126.154 26.173 126.32 25.9992C126.486 25.8255 126.654 25.6531 126.82 25.4813C127.073 25.2208 127.327 24.9639 127.579 24.7112C128.217 24.0713 128.848 23.4609 129.454 22.9148C129.511 22.8631 129.567 22.8106 129.624 22.76C129.743 22.6544 129.862 22.5526 129.979 22.4523C130.049 22.3915 130.119 22.3314 130.189 22.2727C130.301 22.179 130.41 22.0873 130.519 21.9994C130.592 21.94 130.667 21.8841 130.739 21.8274C130.858 21.7343 130.975 21.6449 131.09 21.5599C131.246 21.4441 131.397 21.3343 131.545 21.235L133.873 21.3401C135.353 21.3949 136.727 21.4162 138.207 21.4013C138.947 21.3938 139.713 21.3784 140.532 21.3516L143.899 20.9981C143.665 20.98 143.355 20.9665 142.99 20.9541C140.382 20.8654 134.963 20.8782 134.15 20.3865C129.971 19.8897 126.954 18.0283 123.717 16.0275C121.647 14.7491 119.486 13.4152 116.872 12.345L148.912 12.2781L151.172 12.2609L153.501 12.2361H153.524C162.543 12.1319 174.319 11.9962 181.369 13.8738C183.192 14.3602 184.949 15.0386 186.611 15.8938C189.051 17.1483 191.289 18.7823 193.237 20.7439L193.445 20.956L193.625 21.1452C193.817 21.3534 194.001 21.5686 194.179 21.7892L194.547 20.505C194.455 19.3376 194.434 18.1562 194.464 16.9716C194.52 14.839 194.738 12.6955 195.002 10.6041C199.877 10.2429 205.234 10.1865 210.616 10.2238C213.085 10.241 215.56 10.2792 217.996 10.3155L221.177 10.3614C223.062 10.3862 224.91 10.4053 226.701 10.4091C227.81 10.4856 228.912 10.605 230.011 10.7417C230.821 10.842 231.63 10.9509 232.438 11.0608C233.999 11.2729 235.56 11.486 237.132 11.6284C237.646 11.6752 237.973 11.5777 238.197 11.4335C238.402 11.3016 238.521 11.1296 238.619 10.9901C238.714 10.8507 238.787 10.7436 238.902 10.7417C241.304 10.7006 243.778 10.6003 246.293 10.4971C259.94 9.93713 274.796 9.32674 285.73 18.0723C289.563 21.1375 291.838 26.3968 292.087 31.2258C292.639 44.0764 285.416 49.2342 274.449 53.105C276.544 55.3838 278.674 57.6074 280.802 59.8279C284.361 63.5439 287.91 67.2522 291.277 71.1927C293.204 73.4485 295.435 75.4689 297 77.9787C292.273 78.8301 283.28 79.5276 278.714 78.4527C272.049 72.3556 263.495 62.7002 257.68 55.6409C257.475 61.3959 256.517 66.7439 251.737 70.8564C241.934 79.2875 227.454 79.0775 214.907 78.896C213.62 78.8769 212.354 78.8587 211.114 78.8501C210.381 78.8454 209.387 78.7947 208.354 78.6667C207.833 78.6017 207.303 78.5176 206.791 78.4106C205.571 78.1555 204.455 77.7695 203.828 77.2048C203.314 77.2615 202.785 77.3651 202.273 77.4283C202.231 77.4336 202.189 77.4428 202.147 77.4475C202.112 77.4513 202.076 77.4499 202.041 77.4532C201.991 77.458 201.94 77.4611 201.89 77.4647C201.629 77.4832 201.374 77.4875 201.13 77.457C201.113 77.4549 201.096 77.4517 201.08 77.4494C201.03 77.4422 200.98 77.4346 200.93 77.4245C200.907 77.4197 200.883 77.4129 200.86 77.4073C200.813 77.3962 200.766 77.3851 200.72 77.371C200.704 77.3661 200.688 77.361 200.672 77.3557C200.556 77.3172 200.442 77.271 200.333 77.2105C197.525 76.8168 192.878 77.1637 189.461 76.8321C185.365 74.2208 181.539 69.7192 178.121 65.6947C177.301 64.7307 176.506 63.7941 175.736 62.918C169.81 56.1779 165.167 54.5497 165.14 45.0367C165.692 45.0434 166.244 45.0424 166.795 45.031L167.238 45.0214L167.709 45.0042C195.579 44.1108 192.543 19.0785 163.911 20.3999C163.051 20.5757 162.189 20.7353 161.325 20.8796L161.147 21.1452C161.099 21.2127 161.06 21.2668 161.028 21.3249C161.008 21.3622 160.994 21.4018 160.978 21.4452C160.95 21.5249 160.923 21.6202 160.902 21.7587C157.577 24.8925 154.987 27.8435 152.231 30.985C151.141 32.2272 150.025 33.4999 148.826 34.8242C146.705 37.1699 144.154 39.6937 141.722 42.1014C140.8 43.012 139.896 43.9073 139.038 44.7691L160.915 45.008C160.672 47.2751 160.643 49.5594 160.833 51.8323C156.46 51.9651 151.972 51.9297 147.508 51.8934C142.537 51.8533 137.594 51.8131 132.865 52.0062C128.913 55.0156 119.009 66.0656 115.761 70.048C121.973 69.9534 128.343 69.9764 134.727 69.9983C143.43 70.0289 152.158 70.0585 160.538 69.7939L160.662 76.9506L112.777 77.0251L111.157 77.0309C106.71 77.0547 96.0613 77.1129 94.9318 76.7595C99.8465 71.4488 104.966 66.2518 110.095 61.0472C113.976 57.1086 117.862 53.1652 121.668 49.1626L136.299 33.7961C139.371 30.5363 141.984 27.524 145.1 24.4666L146.47 23.1537L146.033 22.5804C145.983 22.5219 145.937 22.4742 145.891 22.4332C145.887 22.4293 145.882 22.4256 145.878 22.4218C145.862 22.408 145.846 22.3957 145.83 22.3836C145.576 22.1887 145.299 22.1833 144.395 21.8848C140.782 25.1915 137.346 29.0325 134.066 32.6992L133.94 32.8387C133.653 33.159 133.363 33.4766 133.076 33.7961C132.532 34.4001 131.988 35.0025 131.442 35.6039C131.289 35.7724 131.137 35.942 130.984 36.1104C130.294 36.8687 129.603 37.6258 128.91 38.3806C128.719 38.5887 128.527 38.7958 128.335 39.0036C127.768 39.6192 127.201 40.2342 126.633 40.8478C126.245 41.266 125.857 41.6839 125.468 42.1014C125.134 42.4597 124.8 42.8176 124.466 43.1754C123.536 44.1711 122.602 45.1626 121.668 46.1546C120.84 47.0344 120.012 47.9143 119.182 48.7918C118.12 49.9139 117.058 51.0354 115.995 52.1552C114.684 53.5355 113.374 54.9171 112.063 56.2964C106.868 61.758 101.677 67.2229 96.5828 72.7769C96.511 72.8551 96.4362 72.9303 96.3625 73.0063C96.1541 73.2211 95.9392 73.428 95.7209 73.6293C95.4686 73.8619 95.2136 74.0884 94.9605 74.3115C94.3935 74.8103 93.84 75.2976 93.3708 75.8269C91.7983 76.4853 90.492 76.4174 88.8008 76.469C87.9599 77.0805 80.3522 76.812 78.8046 76.7996C78.9176 71.4966 78.9521 66.162 78.9425 60.8236C78.9402 59.3147 78.9317 57.8055 78.9234 56.2964C78.9079 53.5658 78.8858 50.8358 78.8582 48.1096C78.8267 44.9508 78.7922 41.7971 78.7586 38.6539C78.751 38.057 78.2836 37.342 77.9159 36.8862C76.6154 45.8945 73.1579 51.9692 67.755 59.3674C55.2211 76.5349 26.7629 83.1517 9.15714 70.0824C-6.00852 58.8256 -0.024998 30.0142 10.4462 17.3251C17.644 8.60348 28.4678 1.36622 40.1052 0.370602ZM197.414 40.3108C191.553 47.993 188.226 49.9566 178.722 51.4825C182.417 56.0305 186.585 60.3517 190.63 64.7106C192.246 66.4515 193.844 68.2001 195.384 69.9697C195.523 69.9735 195.644 69.9792 195.751 69.9869L195.945 70.0022C196.07 70.0124 196.173 70.0195 196.261 70.0232C196.442 70.0292 196.568 70.0082 196.717 69.9257C196.733 69.9165 196.751 69.908 196.768 69.897C196.802 69.876 196.836 69.8505 196.874 69.8225C196.957 69.7602 197.056 69.6845 197.173 69.5817L196.983 68.8116C196.823 68.2155 196.776 68.0232 197.061 67.214C198.812 66.1696 202.647 66.5939 204.725 66.5222C207.234 66.4343 209.967 66.4802 212.788 66.526H212.817C220.17 66.6464 228.121 66.7754 234.298 64.6207C241.557 62.0876 240.48 51.6699 231.62 50.399C223.658 49.2562 215.972 49.3575 208.119 49.4607C205.613 49.4941 203.093 49.5285 200.542 49.5218C196.207 49.4645 196.952 43.8166 197.37 40.6433L197.414 40.3108ZM59.9289 13.2795C54.9511 9.29053 48.7642 8.55264 42.4572 9.04086C26.2212 11.4009 15.9089 21.8843 12.9246 37.8799C12.057 42.5333 10.9901 46.6467 11.8865 51.4118C14.4761 65.1806 24.7404 68.716 36.9142 67.7204C45.8223 66.4868 51.287 63.7149 57.1211 56.5314C65.7475 45.9117 72.5642 23.3991 59.9289 13.2795ZM251.068 21.9058C254.351 29.9024 252.681 37.0563 245.272 41.851C249.4 44.1767 250.77 45.4266 254.23 48.7211C254.29 41.1191 257.243 43.3904 263.606 42.3039L263.721 42.2829C264.405 42.1549 265.039 42.0364 265.657 41.9026C266.728 41.6724 267.751 41.3981 268.902 40.9548C275.889 38.264 279.369 30.9859 272.087 26.1674C267.584 23.1871 263.131 22.9483 258.506 22.6989C256.085 22.5689 253.616 22.4351 251.068 21.9058ZM199.249 23.3773C197.834 23.292 196.449 23.2529 195.916 23.4403C198.72 27.1448 199.212 32.7145 198.576 37.2187L198.519 37.5799C206.533 37.5857 228.992 39.0524 234.389 33.819C234.531 33.6815 234.667 33.539 234.796 33.3929C234.912 33.2573 235.024 33.1176 235.127 32.9744C235.187 32.8899 235.244 32.8037 235.299 32.7164L235.303 32.7088C235.355 32.6256 235.406 32.5404 235.452 32.4546C235.47 32.4227 235.484 32.3894 235.5 32.3571C235.488 32.381 235.478 32.4061 235.466 32.4297C235.485 32.3935 235.501 32.3556 235.52 32.3189C235.513 32.3317 235.507 32.3444 235.5 32.3571C235.534 32.2915 235.566 32.2255 235.596 32.1584C235.592 32.1672 235.589 32.1763 235.585 32.1851C235.603 32.1459 235.62 32.1064 235.636 32.0667C235.631 32.0795 235.625 32.092 235.619 32.1049C235.702 31.9117 235.774 31.7133 235.826 31.5067C235.906 31.1875 235.947 30.8523 235.941 30.4996C235.906 28.7558 234.956 26.7435 233.763 25.4985C233.016 25.1047 232.434 24.8203 231.909 24.5965C231.932 24.6062 231.955 24.6152 231.978 24.6252C231.924 24.6019 231.872 24.5783 231.819 24.5564C231.797 24.5471 231.774 24.5387 231.752 24.5296C231.804 24.551 231.856 24.5739 231.909 24.5965C231.766 24.5355 231.628 24.4768 231.492 24.4245C231.42 24.3972 231.348 24.3734 231.277 24.3481C231.285 24.3508 231.292 24.353 231.3 24.3557C231.158 24.3046 231.017 24.2566 230.875 24.2124C230.867 24.2098 230.858 24.2073 230.85 24.2047C230.77 24.1802 230.69 24.1569 230.609 24.134C230.318 24.052 230.015 23.9776 229.678 23.9066C229.6 23.8903 229.52 23.8751 229.438 23.8589C229.474 23.8659 229.509 23.8709 229.544 23.878C229.527 23.8745 229.509 23.8719 229.492 23.8684C229.098 23.7889 228.657 23.7098 228.14 23.62C228.038 23.6339 227.867 23.6439 227.644 23.6506C226.973 23.6706 225.827 23.6609 224.658 23.6448C223.099 23.6235 221.499 23.5896 220.93 23.5932C219.518 23.5992 218.107 23.609 216.696 23.6181L212.955 23.6391C212.148 23.6427 211.342 23.6416 210.536 23.6429C210.099 23.6437 209.661 23.645 209.224 23.6448C208.982 23.6447 208.74 23.6472 208.498 23.6467C208.071 23.6461 207.644 23.6409 207.217 23.6391C206.739 23.6369 206.261 23.6353 205.784 23.6314C204.745 23.6232 203.706 23.6135 202.668 23.5951C202.505 23.5923 202.306 23.5827 202.08 23.5703L202.034 23.5665C201.988 23.5638 201.942 23.5599 201.894 23.5569L201.779 23.5512L201.58 23.5359C200.899 23.4896 200.069 23.4267 199.249 23.3773ZM148.797 21.8752C148.771 21.8847 148.746 21.8956 148.72 21.9058C148.655 21.9316 148.587 21.958 148.519 21.988C148.615 21.9459 148.707 21.9089 148.797 21.8752L149.182 21.7587C149.037 21.7968 148.907 21.8338 148.797 21.8752Z" fill="var(--fill-0, #2F1533)"/>
<path d="M94.0584 75.9894L94.0545 75.9855C94.2037 76.0193 94.2911 76.0443 94.3648 76.0906C94.5008 76.1766 94.5908 76.3352 94.9337 76.7576L94.0622 75.9913L94.0584 75.9894Z" fill="var(--fill-0, #2F1533)"/>
</g>
</svg>
