<?xml version="1.0" encoding="UTF-8"?>
<svg id="Camada_1" data-name="Camada 1" xmlns="http://www.w3.org/2000/svg" viewBox="0 0 1080 1080">
  <path d="M710.37,481.6c-8.82,0-17.64,0-26.47,0-4.24,17.39-10.77,44.16-13.49,55.28-.77,3.17-1.74,6.27-2.97,9.29-.95,2.34-1.88,4.21-2.91,6.06-6.34,11.35-17.91,19.77-31.48,23.09v-93.72h-26.47v121.75h13.23c1.04,0,2.07-.02,3.11-.06,34.72-1.29,64.04-26.31,72.31-60.05l15.12-61.65Z"/>
  <path d="M335.53,492.42c-11.62-10.17-27.25-15.77-43.99-15.77s-32.36,5.6-43.99,15.77c-13.18,11.53-20.15,27.95-20.15,47.47,0,30.57,20.91,63.46,66.81,63.46,35.98,0,55.97-18.9,56.81-19.7l2.37-2.29-12.38-15.12-2.77,2.29c-.17.14-16.81,13.65-42.46,13.65-7.6,0-14.27-1.98-19.74-5.67-13.42-9.06-16.18-23.72-15.67-27.75.13-1.05.44-3.49,2.28-4.65.88-.56,1.82-.64,2.41-.64h90.63v-3.58c0-19.52-6.97-35.94-20.15-47.47ZM320.66,521.9c-1.12,1.55-3.05,1.86-3.73,1.95h-55.62c.29-2.21,2.12-14.7,13.21-22.36,11.78-8.13,26.58-5.68,35.44.11,8.16,5.34,10.93,13.3,11.36,16.05.14.89.43,2.74-.66,4.26Z"/>
  <path d="M571.27,568.53c-.17.14-16.81,13.65-42.46,13.65-7.6,0-14.27-1.98-19.74-5.67-13.42-9.06-16.18-23.72-15.67-27.75.13-1.05.44-3.49,2.28-4.65.88-.56,1.82-.64,2.41-.64h90.63v-3.58c0-19.52-6.97-35.94-20.15-47.47-11.62-10.17-27.25-15.77-43.99-15.77s-32.36,5.6-43.99,15.77c-13.18,11.53-20.15,27.95-20.15,47.47,0,30.57,20.91,63.46,66.81,63.46,35.98,0,55.97-18.9,56.81-19.7l2.37-2.29-12.38-15.12-2.77,2.29ZM507.55,501.49c11.78-8.13,26.58-5.68,35.44.11,8.16,5.34,10.93,13.3,11.36,16.05.14.89.43,2.74-.66,4.26-1.12,1.55-3.05,1.86-3.73,1.95h-55.62c.29-2.21,2.12-14.7,13.21-22.36Z"/>
  <path d="M852.59,540.11c0-30.57-21.53-63.46-68.81-63.46s-68.81,32.9-68.81,63.46c0,16.56,6.16,32.01,17.35,43.51,12.55,12.91,30.35,19.73,51.46,19.73,47.28,0,68.81-32.78,68.81-63.24ZM783.78,583.73c-25.07,0-36.5-22.73-36.5-43.84s11.42-43.62,36.5-43.62,36.5,22.61,36.5,43.62-11.42,43.84-36.5,43.84Z"/>
  <path d="M442.55,578.49l-29.67.14c-6.08.12-11.38-2.4-13.58-6.74-.52-1-1.11-2.63-1.11-4.87l-.13-88.65-24.51-.05.13,88.9c.02,19.59,16.89,36.13,36.83,36.13l32.04-.04h8.94v-24.84h-7.12l-1.82.02Z"/>
</svg>