<?xml version="1.0" encoding="UTF-8"?>
<svg id="Camada_1" data-name="Camada 1" xmlns="http://www.w3.org/2000/svg" viewBox="0 0 1080 1080">
  <path d="M710.37,452.45c-8.82,0-17.64,0-26.47,0-4.24,17.39-10.77,44.16-13.49,55.28-.77,3.17-1.74,6.27-2.97,9.29-.95,2.34-1.88,4.21-2.91,6.06-6.34,11.35-17.91,19.77-31.48,23.09v-93.72h-26.47v121.75h13.23c1.04,0,2.07-.02,3.11-.06,34.72-1.29,64.04-26.31,72.31-60.05l15.12-61.65Z"/>
  <path d="M335.53,463.27c-11.62-10.17-27.25-15.77-43.99-15.77s-32.36,5.6-43.99,15.77c-13.18,11.53-20.15,27.95-20.15,47.47,0,30.57,20.91,63.46,66.81,63.46,35.98,0,55.97-18.9,56.81-19.7l2.37-2.29-12.38-15.12-2.77,2.29c-.17.14-16.81,13.65-42.46,13.65-7.6,0-14.27-1.98-19.74-5.67-13.42-9.06-16.18-23.72-15.67-27.75.13-1.05.44-3.49,2.28-4.65.88-.56,1.82-.64,2.41-.64h90.63v-3.58c0-19.52-6.97-35.94-20.15-47.47ZM320.66,492.75c-1.12,1.55-3.05,1.86-3.73,1.95h-55.62c.29-2.21,2.12-14.7,13.21-22.36,11.78-8.13,26.58-5.68,35.44.11,8.16,5.34,10.93,13.3,11.36,16.05.14.89.43,2.74-.66,4.26Z"/>
  <path d="M571.27,539.38c-.17.14-16.81,13.65-42.46,13.65-7.6,0-14.27-1.98-19.74-5.67-13.42-9.06-16.18-23.72-15.67-27.75.13-1.05.44-3.49,2.28-4.65.88-.56,1.82-.64,2.41-.64h90.63v-3.58c0-19.52-6.97-35.94-20.15-47.47-11.62-10.17-27.25-15.77-43.99-15.77s-32.36,5.6-43.99,15.77c-13.18,11.53-20.15,27.95-20.15,47.47,0,30.57,20.91,63.46,66.81,63.46,35.98,0,55.97-18.9,56.81-19.7l2.37-2.29-12.38-15.12-2.77,2.29ZM507.55,472.34c11.78-8.13,26.58-5.68,35.44.11,8.16,5.34,10.93,13.3,11.36,16.05.14.89.43,2.74-.66,4.26-1.12,1.55-3.05,1.86-3.73,1.95h-55.62c.29-2.21,2.12-14.7,13.21-22.36Z"/>
  <path d="M852.59,510.96c0-30.57-21.53-63.46-68.81-63.46s-68.81,32.9-68.81,63.46c0,16.56,6.16,32.01,17.35,43.51,12.55,12.91,30.35,19.73,51.46,19.73,47.28,0,68.81-32.78,68.81-63.24ZM783.78,554.58c-25.07,0-36.5-22.73-36.5-43.84s11.42-43.62,36.5-43.62,36.5,22.61,36.5,43.62-11.42,43.84-36.5,43.84Z"/>
  <path d="M442.55,549.34l-29.67.14c-6.08.12-11.38-2.4-13.58-6.74-.52-1-1.11-2.63-1.11-4.87l-.13-88.65-24.51-.05.13,88.9c.02,19.59,16.89,36.13,36.83,36.13l32.04-.04h8.94v-24.84h-7.12l-1.82.02Z"/>
  <polygon points="242.41 625.88 256.75 625.88 256.75 622.69 246 622.69 246 616.43 255.91 616.43 255.91 613.21 246 613.21 246 607.49 256.75 607.49 256.75 604.3 242.41 604.3 242.41 625.88"/>
  <path d="M269.55,617.63c-.57-.34-1.18-.61-1.84-.82-.66-.21-1.3-.38-1.92-.53-.66-.17-1.21-.33-1.64-.5-.43-.17-.75-.35-.96-.56-.21-.21-.31-.47-.31-.8,0-.43.22-.78.67-1.05.44-.27,1-.4,1.66-.4.72,0,1.39.15,2.01.46.62.31,1.13.77,1.55,1.39l2.14-1.64c-.56-.95-1.33-1.66-2.32-2.14-.99-.47-2.08-.71-3.28-.71-1.67,0-3.02.4-4.06,1.21-1.03.8-1.55,1.88-1.55,3.22,0,.76.15,1.4.46,1.92.31.52.72.94,1.22,1.27.51.33,1.06.6,1.66.82.6.22,1.19.4,1.76.54.6.14,1.15.31,1.64.5.5.19.9.41,1.21.67s.46.61.46,1.07c0,.52-.24.95-.73,1.3-.49.35-1.14.53-1.97.53-.99,0-1.83-.25-2.52-.74-.69-.5-1.23-1.06-1.63-1.7l-2.35,2.04c.37.5.85.99,1.42,1.49.58.5,1.29.9,2.14,1.22.85.32,1.82.48,2.91.48,1.22,0,2.29-.21,3.2-.62.92-.41,1.63-1,2.14-1.75.51-.75.76-1.63.76-2.62,0-.89-.18-1.61-.54-2.18-.36-.57-.83-1.02-1.39-1.36Z"/>
  <path d="M279.44,604.98l-3.47,1.92v3.72h-2.91v2.66h2.91v8.33c0,1.09.2,1.98.59,2.65.39.67.92,1.16,1.59,1.46.67.3,1.39.45,2.15.45.43,0,.86-.04,1.28-.11.42-.07.84-.18,1.25-.33v-2.66c-.31.08-.6.15-.88.2-.28.05-.52.08-.73.08-.68,0-1.15-.23-1.41-.7-.26-.46-.39-1.13-.39-2v-7.37h3.41v-2.66h-3.41v-5.63Z"/>
  <polygon points="298.26 604.3 294.55 604.3 291.14 608.69 293.65 608.69 298.26 604.3"/>
  <path d="M295.73,617.18c0,1.26-.11,2.34-.33,3.24-.22.9-.58,1.58-1.08,2.04-.51.46-1.2.7-2.09.7-.76,0-1.37-.15-1.81-.46-.44-.31-.76-.76-.96-1.35-.2-.59-.29-1.28-.29-2.09v-8.64h-3.44v9.57c0,1.26.21,2.33.62,3.22.41.89,1.03,1.57,1.84,2.04.81.48,1.82.71,3.02.71,1.14,0,2.15-.27,3.05-.8.58-.35,1.07-.84,1.47-1.45v1.98h3.44v-15.26h-3.44v6.56Z"/>
  <path d="M313.68,612.79c-.08-.14-.17-.27-.26-.4-.51-.67-1.13-1.18-1.86-1.53-.73-.35-1.53-.53-2.4-.53-1.24,0-2.36.32-3.38.94-1.01.63-1.81,1.53-2.4,2.71-.59,1.18-.88,2.59-.88,4.24,0,1.51.27,2.86.8,4.06.54,1.2,1.31,2.14,2.31,2.83,1,.69,2.18,1.04,3.55,1.04.83,0,1.6-.17,2.32-.5.72-.33,1.36-.84,1.9-1.53.1-.13.2-.28.29-.43v2.18h3.44v-21.58h-3.44v8.49ZM313.5,620.74c-.33.72-.8,1.28-1.39,1.67-.6.39-1.3.59-2.11.59s-1.51-.2-2.12-.59c-.61-.39-1.08-.95-1.42-1.67-.34-.72-.51-1.56-.51-2.51s.17-1.78.51-2.51c.34-.72.82-1.28,1.42-1.67.61-.39,1.32-.59,2.12-.59s1.51.2,2.11.6c.6.4,1.06.96,1.39,1.67.33.71.5,1.54.5,2.49s-.17,1.79-.5,2.51Z"/>
  <rect x="321.11" y="610.61" width="3.44" height="15.26"/>
  <rect x="320.96" y="604.3" width="3.75" height="3.81"/>
  <path d="M339.33,611.34c-1.13-.67-2.43-1.01-3.92-1.01s-2.77.34-3.92,1.01c-1.15.67-2.04,1.61-2.69,2.8-.65,1.2-.98,2.56-.98,4.09s.33,2.89.98,4.09c.65,1.2,1.55,2.14,2.71,2.82,1.16.68,2.46,1.02,3.9,1.02s2.77-.34,3.92-1.02c1.15-.68,2.04-1.62,2.69-2.82.65-1.2.98-2.56.98-4.09s-.33-2.89-.99-4.09c-.66-1.2-1.55-2.13-2.68-2.8ZM339.07,620.83c-.33.74-.8,1.31-1.42,1.7-.62.39-1.35.59-2.2.59-.89,0-1.64-.2-2.26-.59-.62-.39-1.09-.96-1.42-1.7-.33-.74-.5-1.61-.5-2.6s.16-1.88.5-2.6c.33-.72.8-1.28,1.42-1.69.62-.4,1.37-.6,2.26-.6s1.58.2,2.2.59c.62.39,1.09.95,1.42,1.69.33.73.5,1.61.5,2.62s-.17,1.86-.5,2.6Z"/>
  <path d="M409.87,612.79c-.08-.14-.17-.27-.26-.4-.51-.67-1.13-1.18-1.86-1.53-.73-.35-1.53-.53-2.4-.53-1.24,0-2.36.32-3.37.94-1.01.63-1.81,1.53-2.4,2.71-.59,1.18-.88,2.59-.88,4.24,0,1.51.27,2.86.8,4.06.54,1.2,1.31,2.14,2.31,2.83,1,.69,2.18,1.04,3.55,1.04.83,0,1.6-.17,2.32-.5.72-.33,1.36-.84,1.9-1.53.1-.13.2-.28.29-.43v2.18h3.44v-21.58h-3.44v8.49ZM409.69,620.74c-.33.72-.8,1.28-1.39,1.67-.6.39-1.3.59-2.11.59s-1.51-.2-2.12-.59c-.61-.39-1.08-.95-1.42-1.67-.34-.72-.51-1.56-.51-2.51s.17-1.78.51-2.51c.34-.72.82-1.28,1.42-1.67.61-.39,1.32-.59,2.12-.59s1.51.2,2.11.6c.6.4,1.06.96,1.39,1.67.33.71.5,1.54.5,2.49s-.17,1.79-.5,2.51Z"/>
  <path d="M429.04,612.61c-.58-.71-1.31-1.27-2.18-1.67-.88-.4-1.9-.6-3.08-.6-1.24,0-2.31.22-3.22.67-.91.44-1.65,1.05-2.23,1.81-.58.76-1.01,1.63-1.28,2.59s-.42,1.95-.42,2.96.14,1.99.43,2.93c.29.94.73,1.78,1.33,2.52.6.74,1.37,1.32,2.31,1.73.94.41,2.05.62,3.33.62.87,0,1.65-.08,2.34-.25.69-.17,1.36-.42,2-.77.64-.35,1.28-.82,1.92-1.39l-1.89-2.29c-.58.58-1.22,1-1.92,1.27-.7.27-1.48.4-2.32.4-1.16,0-2.11-.32-2.85-.96-.74-.64-1.16-1.57-1.24-2.79h10.59c.04-.27.07-.54.08-.8.01-.27.02-.48.02-.62,0-1.03-.14-2-.42-2.91-.28-.91-.71-1.72-1.28-2.43ZM427.45,616.84h-7.46c.06-.64.24-1.23.54-1.78.3-.55.72-1,1.27-1.35.55-.35,1.22-.53,2.03-.53.58,0,1.09.1,1.55.29.45.2.84.45,1.15.77s.54.69.7,1.1c.15.41.23.85.23,1.3,0,.06,0,.12,0,.19Z"/>
  <rect x="496.12" y="604.3" width="3.59" height="21.58"/>
  <path d="M511.91,610.33c-.76,0-1.49.14-2.18.4-.69.27-1.3.68-1.81,1.24-.21.22-.39.48-.56.76v-2.12h-3.44v15.26h3.44v-7.43c0-1.18.13-2.15.4-2.91.27-.76.67-1.33,1.19-1.69.53-.36,1.17-.54,1.93-.54,1.03,0,1.8.32,2.29.96.5.64.74,1.64.74,3v8.61h3.44v-9.88c0-1.82-.48-3.21-1.44-4.2-.96-.98-2.3-1.47-4.01-1.47Z"/>
  <path d="M532.01,611.34c-1.13-.67-2.43-1.01-3.92-1.01s-2.77.34-3.92,1.01c-1.15.67-2.04,1.61-2.69,2.8-.65,1.2-.98,2.56-.98,4.09s.33,2.89.98,4.09c.65,1.2,1.55,2.14,2.71,2.82,1.16.68,2.46,1.02,3.9,1.02s2.77-.34,3.92-1.02c1.15-.68,2.04-1.62,2.69-2.82.65-1.2.98-2.56.98-4.09s-.33-2.89-.99-4.09c-.66-1.2-1.55-2.13-2.68-2.8ZM531.75,620.83c-.33.74-.8,1.31-1.42,1.7-.62.39-1.35.59-2.2.59-.89,0-1.64-.2-2.26-.59-.62-.39-1.09-.96-1.42-1.7-.33-.74-.5-1.61-.5-2.6s.16-1.88.5-2.6c.33-.72.8-1.28,1.42-1.69.62-.4,1.37-.6,2.26-.6s1.58.2,2.2.59c.62.39,1.09.95,1.42,1.69.33.73.5,1.61.5,2.62s-.17,1.86-.5,2.6Z"/>
  <polygon points="544.69 621.42 540.82 610.61 537.04 610.61 543.27 625.88 546.12 625.88 552.34 610.61 548.62 610.61 544.69 621.42"/>
  <path d="M561.19,610.33c-1.32,0-2.54.2-3.65.6-1.11.4-2.17,1.07-3.16,2l1.92,2.26c.66-.66,1.39-1.15,2.18-1.47.79-.32,1.6-.48,2.43-.48,1.07,0,1.91.25,2.51.76.6.51.9,1.25.9,2.24v.43h-4.52c-.72,0-1.41.07-2.07.2-.66.13-1.24.36-1.73.67-.58.35-1.05.84-1.41,1.46-.36.62-.54,1.35-.54,2.2,0,.99.24,1.86.73,2.6.48.74,1.17,1.32,2.04,1.73.88.41,1.88.62,3.02.62.89,0,1.7-.18,2.45-.54.74-.36,1.38-.91,1.92-1.64.06-.08.11-.17.16-.25l.21,2.16h3.16v-9.63c0-1.86-.57-3.31-1.72-4.35-1.15-1.04-2.75-1.56-4.81-1.56ZM564.32,619.56c0,.72-.19,1.37-.56,1.95-.37.58-.86,1.03-1.47,1.36-.61.33-1.28.5-2.03.5-.85,0-1.52-.19-2.03-.57-.51-.38-.76-.9-.76-1.56,0-.33.07-.62.2-.87.13-.25.3-.45.51-.62.29-.19.62-.31.99-.39.37-.07.74-.11,1.11-.11h4.03v.31Z"/>
  <path d="M575.95,614.02c.57-.47,1.31-.71,2.21-.71s1.64.24,2.2.73c.56.49.96,1.12,1.21,1.9l3.03-1.18c-.54-1.51-1.37-2.62-2.49-3.34-1.13-.72-2.44-1.08-3.95-1.08-1.2,0-2.26.21-3.17.63-.92.42-1.68,1.01-2.29,1.75-.61.74-1.07,1.59-1.38,2.54-.31.95-.46,1.94-.46,2.97s.15,2.02.46,2.97c.31.95.77,1.8,1.38,2.55.61.75,1.37,1.34,2.29,1.77.68.31,1.43.51,2.26.59l-1.53,2.12c.37,0,.75.02,1.15.06.39.04.76.1,1.1.19.34.08.61.21.82.37.21.16.31.39.31.68,0,.33-.14.58-.42.74-.28.17-.59.25-.94.25-.31,0-.62-.05-.94-.15-.32-.1-.62-.25-.91-.43l-.93,1.39c.25.21.54.38.88.51.34.13.69.23,1.05.28.36.05.68.08.94.08.93,0,1.71-.24,2.34-.73.63-.49.94-1.14.94-1.97,0-.7-.28-1.24-.84-1.63-.56-.38-1.26-.65-2.11-.79l.8-.98c1.17-.11,2.23-.45,3.15-1.05,1.12-.73,1.96-1.84,2.49-3.33l-3.03-1.18c-.25.78-.65,1.41-1.21,1.89-.56.48-1.29.71-2.2.71s-1.65-.23-2.21-.7c-.57-.46-.99-1.07-1.25-1.83-.27-.75-.4-1.55-.4-2.4s.13-1.64.4-2.38c.27-.74.69-1.35,1.25-1.83Z"/>
  <path d="M591.33,606.88c.2-.36.45-.54.76-.54s.59.11.84.34c.25.23.5.48.76.77.26.29.58.55.98.77.39.23.89.34,1.49.34.97,0,1.73-.37,2.29-1.11.56-.74.84-1.8.84-3.16h-2.07c0,.68-.1,1.21-.29,1.59-.2.38-.44.57-.73.57s-.56-.11-.8-.34c-.25-.23-.51-.49-.79-.79-.28-.3-.6-.56-.98-.79-.37-.23-.82-.34-1.33-.34-.99,0-1.78.37-2.35,1.11-.58.74-.87,1.79-.87,3.13h1.98c0-.68.1-1.2.29-1.56Z"/>
  <path d="M594.17,610.33c-1.32,0-2.54.2-3.65.6-1.11.4-2.17,1.07-3.16,2l1.92,2.26c.66-.66,1.39-1.15,2.18-1.47.79-.32,1.6-.48,2.43-.48,1.07,0,1.91.25,2.51.76.6.51.9,1.25.9,2.24v.43h-4.52c-.72,0-1.41.07-2.07.2-.66.13-1.24.36-1.73.67-.58.35-1.05.84-1.41,1.46-.36.62-.54,1.35-.54,2.2,0,.99.24,1.86.73,2.6.48.74,1.17,1.32,2.04,1.73.88.41,1.88.62,3.02.62.89,0,1.7-.18,2.45-.54.74-.36,1.38-.91,1.92-1.64.06-.08.11-.17.16-.25l.21,2.16h3.16v-9.63c0-1.86-.57-3.31-1.72-4.35-1.15-1.04-2.75-1.56-4.81-1.56ZM597.29,619.56c0,.72-.19,1.37-.56,1.95-.37.58-.86,1.03-1.47,1.36-.61.33-1.28.5-2.03.5-.85,0-1.52-.19-2.03-.57-.51-.38-.76-.9-.76-1.56,0-.33.07-.62.2-.87.13-.25.3-.45.51-.62.29-.19.62-.31.99-.39.37-.07.74-.11,1.11-.11h4.03v.31Z"/>
  <path d="M615.33,611.34c-1.13-.67-2.43-1.01-3.92-1.01s-2.77.34-3.92,1.01c-1.15.67-2.04,1.61-2.69,2.8-.65,1.2-.98,2.56-.98,4.09s.33,2.89.98,4.09c.65,1.2,1.55,2.14,2.71,2.82,1.16.68,2.46,1.02,3.9,1.02s2.77-.34,3.92-1.02c1.15-.68,2.04-1.62,2.69-2.82.65-1.2.98-2.56.98-4.09s-.33-2.89-.99-4.09c-.66-1.2-1.55-2.13-2.68-2.8ZM615.06,620.83c-.33.74-.8,1.31-1.42,1.7-.62.39-1.35.59-2.2.59-.89,0-1.64-.2-2.26-.59-.62-.39-1.09-.96-1.42-1.7-.33-.74-.5-1.61-.5-2.6s.16-1.88.5-2.6c.33-.72.8-1.28,1.42-1.69.62-.4,1.37-.6,2.26-.6s1.58.2,2.2.59c.62.39,1.09.95,1.42,1.69.33.73.5,1.61.5,2.62s-.17,1.86-.5,2.6Z"/>
  <polygon points="684.37 625.88 698.71 625.88 698.71 622.69 687.97 622.69 687.97 616.43 697.87 616.43 697.87 613.21 687.97 613.21 687.97 607.49 698.71 607.49 698.71 604.3 684.37 604.3 684.37 625.88"/>
  <path d="M711.51,617.63c-.57-.34-1.18-.61-1.84-.82-.66-.21-1.3-.38-1.92-.53-.66-.17-1.21-.33-1.64-.5-.43-.17-.75-.35-.96-.56-.21-.21-.31-.47-.31-.8,0-.43.22-.78.67-1.05.44-.27,1-.4,1.66-.4.72,0,1.39.15,2.01.46.62.31,1.13.77,1.55,1.39l2.14-1.64c-.56-.95-1.33-1.66-2.32-2.14-.99-.47-2.08-.71-3.28-.71-1.67,0-3.02.4-4.06,1.21-1.03.8-1.55,1.88-1.55,3.22,0,.76.15,1.4.46,1.92.31.52.72.94,1.22,1.27.51.33,1.06.6,1.66.82.6.22,1.19.4,1.76.54.6.14,1.15.31,1.64.5.5.19.9.41,1.21.67.31.26.46.61.46,1.07,0,.52-.24.95-.73,1.3-.49.35-1.14.53-1.97.53-.99,0-1.83-.25-2.52-.74-.69-.5-1.23-1.06-1.63-1.7l-2.35,2.04c.37.5.85.99,1.42,1.49.58.5,1.29.9,2.14,1.22.85.32,1.82.48,2.91.48,1.22,0,2.29-.21,3.2-.62.92-.41,1.63-1,2.14-1.75.51-.75.76-1.63.76-2.62,0-.89-.18-1.61-.54-2.18-.36-.57-.83-1.02-1.39-1.36Z"/>
  <path d="M721.4,604.98l-3.47,1.92v3.72h-2.91v2.66h2.91v8.33c0,1.09.2,1.98.59,2.65.39.67.92,1.16,1.59,1.46.67.3,1.39.45,2.15.45.43,0,.86-.04,1.29-.11.42-.07.84-.18,1.25-.33v-2.66c-.31.08-.6.15-.88.2-.28.05-.52.08-.73.08-.68,0-1.15-.23-1.41-.7-.26-.46-.39-1.13-.39-2v-7.37h3.41v-2.66h-3.41v-5.63Z"/>
  <path d="M735.52,610.33c-.7,0-1.41.19-2.12.57-.71.38-1.32.91-1.81,1.58-.09.12-.17.26-.25.39v-2.26h-3.47v15.26h3.44v-6.75c0-.83.03-1.47.08-1.94.05-.46.13-.84.23-1.13.16-.54.41-.98.74-1.32.33-.34.71-.59,1.13-.76.42-.17.85-.25,1.28-.25.33,0,.68.05,1.04.14.36.09.65.21.88.36l1.67-3.1c-.5-.29-.97-.5-1.42-.62-.45-.12-.93-.19-1.42-.19Z"/>
  <path d="M747.01,610.33c-1.32,0-2.54.2-3.65.6-1.11.4-2.17,1.07-3.16,2l1.92,2.26c.66-.66,1.39-1.15,2.18-1.47.79-.32,1.6-.48,2.43-.48,1.07,0,1.91.25,2.51.76.6.51.9,1.25.9,2.24v.43h-4.52c-.72,0-1.41.07-2.07.2-.66.13-1.24.36-1.73.67-.58.35-1.05.84-1.41,1.46-.36.62-.54,1.35-.54,2.2,0,.99.24,1.86.73,2.6.48.74,1.17,1.32,2.04,1.73.88.41,1.88.62,3.02.62.89,0,1.7-.18,2.45-.54.74-.36,1.38-.91,1.92-1.64.06-.08.11-.17.16-.25l.21,2.16h3.16v-9.63c0-1.86-.57-3.31-1.72-4.35-1.15-1.04-2.75-1.56-4.81-1.56ZM750.13,619.56c0,.72-.19,1.37-.56,1.95-.37.58-.86,1.03-1.47,1.36-.61.33-1.28.5-2.03.5-.85,0-1.52-.19-2.03-.57-.51-.38-.76-.9-.76-1.56,0-.33.07-.62.2-.87.13-.25.3-.45.51-.62.29-.19.62-.31.99-.39.37-.07.74-.11,1.11-.11h4.03v.31Z"/>
  <path d="M762.05,604.98l-3.47,1.92v3.72h-2.91v2.66h2.91v8.33c0,1.09.2,1.98.59,2.65.39.67.92,1.16,1.59,1.46.67.3,1.39.45,2.15.45.43,0,.86-.04,1.28-.11.42-.07.84-.18,1.25-.33v-2.66c-.31.08-.6.15-.88.2-.28.05-.52.08-.73.08-.68,0-1.15-.23-1.41-.7-.26-.46-.39-1.13-.39-2v-7.37h3.41v-2.66h-3.41v-5.63Z"/>
  <polygon points="780.54 604.3 776.82 604.3 773.42 608.69 775.92 608.69 780.54 604.3"/>
  <path d="M779.92,612.61c-.58-.71-1.31-1.27-2.18-1.67-.88-.4-1.9-.6-3.08-.6-1.24,0-2.31.22-3.22.67-.91.44-1.65,1.05-2.23,1.81-.58.76-1.01,1.63-1.28,2.59-.28.96-.42,1.95-.42,2.96s.14,1.99.43,2.93c.29.94.73,1.78,1.33,2.52.6.74,1.37,1.32,2.31,1.73.94.41,2.05.62,3.33.62.87,0,1.65-.08,2.34-.25.69-.17,1.36-.42,2-.77.64-.35,1.28-.82,1.92-1.39l-1.89-2.29c-.58.58-1.22,1-1.92,1.27-.7.27-1.48.4-2.32.4-1.16,0-2.11-.32-2.85-.96-.74-.64-1.16-1.57-1.24-2.79h10.59c.04-.27.07-.54.08-.8.01-.27.02-.48.02-.62,0-1.03-.14-2-.42-2.91-.28-.91-.71-1.72-1.28-2.43ZM778.33,616.84h-7.46c.06-.64.24-1.23.54-1.78.3-.55.72-1,1.27-1.35.55-.35,1.22-.53,2.03-.53.58,0,1.09.1,1.55.29.45.2.84.45,1.15.77.31.32.54.69.7,1.1.15.41.23.85.23,1.3,0,.06,0,.12,0,.19Z"/>
  <path d="M796.94,609.31l-2.5,2.03c-.17-.11-.35-.22-.53-.31-.93-.46-1.95-.7-3.07-.7s-2.14.23-3.08.7c-.94.46-1.69,1.11-2.24,1.95-.56.84-.84,1.82-.84,2.96,0,1.05.26,2,.79,2.83.19.3.42.57.66.82-.34.26-.64.54-.89.85-.54.65-.8,1.37-.8,2.15,0,.89.29,1.6.88,2.14.33.3.72.56,1.14.77l-2.34,1.52c-.04.17-.07.33-.08.5-.01.16-.02.31-.02.43,0,1.4.65,2.51,1.95,3.33,1.3.82,3.08,1.22,5.33,1.22s3.81-.39,5-1.18c1.19-.78,1.78-1.91,1.78-3.37,0-.83-.18-1.5-.54-2.01-.36-.52-.87-.92-1.53-1.22-.66-.3-1.43-.53-2.32-.7-.89-.17-1.86-.31-2.91-.43-.7-.1-1.31-.21-1.81-.33-.51-.11-.89-.28-1.16-.5-.27-.22-.4-.5-.4-.85,0-.41.14-.77.43-1.07.01-.01.03-.02.04-.03.9.41,1.93.63,3.09.63s2.25-.22,3.16-.67c.91-.44,1.62-1.07,2.12-1.89.51-.82.76-1.76.76-2.83,0-1-.22-1.88-.63-2.65l2.34-1.96-1.76-2.14ZM788.44,626.17c.61.15,1.22.29,1.84.38.74.08,1.39.17,1.94.26.55.09,1.01.2,1.38.33.37.12.65.28.84.48.19.2.28.45.28.76,0,.56-.31.98-.93,1.25-.62.28-1.45.42-2.48.42-1.22,0-2.21-.17-2.99-.51-.77-.34-1.16-.83-1.16-1.47v-.17c0-.05,0-.11.03-.17l1.25-1.56ZM792.92,617.87c-.45.55-1.13.82-2.01.82s-1.6-.27-2.07-.82c-.48-.55-.71-1.21-.71-2s.25-1.46.76-1.97c.51-.51,1.18-.76,2.03-.76s1.46.25,1.95.76c.5.51.74,1.17.74,2,0,.76-.23,1.42-.68,1.97Z"/>
  <rect x="800.88" y="604.3" width="3.75" height="3.81"/>
  <rect x="801.03" y="610.61" width="3.44" height="15.26"/>
  <path d="M812.84,614.02c.57-.47,1.31-.71,2.21-.71s1.64.24,2.2.73c.56.49.96,1.12,1.21,1.9l3.03-1.18c-.54-1.51-1.37-2.62-2.49-3.34-1.13-.72-2.44-1.08-3.95-1.08-1.2,0-2.26.21-3.17.63-.92.42-1.68,1.01-2.29,1.75-.61.74-1.07,1.59-1.38,2.54-.31.95-.46,1.94-.46,2.97s.15,2.02.46,2.97c.31.95.77,1.8,1.38,2.55.61.75,1.37,1.34,2.29,1.77.92.42,1.98.63,3.17.63,1.51,0,2.82-.37,3.95-1.1,1.12-.73,1.96-1.84,2.49-3.33l-3.03-1.18c-.25.78-.65,1.41-1.21,1.89-.56.48-1.29.71-2.2.71s-1.65-.23-2.21-.7c-.57-.46-.99-1.07-1.25-1.83-.27-.75-.4-1.55-.4-2.4s.13-1.64.4-2.38c.27-.74.69-1.35,1.25-1.83Z"/>
  <path d="M831.06,610.33c-1.32,0-2.54.2-3.65.6-1.11.4-2.17,1.07-3.16,2l1.92,2.26c.66-.66,1.39-1.15,2.18-1.47.79-.32,1.6-.48,2.43-.48,1.07,0,1.91.25,2.51.76.6.51.9,1.25.9,2.24v.43h-4.52c-.72,0-1.41.07-2.07.2-.66.13-1.24.36-1.73.67-.58.35-1.05.84-1.41,1.46-.36.62-.54,1.35-.54,2.2,0,.99.24,1.86.73,2.6.48.74,1.17,1.32,2.04,1.73.88.41,1.88.62,3.02.62.89,0,1.7-.18,2.45-.54.74-.36,1.38-.91,1.92-1.64.06-.08.11-.17.16-.25l.21,2.16h3.16v-9.63c0-1.86-.57-3.31-1.72-4.35-1.15-1.04-2.75-1.56-4.81-1.56ZM834.19,619.56c0,.72-.19,1.37-.56,1.95-.37.58-.86,1.03-1.47,1.36-.61.33-1.28.5-2.03.5-.85,0-1.52-.19-2.03-.57-.51-.38-.76-.9-.76-1.56,0-.33.07-.62.2-.87.13-.25.3-.45.51-.62.29-.19.62-.31.99-.39.37-.07.74-.11,1.11-.11h4.03v.31Z"/>
</svg>